%TF.GenerationSoftware,KiCad,Pcbnew,(5.1.6)-1*%
%TF.CreationDate,2020-06-04T11:29:41+02:00*%
%TF.ProjectId,m0116_usb,6d303131-365f-4757-9362-2e6b69636164,rev?*%
%TF.SameCoordinates,Original*%
%TF.FileFunction,Legend,Top*%
%TF.FilePolarity,Positive*%
%FSLAX46Y46*%
G04 Gerber Fmt 4.6, Leading zero omitted, Abs format (unit mm)*
G04 Created by KiCad (PCBNEW (5.1.6)-1) date 2020-06-04 11:29:41*
%MOMM*%
%LPD*%
G01*
G04 APERTURE LIST*
%ADD10C,0.300000*%
%ADD11C,0.120000*%
%ADD12C,0.150000*%
%ADD13O,1.850000X1.300000*%
%ADD14O,1.700000X1.700000*%
%ADD15R,1.700000X1.700000*%
%ADD16C,1.600000*%
%ADD17C,1.700000*%
%ADD18O,1.450000X1.450000*%
%ADD19R,1.450000X1.450000*%
%ADD20O,2.800000X1.800000*%
%ADD21C,2.350000*%
%ADD22O,1.800000X1.800000*%
%ADD23R,1.800000X1.800000*%
%ADD24C,2.100000*%
G04 APERTURE END LIST*
D10*
X380559714Y-156015571D02*
X380559714Y-157015571D01*
X380559714Y-156158428D02*
X380631142Y-156087000D01*
X380774000Y-156015571D01*
X380988285Y-156015571D01*
X381131142Y-156087000D01*
X381202571Y-156229857D01*
X381202571Y-157015571D01*
X381916857Y-157015571D02*
X381916857Y-156015571D01*
X381916857Y-155515571D02*
X381845428Y-155587000D01*
X381916857Y-155658428D01*
X381988285Y-155587000D01*
X381916857Y-155515571D01*
X381916857Y-155658428D01*
X383274000Y-156944142D02*
X383131142Y-157015571D01*
X382845428Y-157015571D01*
X382702571Y-156944142D01*
X382631142Y-156872714D01*
X382559714Y-156729857D01*
X382559714Y-156301285D01*
X382631142Y-156158428D01*
X382702571Y-156087000D01*
X382845428Y-156015571D01*
X383131142Y-156015571D01*
X383274000Y-156087000D01*
X384488285Y-156944142D02*
X384345428Y-157015571D01*
X384059714Y-157015571D01*
X383916857Y-156944142D01*
X383845428Y-156801285D01*
X383845428Y-156229857D01*
X383916857Y-156087000D01*
X384059714Y-156015571D01*
X384345428Y-156015571D01*
X384488285Y-156087000D01*
X384559714Y-156229857D01*
X384559714Y-156372714D01*
X383845428Y-156515571D01*
D11*
%TO.C,J3*%
X69583000Y-80293000D02*
X70798000Y-80293000D01*
X65623000Y-80353000D02*
X63363000Y-80353000D01*
X65623000Y-80853000D02*
X63363000Y-80853000D01*
X67223000Y-87453000D02*
X67223000Y-88453000D01*
X65623000Y-87453000D02*
X67223000Y-87453000D01*
X65623000Y-88453000D02*
X65623000Y-87453000D01*
X67223000Y-88453000D02*
X65623000Y-88453000D01*
X67223000Y-80853000D02*
X67223000Y-79853000D01*
X65623000Y-80853000D02*
X67223000Y-80853000D01*
X65623000Y-79853000D02*
X65623000Y-80853000D01*
X67223000Y-79853000D02*
X65623000Y-79853000D01*
X69583000Y-89213000D02*
X69583000Y-88293000D01*
X69583000Y-79093000D02*
X69583000Y-80013000D01*
X67723000Y-86653000D02*
X63363000Y-86653000D01*
X67723000Y-81653000D02*
X67723000Y-86653000D01*
X63363000Y-81653000D02*
X67723000Y-81653000D01*
X69583000Y-88293000D02*
X69583000Y-88013000D01*
X71183000Y-88293000D02*
X69583000Y-88293000D01*
X71183000Y-89213000D02*
X71183000Y-88293000D01*
X63363000Y-89213000D02*
X71183000Y-89213000D01*
X63363000Y-79093000D02*
X63363000Y-89213000D01*
X71183000Y-79093000D02*
X63363000Y-79093000D01*
X71183000Y-80013000D02*
X71183000Y-79093000D01*
X69583000Y-80013000D02*
X71183000Y-80013000D01*
X69583000Y-80293000D02*
X69583000Y-80013000D01*
%TO.C,U1*%
X296274800Y-83124800D02*
X296274800Y-77664800D01*
X296274800Y-77664800D02*
X245354800Y-77664800D01*
X245354800Y-77664800D02*
X245354800Y-90584800D01*
X245354800Y-90584800D02*
X296274800Y-90584800D01*
X296274800Y-90584800D02*
X296274800Y-85124800D01*
X296334800Y-75174800D02*
X245294800Y-75174800D01*
X245294800Y-75174800D02*
X245294800Y-93074800D01*
X245294800Y-93074800D02*
X296334800Y-93074800D01*
X296334800Y-93074800D02*
X296334800Y-75174800D01*
X296274800Y-85124800D02*
G75*
G02*
X296274800Y-83124800I0J1000000D01*
G01*
%TO.C,XTAL1*%
X236489000Y-80393000D02*
X236489000Y-86793000D01*
X241539000Y-80393000D02*
X241539000Y-86793000D01*
X236489000Y-86793000D02*
G75*
G03*
X241539000Y-86793000I2525000J0D01*
G01*
X236489000Y-80393000D02*
G75*
G02*
X241539000Y-80393000I2525000J0D01*
G01*
%TO.C,C5*%
X235426000Y-90388000D02*
X235426000Y-89943000D01*
X235426000Y-92683000D02*
X235426000Y-92238000D01*
X241666000Y-90388000D02*
X241666000Y-89943000D01*
X241666000Y-92683000D02*
X241666000Y-92238000D01*
X241666000Y-89943000D02*
X235426000Y-89943000D01*
X241666000Y-92683000D02*
X235426000Y-92683000D01*
%TO.C,C4*%
X235426000Y-75021000D02*
X235426000Y-74576000D01*
X235426000Y-77316000D02*
X235426000Y-76871000D01*
X241666000Y-75021000D02*
X241666000Y-74576000D01*
X241666000Y-77316000D02*
X241666000Y-76871000D01*
X241666000Y-74576000D02*
X235426000Y-74576000D01*
X241666000Y-77316000D02*
X235426000Y-77316000D01*
%TO.C,C1*%
X87964000Y-80752000D02*
G75*
G03*
X87964000Y-80752000I-2620000J0D01*
G01*
X87924000Y-80752000D02*
X82764000Y-80752000D01*
X87924000Y-80792000D02*
X82764000Y-80792000D01*
X87923000Y-80832000D02*
X82765000Y-80832000D01*
X87922000Y-80872000D02*
X82766000Y-80872000D01*
X87920000Y-80912000D02*
X82768000Y-80912000D01*
X87917000Y-80952000D02*
X82771000Y-80952000D01*
X87913000Y-80992000D02*
X86384000Y-80992000D01*
X84304000Y-80992000D02*
X82775000Y-80992000D01*
X87909000Y-81032000D02*
X86384000Y-81032000D01*
X84304000Y-81032000D02*
X82779000Y-81032000D01*
X87905000Y-81072000D02*
X86384000Y-81072000D01*
X84304000Y-81072000D02*
X82783000Y-81072000D01*
X87900000Y-81112000D02*
X86384000Y-81112000D01*
X84304000Y-81112000D02*
X82788000Y-81112000D01*
X87894000Y-81152000D02*
X86384000Y-81152000D01*
X84304000Y-81152000D02*
X82794000Y-81152000D01*
X87887000Y-81192000D02*
X86384000Y-81192000D01*
X84304000Y-81192000D02*
X82801000Y-81192000D01*
X87880000Y-81232000D02*
X86384000Y-81232000D01*
X84304000Y-81232000D02*
X82808000Y-81232000D01*
X87872000Y-81272000D02*
X86384000Y-81272000D01*
X84304000Y-81272000D02*
X82816000Y-81272000D01*
X87864000Y-81312000D02*
X86384000Y-81312000D01*
X84304000Y-81312000D02*
X82824000Y-81312000D01*
X87855000Y-81352000D02*
X86384000Y-81352000D01*
X84304000Y-81352000D02*
X82833000Y-81352000D01*
X87845000Y-81392000D02*
X86384000Y-81392000D01*
X84304000Y-81392000D02*
X82843000Y-81392000D01*
X87835000Y-81432000D02*
X86384000Y-81432000D01*
X84304000Y-81432000D02*
X82853000Y-81432000D01*
X87824000Y-81473000D02*
X86384000Y-81473000D01*
X84304000Y-81473000D02*
X82864000Y-81473000D01*
X87812000Y-81513000D02*
X86384000Y-81513000D01*
X84304000Y-81513000D02*
X82876000Y-81513000D01*
X87799000Y-81553000D02*
X86384000Y-81553000D01*
X84304000Y-81553000D02*
X82889000Y-81553000D01*
X87786000Y-81593000D02*
X86384000Y-81593000D01*
X84304000Y-81593000D02*
X82902000Y-81593000D01*
X87772000Y-81633000D02*
X86384000Y-81633000D01*
X84304000Y-81633000D02*
X82916000Y-81633000D01*
X87758000Y-81673000D02*
X86384000Y-81673000D01*
X84304000Y-81673000D02*
X82930000Y-81673000D01*
X87742000Y-81713000D02*
X86384000Y-81713000D01*
X84304000Y-81713000D02*
X82946000Y-81713000D01*
X87726000Y-81753000D02*
X86384000Y-81753000D01*
X84304000Y-81753000D02*
X82962000Y-81753000D01*
X87709000Y-81793000D02*
X86384000Y-81793000D01*
X84304000Y-81793000D02*
X82979000Y-81793000D01*
X87692000Y-81833000D02*
X86384000Y-81833000D01*
X84304000Y-81833000D02*
X82996000Y-81833000D01*
X87673000Y-81873000D02*
X86384000Y-81873000D01*
X84304000Y-81873000D02*
X83015000Y-81873000D01*
X87654000Y-81913000D02*
X86384000Y-81913000D01*
X84304000Y-81913000D02*
X83034000Y-81913000D01*
X87634000Y-81953000D02*
X86384000Y-81953000D01*
X84304000Y-81953000D02*
X83054000Y-81953000D01*
X87612000Y-81993000D02*
X86384000Y-81993000D01*
X84304000Y-81993000D02*
X83076000Y-81993000D01*
X87591000Y-82033000D02*
X86384000Y-82033000D01*
X84304000Y-82033000D02*
X83097000Y-82033000D01*
X87568000Y-82073000D02*
X86384000Y-82073000D01*
X84304000Y-82073000D02*
X83120000Y-82073000D01*
X87544000Y-82113000D02*
X86384000Y-82113000D01*
X84304000Y-82113000D02*
X83144000Y-82113000D01*
X87519000Y-82153000D02*
X86384000Y-82153000D01*
X84304000Y-82153000D02*
X83169000Y-82153000D01*
X87493000Y-82193000D02*
X86384000Y-82193000D01*
X84304000Y-82193000D02*
X83195000Y-82193000D01*
X87466000Y-82233000D02*
X86384000Y-82233000D01*
X84304000Y-82233000D02*
X83222000Y-82233000D01*
X87439000Y-82273000D02*
X86384000Y-82273000D01*
X84304000Y-82273000D02*
X83249000Y-82273000D01*
X87409000Y-82313000D02*
X86384000Y-82313000D01*
X84304000Y-82313000D02*
X83279000Y-82313000D01*
X87379000Y-82353000D02*
X86384000Y-82353000D01*
X84304000Y-82353000D02*
X83309000Y-82353000D01*
X87348000Y-82393000D02*
X86384000Y-82393000D01*
X84304000Y-82393000D02*
X83340000Y-82393000D01*
X87315000Y-82433000D02*
X86384000Y-82433000D01*
X84304000Y-82433000D02*
X83373000Y-82433000D01*
X87281000Y-82473000D02*
X86384000Y-82473000D01*
X84304000Y-82473000D02*
X83407000Y-82473000D01*
X87245000Y-82513000D02*
X86384000Y-82513000D01*
X84304000Y-82513000D02*
X83443000Y-82513000D01*
X87208000Y-82553000D02*
X86384000Y-82553000D01*
X84304000Y-82553000D02*
X83480000Y-82553000D01*
X87170000Y-82593000D02*
X86384000Y-82593000D01*
X84304000Y-82593000D02*
X83518000Y-82593000D01*
X87129000Y-82633000D02*
X86384000Y-82633000D01*
X84304000Y-82633000D02*
X83559000Y-82633000D01*
X87087000Y-82673000D02*
X86384000Y-82673000D01*
X84304000Y-82673000D02*
X83601000Y-82673000D01*
X87043000Y-82713000D02*
X86384000Y-82713000D01*
X84304000Y-82713000D02*
X83645000Y-82713000D01*
X86997000Y-82753000D02*
X86384000Y-82753000D01*
X84304000Y-82753000D02*
X83691000Y-82753000D01*
X86949000Y-82793000D02*
X86384000Y-82793000D01*
X84304000Y-82793000D02*
X83739000Y-82793000D01*
X86898000Y-82833000D02*
X86384000Y-82833000D01*
X84304000Y-82833000D02*
X83790000Y-82833000D01*
X86844000Y-82873000D02*
X86384000Y-82873000D01*
X84304000Y-82873000D02*
X83844000Y-82873000D01*
X86787000Y-82913000D02*
X86384000Y-82913000D01*
X84304000Y-82913000D02*
X83901000Y-82913000D01*
X86727000Y-82953000D02*
X86384000Y-82953000D01*
X84304000Y-82953000D02*
X83961000Y-82953000D01*
X86663000Y-82993000D02*
X86384000Y-82993000D01*
X84304000Y-82993000D02*
X84025000Y-82993000D01*
X86595000Y-83033000D02*
X86384000Y-83033000D01*
X84304000Y-83033000D02*
X84093000Y-83033000D01*
X86522000Y-83073000D02*
X84166000Y-83073000D01*
X86442000Y-83113000D02*
X84246000Y-83113000D01*
X86355000Y-83153000D02*
X84333000Y-83153000D01*
X86259000Y-83193000D02*
X84429000Y-83193000D01*
X86149000Y-83233000D02*
X84539000Y-83233000D01*
X86021000Y-83273000D02*
X84667000Y-83273000D01*
X85862000Y-83313000D02*
X84826000Y-83313000D01*
X85628000Y-83353000D02*
X85060000Y-83353000D01*
X86819000Y-77947225D02*
X86819000Y-78447225D01*
X87069000Y-78197225D02*
X86569000Y-78197225D01*
%TO.C,J2*%
X34246000Y-84276000D02*
X36366000Y-84276000D01*
X34246000Y-78216000D02*
X34246000Y-84276000D01*
X36366000Y-78216000D02*
X36366000Y-84276000D01*
X34246000Y-78216000D02*
X36366000Y-78216000D01*
X34246000Y-77216000D02*
X34246000Y-76156000D01*
X34246000Y-76156000D02*
X35306000Y-76156000D01*
D12*
%TO.C,USB1*%
X24638000Y-76414000D02*
X31638000Y-76414000D01*
X31638000Y-76414000D02*
X31638000Y-84114000D01*
X31638000Y-84114000D02*
X24638000Y-84114000D01*
D11*
%TO.C,J1*%
X340554000Y-84920000D02*
X348294000Y-84920000D01*
X348294000Y-84920000D02*
X348294000Y-82260000D01*
X348294000Y-82260000D02*
X340554000Y-82260000D01*
X340554000Y-82260000D02*
X340554000Y-84920000D01*
X341504000Y-82260000D02*
X341504000Y-76260000D01*
X341504000Y-76260000D02*
X342264000Y-76260000D01*
X342264000Y-76260000D02*
X342264000Y-82260000D01*
X341564000Y-82260000D02*
X341564000Y-76260000D01*
X341684000Y-82260000D02*
X341684000Y-76260000D01*
X341804000Y-82260000D02*
X341804000Y-76260000D01*
X341924000Y-82260000D02*
X341924000Y-76260000D01*
X342044000Y-82260000D02*
X342044000Y-76260000D01*
X342164000Y-82260000D02*
X342164000Y-76260000D01*
X341504000Y-85317071D02*
X341504000Y-84920000D01*
X342264000Y-85317071D02*
X342264000Y-84920000D01*
X341504000Y-87790000D02*
X341504000Y-87402929D01*
X342264000Y-87790000D02*
X342264000Y-87402929D01*
X343154000Y-84920000D02*
X343154000Y-82260000D01*
X344044000Y-82260000D02*
X344044000Y-76260000D01*
X344044000Y-76260000D02*
X344804000Y-76260000D01*
X344804000Y-76260000D02*
X344804000Y-82260000D01*
X344044000Y-85317071D02*
X344044000Y-84920000D01*
X344804000Y-85317071D02*
X344804000Y-84920000D01*
X344044000Y-87857071D02*
X344044000Y-87402929D01*
X344804000Y-87857071D02*
X344804000Y-87402929D01*
X345694000Y-84920000D02*
X345694000Y-82260000D01*
X346584000Y-82260000D02*
X346584000Y-76260000D01*
X346584000Y-76260000D02*
X347344000Y-76260000D01*
X347344000Y-76260000D02*
X347344000Y-82260000D01*
X346584000Y-85317071D02*
X346584000Y-84920000D01*
X347344000Y-85317071D02*
X347344000Y-84920000D01*
X346584000Y-87857071D02*
X346584000Y-87402929D01*
X347344000Y-87857071D02*
X347344000Y-87402929D01*
X341884000Y-90170000D02*
X340614000Y-90170000D01*
X340614000Y-90170000D02*
X340614000Y-88900000D01*
%TO.C,D3*%
X42822000Y-109724000D02*
X45062000Y-109724000D01*
X42822000Y-109484000D02*
X45062000Y-109484000D01*
X42822000Y-109604000D02*
X45062000Y-109604000D01*
X43942000Y-105434000D02*
X43942000Y-106084000D01*
X43942000Y-110974000D02*
X43942000Y-110324000D01*
X42822000Y-106084000D02*
X42822000Y-110324000D01*
X45062000Y-106084000D02*
X42822000Y-106084000D01*
X45062000Y-110324000D02*
X45062000Y-106084000D01*
X42822000Y-110324000D02*
X45062000Y-110324000D01*
%TO.C,R3*%
X185547000Y-79272000D02*
X185547000Y-80042000D01*
X185547000Y-87352000D02*
X185547000Y-86582000D01*
X184177000Y-80042000D02*
X184177000Y-86582000D01*
X186917000Y-80042000D02*
X184177000Y-80042000D01*
X186917000Y-86582000D02*
X186917000Y-80042000D01*
X184177000Y-86582000D02*
X186917000Y-86582000D01*
%TO.C,D1*%
X77128000Y-84732000D02*
X77128000Y-86972000D01*
X77128000Y-86972000D02*
X81368000Y-86972000D01*
X81368000Y-86972000D02*
X81368000Y-84732000D01*
X81368000Y-84732000D02*
X77128000Y-84732000D01*
X76478000Y-85852000D02*
X77128000Y-85852000D01*
X82018000Y-85852000D02*
X81368000Y-85852000D01*
X77848000Y-84732000D02*
X77848000Y-86972000D01*
X77968000Y-84732000D02*
X77968000Y-86972000D01*
X77728000Y-84732000D02*
X77728000Y-86972000D01*
%TO.C,D2*%
X77128000Y-88288000D02*
X77128000Y-90528000D01*
X77128000Y-90528000D02*
X81368000Y-90528000D01*
X81368000Y-90528000D02*
X81368000Y-88288000D01*
X81368000Y-88288000D02*
X77128000Y-88288000D01*
X76478000Y-89408000D02*
X77128000Y-89408000D01*
X82018000Y-89408000D02*
X81368000Y-89408000D01*
X77848000Y-88288000D02*
X77848000Y-90528000D01*
X77968000Y-88288000D02*
X77968000Y-90528000D01*
X77728000Y-88288000D02*
X77728000Y-90528000D01*
%TO.C,D18*%
X338351000Y-110324000D02*
X340591000Y-110324000D01*
X340591000Y-110324000D02*
X340591000Y-106084000D01*
X340591000Y-106084000D02*
X338351000Y-106084000D01*
X338351000Y-106084000D02*
X338351000Y-110324000D01*
X339471000Y-110974000D02*
X339471000Y-110324000D01*
X339471000Y-105434000D02*
X339471000Y-106084000D01*
X338351000Y-109604000D02*
X340591000Y-109604000D01*
X338351000Y-109484000D02*
X340591000Y-109484000D01*
X338351000Y-109724000D02*
X340591000Y-109724000D01*
%TO.C,Reset1*%
X170037000Y-81065000D02*
X174537000Y-81065000D01*
X168787000Y-77065000D02*
X168787000Y-78565000D01*
X174537000Y-74565000D02*
X170037000Y-74565000D01*
X175787000Y-78565000D02*
X175787000Y-77065000D01*
%TO.C,R2*%
X196696000Y-80042000D02*
X193956000Y-80042000D01*
X193956000Y-80042000D02*
X193956000Y-86582000D01*
X193956000Y-86582000D02*
X196696000Y-86582000D01*
X196696000Y-86582000D02*
X196696000Y-80042000D01*
X195326000Y-79272000D02*
X195326000Y-80042000D01*
X195326000Y-87352000D02*
X195326000Y-86582000D01*
%TO.C,R4*%
X190500000Y-79272000D02*
X190500000Y-80042000D01*
X190500000Y-87352000D02*
X190500000Y-86582000D01*
X189130000Y-80042000D02*
X189130000Y-86582000D01*
X191870000Y-80042000D02*
X189130000Y-80042000D01*
X191870000Y-86582000D02*
X191870000Y-80042000D01*
X189130000Y-86582000D02*
X191870000Y-86582000D01*
%TO.C,R1*%
X161952000Y-85312000D02*
X164692000Y-85312000D01*
X164692000Y-85312000D02*
X164692000Y-78772000D01*
X164692000Y-78772000D02*
X161952000Y-78772000D01*
X161952000Y-78772000D02*
X161952000Y-85312000D01*
X163322000Y-86082000D02*
X163322000Y-85312000D01*
X163322000Y-78002000D02*
X163322000Y-78772000D01*
%TO.C,F1*%
X81586000Y-82892000D02*
X72846000Y-82892000D01*
X81586000Y-82892000D02*
X81586000Y-78652000D01*
X72846000Y-78652000D02*
X72846000Y-82892000D01*
X72846000Y-78652000D02*
X81586000Y-78652000D01*
%TO.C,D74*%
X126642000Y-83273000D02*
X128882000Y-83273000D01*
X128882000Y-83273000D02*
X128882000Y-79033000D01*
X128882000Y-79033000D02*
X126642000Y-79033000D01*
X126642000Y-79033000D02*
X126642000Y-83273000D01*
X127762000Y-83923000D02*
X127762000Y-83273000D01*
X127762000Y-78383000D02*
X127762000Y-79033000D01*
X126642000Y-82553000D02*
X128882000Y-82553000D01*
X126642000Y-82433000D02*
X128882000Y-82433000D01*
X126642000Y-82673000D02*
X128882000Y-82673000D01*
%TO.C,D83*%
X382944000Y-179093000D02*
X382944000Y-181333000D01*
X382944000Y-181333000D02*
X387184000Y-181333000D01*
X387184000Y-181333000D02*
X387184000Y-179093000D01*
X387184000Y-179093000D02*
X382944000Y-179093000D01*
X382294000Y-180213000D02*
X382944000Y-180213000D01*
X387834000Y-180213000D02*
X387184000Y-180213000D01*
X383664000Y-179093000D02*
X383664000Y-181333000D01*
X383784000Y-179093000D02*
X383784000Y-181333000D01*
X383544000Y-179093000D02*
X383544000Y-181333000D01*
%TO.C,D82*%
X378437000Y-170600000D02*
X376197000Y-170600000D01*
X376197000Y-170600000D02*
X376197000Y-174840000D01*
X376197000Y-174840000D02*
X378437000Y-174840000D01*
X378437000Y-174840000D02*
X378437000Y-170600000D01*
X377317000Y-169950000D02*
X377317000Y-170600000D01*
X377317000Y-175490000D02*
X377317000Y-174840000D01*
X378437000Y-171320000D02*
X376197000Y-171320000D01*
X378437000Y-171440000D02*
X376197000Y-171440000D01*
X378437000Y-171200000D02*
X376197000Y-171200000D01*
%TO.C,D81*%
X350624000Y-170600000D02*
X348384000Y-170600000D01*
X348384000Y-170600000D02*
X348384000Y-174840000D01*
X348384000Y-174840000D02*
X350624000Y-174840000D01*
X350624000Y-174840000D02*
X350624000Y-170600000D01*
X349504000Y-169950000D02*
X349504000Y-170600000D01*
X349504000Y-175490000D02*
X349504000Y-174840000D01*
X350624000Y-171320000D02*
X348384000Y-171320000D01*
X350624000Y-171440000D02*
X348384000Y-171440000D01*
X350624000Y-171200000D02*
X348384000Y-171200000D01*
%TO.C,D80*%
X302618000Y-170600000D02*
X300378000Y-170600000D01*
X300378000Y-170600000D02*
X300378000Y-174840000D01*
X300378000Y-174840000D02*
X302618000Y-174840000D01*
X302618000Y-174840000D02*
X302618000Y-170600000D01*
X301498000Y-169950000D02*
X301498000Y-170600000D01*
X301498000Y-175490000D02*
X301498000Y-174840000D01*
X302618000Y-171320000D02*
X300378000Y-171320000D01*
X302618000Y-171440000D02*
X300378000Y-171440000D01*
X302618000Y-171200000D02*
X300378000Y-171200000D01*
%TO.C,D79*%
X283441000Y-170600000D02*
X281201000Y-170600000D01*
X281201000Y-170600000D02*
X281201000Y-174840000D01*
X281201000Y-174840000D02*
X283441000Y-174840000D01*
X283441000Y-174840000D02*
X283441000Y-170600000D01*
X282321000Y-169950000D02*
X282321000Y-170600000D01*
X282321000Y-175490000D02*
X282321000Y-174840000D01*
X283441000Y-171320000D02*
X281201000Y-171320000D01*
X283441000Y-171440000D02*
X281201000Y-171440000D01*
X283441000Y-171200000D02*
X281201000Y-171200000D01*
%TO.C,D78*%
X264391000Y-170600000D02*
X262151000Y-170600000D01*
X262151000Y-170600000D02*
X262151000Y-174840000D01*
X262151000Y-174840000D02*
X264391000Y-174840000D01*
X264391000Y-174840000D02*
X264391000Y-170600000D01*
X263271000Y-169950000D02*
X263271000Y-170600000D01*
X263271000Y-175490000D02*
X263271000Y-174840000D01*
X264391000Y-171320000D02*
X262151000Y-171320000D01*
X264391000Y-171440000D02*
X262151000Y-171440000D01*
X264391000Y-171200000D02*
X262151000Y-171200000D01*
%TO.C,D77*%
X245214000Y-170600000D02*
X242974000Y-170600000D01*
X242974000Y-170600000D02*
X242974000Y-174840000D01*
X242974000Y-174840000D02*
X245214000Y-174840000D01*
X245214000Y-174840000D02*
X245214000Y-170600000D01*
X244094000Y-169950000D02*
X244094000Y-170600000D01*
X244094000Y-175490000D02*
X244094000Y-174840000D01*
X245214000Y-171320000D02*
X242974000Y-171320000D01*
X245214000Y-171440000D02*
X242974000Y-171440000D01*
X245214000Y-171200000D02*
X242974000Y-171200000D01*
%TO.C,D76*%
X226037000Y-170600000D02*
X223797000Y-170600000D01*
X223797000Y-170600000D02*
X223797000Y-174840000D01*
X223797000Y-174840000D02*
X226037000Y-174840000D01*
X226037000Y-174840000D02*
X226037000Y-170600000D01*
X224917000Y-169950000D02*
X224917000Y-170600000D01*
X224917000Y-175490000D02*
X224917000Y-174840000D01*
X226037000Y-171320000D02*
X223797000Y-171320000D01*
X226037000Y-171440000D02*
X223797000Y-171440000D01*
X226037000Y-171200000D02*
X223797000Y-171200000D01*
%TO.C,D75*%
X197335000Y-170600000D02*
X195095000Y-170600000D01*
X195095000Y-170600000D02*
X195095000Y-174840000D01*
X195095000Y-174840000D02*
X197335000Y-174840000D01*
X197335000Y-174840000D02*
X197335000Y-170600000D01*
X196215000Y-169950000D02*
X196215000Y-170600000D01*
X196215000Y-175490000D02*
X196215000Y-174840000D01*
X197335000Y-171320000D02*
X195095000Y-171320000D01*
X197335000Y-171440000D02*
X195095000Y-171440000D01*
X197335000Y-171200000D02*
X195095000Y-171200000D01*
%TO.C,D73*%
X116055000Y-170473000D02*
X113815000Y-170473000D01*
X113815000Y-170473000D02*
X113815000Y-174713000D01*
X113815000Y-174713000D02*
X116055000Y-174713000D01*
X116055000Y-174713000D02*
X116055000Y-170473000D01*
X114935000Y-169823000D02*
X114935000Y-170473000D01*
X114935000Y-175363000D02*
X114935000Y-174713000D01*
X116055000Y-171193000D02*
X113815000Y-171193000D01*
X116055000Y-171313000D02*
X113815000Y-171313000D01*
X116055000Y-171073000D02*
X113815000Y-171073000D01*
%TO.C,D72*%
X89766000Y-170473000D02*
X87526000Y-170473000D01*
X87526000Y-170473000D02*
X87526000Y-174713000D01*
X87526000Y-174713000D02*
X89766000Y-174713000D01*
X89766000Y-174713000D02*
X89766000Y-170473000D01*
X88646000Y-169823000D02*
X88646000Y-170473000D01*
X88646000Y-175363000D02*
X88646000Y-174713000D01*
X89766000Y-171193000D02*
X87526000Y-171193000D01*
X89766000Y-171313000D02*
X87526000Y-171313000D01*
X89766000Y-171073000D02*
X87526000Y-171073000D01*
%TO.C,D71*%
X63731000Y-170473000D02*
X61491000Y-170473000D01*
X61491000Y-170473000D02*
X61491000Y-174713000D01*
X61491000Y-174713000D02*
X63731000Y-174713000D01*
X63731000Y-174713000D02*
X63731000Y-170473000D01*
X62611000Y-169823000D02*
X62611000Y-170473000D01*
X62611000Y-175363000D02*
X62611000Y-174713000D01*
X63731000Y-171193000D02*
X61491000Y-171193000D01*
X63731000Y-171313000D02*
X61491000Y-171313000D01*
X63731000Y-171073000D02*
X61491000Y-171073000D01*
%TO.C,D70*%
X44681000Y-170473000D02*
X42441000Y-170473000D01*
X42441000Y-170473000D02*
X42441000Y-174713000D01*
X42441000Y-174713000D02*
X44681000Y-174713000D01*
X44681000Y-174713000D02*
X44681000Y-170473000D01*
X43561000Y-169823000D02*
X43561000Y-170473000D01*
X43561000Y-175363000D02*
X43561000Y-174713000D01*
X44681000Y-171193000D02*
X42441000Y-171193000D01*
X44681000Y-171313000D02*
X42441000Y-171313000D01*
X44681000Y-171073000D02*
X42441000Y-171073000D01*
%TO.C,D69*%
X376070000Y-158965000D02*
X378310000Y-158965000D01*
X378310000Y-158965000D02*
X378310000Y-154725000D01*
X378310000Y-154725000D02*
X376070000Y-154725000D01*
X376070000Y-154725000D02*
X376070000Y-158965000D01*
X377190000Y-159615000D02*
X377190000Y-158965000D01*
X377190000Y-154075000D02*
X377190000Y-154725000D01*
X376070000Y-158245000D02*
X378310000Y-158245000D01*
X376070000Y-158125000D02*
X378310000Y-158125000D01*
X376070000Y-158365000D02*
X378310000Y-158365000D01*
%TO.C,D68*%
X357274000Y-158965000D02*
X359514000Y-158965000D01*
X359514000Y-158965000D02*
X359514000Y-154725000D01*
X359514000Y-154725000D02*
X357274000Y-154725000D01*
X357274000Y-154725000D02*
X357274000Y-158965000D01*
X358394000Y-159615000D02*
X358394000Y-158965000D01*
X358394000Y-154075000D02*
X358394000Y-154725000D01*
X357274000Y-158245000D02*
X359514000Y-158245000D01*
X357274000Y-158125000D02*
X359514000Y-158125000D01*
X357274000Y-158365000D02*
X359514000Y-158365000D01*
%TO.C,D67*%
X338351000Y-158965000D02*
X340591000Y-158965000D01*
X340591000Y-158965000D02*
X340591000Y-154725000D01*
X340591000Y-154725000D02*
X338351000Y-154725000D01*
X338351000Y-154725000D02*
X338351000Y-158965000D01*
X339471000Y-159615000D02*
X339471000Y-158965000D01*
X339471000Y-154075000D02*
X339471000Y-154725000D01*
X338351000Y-158245000D02*
X340591000Y-158245000D01*
X338351000Y-158125000D02*
X340591000Y-158125000D01*
X338351000Y-158365000D02*
X340591000Y-158365000D01*
%TO.C,D66*%
X288567000Y-158965000D02*
X290807000Y-158965000D01*
X290807000Y-158965000D02*
X290807000Y-154725000D01*
X290807000Y-154725000D02*
X288567000Y-154725000D01*
X288567000Y-154725000D02*
X288567000Y-158965000D01*
X289687000Y-159615000D02*
X289687000Y-158965000D01*
X289687000Y-154075000D02*
X289687000Y-154725000D01*
X288567000Y-158245000D02*
X290807000Y-158245000D01*
X288567000Y-158125000D02*
X290807000Y-158125000D01*
X288567000Y-158365000D02*
X290807000Y-158365000D01*
%TO.C,D65*%
X257579000Y-158965000D02*
X259819000Y-158965000D01*
X259819000Y-158965000D02*
X259819000Y-154725000D01*
X259819000Y-154725000D02*
X257579000Y-154725000D01*
X257579000Y-154725000D02*
X257579000Y-158965000D01*
X258699000Y-159615000D02*
X258699000Y-158965000D01*
X258699000Y-154075000D02*
X258699000Y-154725000D01*
X257579000Y-158245000D02*
X259819000Y-158245000D01*
X257579000Y-158125000D02*
X259819000Y-158125000D01*
X257579000Y-158365000D02*
X259819000Y-158365000D01*
%TO.C,D64*%
X238148000Y-158965000D02*
X240388000Y-158965000D01*
X240388000Y-158965000D02*
X240388000Y-154725000D01*
X240388000Y-154725000D02*
X238148000Y-154725000D01*
X238148000Y-154725000D02*
X238148000Y-158965000D01*
X239268000Y-159615000D02*
X239268000Y-158965000D01*
X239268000Y-154075000D02*
X239268000Y-154725000D01*
X238148000Y-158245000D02*
X240388000Y-158245000D01*
X238148000Y-158125000D02*
X240388000Y-158125000D01*
X238148000Y-158365000D02*
X240388000Y-158365000D01*
%TO.C,D63*%
X219098000Y-158965000D02*
X221338000Y-158965000D01*
X221338000Y-158965000D02*
X221338000Y-154725000D01*
X221338000Y-154725000D02*
X219098000Y-154725000D01*
X219098000Y-154725000D02*
X219098000Y-158965000D01*
X220218000Y-159615000D02*
X220218000Y-158965000D01*
X220218000Y-154075000D02*
X220218000Y-154725000D01*
X219098000Y-158245000D02*
X221338000Y-158245000D01*
X219098000Y-158125000D02*
X221338000Y-158125000D01*
X219098000Y-158365000D02*
X221338000Y-158365000D01*
%TO.C,D62*%
X199921000Y-158965000D02*
X202161000Y-158965000D01*
X202161000Y-158965000D02*
X202161000Y-154725000D01*
X202161000Y-154725000D02*
X199921000Y-154725000D01*
X199921000Y-154725000D02*
X199921000Y-158965000D01*
X201041000Y-159615000D02*
X201041000Y-158965000D01*
X201041000Y-154075000D02*
X201041000Y-154725000D01*
X199921000Y-158245000D02*
X202161000Y-158245000D01*
X199921000Y-158125000D02*
X202161000Y-158125000D01*
X199921000Y-158365000D02*
X202161000Y-158365000D01*
%TO.C,D61*%
X180871000Y-158965000D02*
X183111000Y-158965000D01*
X183111000Y-158965000D02*
X183111000Y-154725000D01*
X183111000Y-154725000D02*
X180871000Y-154725000D01*
X180871000Y-154725000D02*
X180871000Y-158965000D01*
X181991000Y-159615000D02*
X181991000Y-158965000D01*
X181991000Y-154075000D02*
X181991000Y-154725000D01*
X180871000Y-158245000D02*
X183111000Y-158245000D01*
X180871000Y-158125000D02*
X183111000Y-158125000D01*
X180871000Y-158365000D02*
X183111000Y-158365000D01*
%TO.C,D60*%
X161694000Y-158965000D02*
X163934000Y-158965000D01*
X163934000Y-158965000D02*
X163934000Y-154725000D01*
X163934000Y-154725000D02*
X161694000Y-154725000D01*
X161694000Y-154725000D02*
X161694000Y-158965000D01*
X162814000Y-159615000D02*
X162814000Y-158965000D01*
X162814000Y-154075000D02*
X162814000Y-154725000D01*
X161694000Y-158245000D02*
X163934000Y-158245000D01*
X161694000Y-158125000D02*
X163934000Y-158125000D01*
X161694000Y-158365000D02*
X163934000Y-158365000D01*
%TO.C,D59*%
X142517000Y-158965000D02*
X144757000Y-158965000D01*
X144757000Y-158965000D02*
X144757000Y-154725000D01*
X144757000Y-154725000D02*
X142517000Y-154725000D01*
X142517000Y-154725000D02*
X142517000Y-158965000D01*
X143637000Y-159615000D02*
X143637000Y-158965000D01*
X143637000Y-154075000D02*
X143637000Y-154725000D01*
X142517000Y-158245000D02*
X144757000Y-158245000D01*
X142517000Y-158125000D02*
X144757000Y-158125000D01*
X142517000Y-158365000D02*
X144757000Y-158365000D01*
%TO.C,D58*%
X123467000Y-158965000D02*
X125707000Y-158965000D01*
X125707000Y-158965000D02*
X125707000Y-154725000D01*
X125707000Y-154725000D02*
X123467000Y-154725000D01*
X123467000Y-154725000D02*
X123467000Y-158965000D01*
X124587000Y-159615000D02*
X124587000Y-158965000D01*
X124587000Y-154075000D02*
X124587000Y-154725000D01*
X123467000Y-158245000D02*
X125707000Y-158245000D01*
X123467000Y-158125000D02*
X125707000Y-158125000D01*
X123467000Y-158365000D02*
X125707000Y-158365000D01*
%TO.C,D57*%
X104290000Y-158965000D02*
X106530000Y-158965000D01*
X106530000Y-158965000D02*
X106530000Y-154725000D01*
X106530000Y-154725000D02*
X104290000Y-154725000D01*
X104290000Y-154725000D02*
X104290000Y-158965000D01*
X105410000Y-159615000D02*
X105410000Y-158965000D01*
X105410000Y-154075000D02*
X105410000Y-154725000D01*
X104290000Y-158245000D02*
X106530000Y-158245000D01*
X104290000Y-158125000D02*
X106530000Y-158125000D01*
X104290000Y-158365000D02*
X106530000Y-158365000D01*
%TO.C,D56*%
X85240000Y-158965000D02*
X87480000Y-158965000D01*
X87480000Y-158965000D02*
X87480000Y-154725000D01*
X87480000Y-154725000D02*
X85240000Y-154725000D01*
X85240000Y-154725000D02*
X85240000Y-158965000D01*
X86360000Y-159615000D02*
X86360000Y-158965000D01*
X86360000Y-154075000D02*
X86360000Y-154725000D01*
X85240000Y-158245000D02*
X87480000Y-158245000D01*
X85240000Y-158125000D02*
X87480000Y-158125000D01*
X85240000Y-158365000D02*
X87480000Y-158365000D01*
%TO.C,D55*%
X54633000Y-158965000D02*
X56873000Y-158965000D01*
X56873000Y-158965000D02*
X56873000Y-154725000D01*
X56873000Y-154725000D02*
X54633000Y-154725000D01*
X54633000Y-154725000D02*
X54633000Y-158965000D01*
X55753000Y-159615000D02*
X55753000Y-158965000D01*
X55753000Y-154075000D02*
X55753000Y-154725000D01*
X54633000Y-158245000D02*
X56873000Y-158245000D01*
X54633000Y-158125000D02*
X56873000Y-158125000D01*
X54633000Y-158365000D02*
X56873000Y-158365000D01*
%TO.C,D54*%
X378310000Y-141517000D02*
X376070000Y-141517000D01*
X376070000Y-141517000D02*
X376070000Y-145757000D01*
X376070000Y-145757000D02*
X378310000Y-145757000D01*
X378310000Y-145757000D02*
X378310000Y-141517000D01*
X377190000Y-140867000D02*
X377190000Y-141517000D01*
X377190000Y-146407000D02*
X377190000Y-145757000D01*
X378310000Y-142237000D02*
X376070000Y-142237000D01*
X378310000Y-142357000D02*
X376070000Y-142357000D01*
X378310000Y-142117000D02*
X376070000Y-142117000D01*
%TO.C,D53*%
X359514000Y-141517000D02*
X357274000Y-141517000D01*
X357274000Y-141517000D02*
X357274000Y-145757000D01*
X357274000Y-145757000D02*
X359514000Y-145757000D01*
X359514000Y-145757000D02*
X359514000Y-141517000D01*
X358394000Y-140867000D02*
X358394000Y-141517000D01*
X358394000Y-146407000D02*
X358394000Y-145757000D01*
X359514000Y-142237000D02*
X357274000Y-142237000D01*
X359514000Y-142357000D02*
X357274000Y-142357000D01*
X359514000Y-142117000D02*
X357274000Y-142117000D01*
%TO.C,D52*%
X340591000Y-141517000D02*
X338351000Y-141517000D01*
X338351000Y-141517000D02*
X338351000Y-145757000D01*
X338351000Y-145757000D02*
X340591000Y-145757000D01*
X340591000Y-145757000D02*
X340591000Y-141517000D01*
X339471000Y-140867000D02*
X339471000Y-141517000D01*
X339471000Y-146407000D02*
X339471000Y-145757000D01*
X340591000Y-142237000D02*
X338351000Y-142237000D01*
X340591000Y-142357000D02*
X338351000Y-142357000D01*
X340591000Y-142117000D02*
X338351000Y-142117000D01*
%TO.C,D51*%
X321414000Y-141517000D02*
X319174000Y-141517000D01*
X319174000Y-141517000D02*
X319174000Y-145757000D01*
X319174000Y-145757000D02*
X321414000Y-145757000D01*
X321414000Y-145757000D02*
X321414000Y-141517000D01*
X320294000Y-140867000D02*
X320294000Y-141517000D01*
X320294000Y-146407000D02*
X320294000Y-145757000D01*
X321414000Y-142237000D02*
X319174000Y-142237000D01*
X321414000Y-142357000D02*
X319174000Y-142357000D01*
X321414000Y-142117000D02*
X319174000Y-142117000D01*
%TO.C,D50*%
X269344000Y-141517000D02*
X267104000Y-141517000D01*
X267104000Y-141517000D02*
X267104000Y-145757000D01*
X267104000Y-145757000D02*
X269344000Y-145757000D01*
X269344000Y-145757000D02*
X269344000Y-141517000D01*
X268224000Y-140867000D02*
X268224000Y-141517000D01*
X268224000Y-146407000D02*
X268224000Y-145757000D01*
X269344000Y-142237000D02*
X267104000Y-142237000D01*
X269344000Y-142357000D02*
X267104000Y-142357000D01*
X269344000Y-142117000D02*
X267104000Y-142117000D01*
%TO.C,D49*%
X249913000Y-141517000D02*
X247673000Y-141517000D01*
X247673000Y-141517000D02*
X247673000Y-145757000D01*
X247673000Y-145757000D02*
X249913000Y-145757000D01*
X249913000Y-145757000D02*
X249913000Y-141517000D01*
X248793000Y-140867000D02*
X248793000Y-141517000D01*
X248793000Y-146407000D02*
X248793000Y-145757000D01*
X249913000Y-142237000D02*
X247673000Y-142237000D01*
X249913000Y-142357000D02*
X247673000Y-142357000D01*
X249913000Y-142117000D02*
X247673000Y-142117000D01*
%TO.C,D48*%
X230736000Y-141517000D02*
X228496000Y-141517000D01*
X228496000Y-141517000D02*
X228496000Y-145757000D01*
X228496000Y-145757000D02*
X230736000Y-145757000D01*
X230736000Y-145757000D02*
X230736000Y-141517000D01*
X229616000Y-140867000D02*
X229616000Y-141517000D01*
X229616000Y-146407000D02*
X229616000Y-145757000D01*
X230736000Y-142237000D02*
X228496000Y-142237000D01*
X230736000Y-142357000D02*
X228496000Y-142357000D01*
X230736000Y-142117000D02*
X228496000Y-142117000D01*
%TO.C,D47*%
X211686000Y-141517000D02*
X209446000Y-141517000D01*
X209446000Y-141517000D02*
X209446000Y-145757000D01*
X209446000Y-145757000D02*
X211686000Y-145757000D01*
X211686000Y-145757000D02*
X211686000Y-141517000D01*
X210566000Y-140867000D02*
X210566000Y-141517000D01*
X210566000Y-146407000D02*
X210566000Y-145757000D01*
X211686000Y-142237000D02*
X209446000Y-142237000D01*
X211686000Y-142357000D02*
X209446000Y-142357000D01*
X211686000Y-142117000D02*
X209446000Y-142117000D01*
%TO.C,D46*%
X192509000Y-141517000D02*
X190269000Y-141517000D01*
X190269000Y-141517000D02*
X190269000Y-145757000D01*
X190269000Y-145757000D02*
X192509000Y-145757000D01*
X192509000Y-145757000D02*
X192509000Y-141517000D01*
X191389000Y-140867000D02*
X191389000Y-141517000D01*
X191389000Y-146407000D02*
X191389000Y-145757000D01*
X192509000Y-142237000D02*
X190269000Y-142237000D01*
X192509000Y-142357000D02*
X190269000Y-142357000D01*
X192509000Y-142117000D02*
X190269000Y-142117000D01*
%TO.C,D45*%
X173332000Y-141517000D02*
X171092000Y-141517000D01*
X171092000Y-141517000D02*
X171092000Y-145757000D01*
X171092000Y-145757000D02*
X173332000Y-145757000D01*
X173332000Y-145757000D02*
X173332000Y-141517000D01*
X172212000Y-140867000D02*
X172212000Y-141517000D01*
X172212000Y-146407000D02*
X172212000Y-145757000D01*
X173332000Y-142237000D02*
X171092000Y-142237000D01*
X173332000Y-142357000D02*
X171092000Y-142357000D01*
X173332000Y-142117000D02*
X171092000Y-142117000D01*
%TO.C,D44*%
X154282000Y-141517000D02*
X152042000Y-141517000D01*
X152042000Y-141517000D02*
X152042000Y-145757000D01*
X152042000Y-145757000D02*
X154282000Y-145757000D01*
X154282000Y-145757000D02*
X154282000Y-141517000D01*
X153162000Y-140867000D02*
X153162000Y-141517000D01*
X153162000Y-146407000D02*
X153162000Y-145757000D01*
X154282000Y-142237000D02*
X152042000Y-142237000D01*
X154282000Y-142357000D02*
X152042000Y-142357000D01*
X154282000Y-142117000D02*
X152042000Y-142117000D01*
%TO.C,D43*%
X135232000Y-141517000D02*
X132992000Y-141517000D01*
X132992000Y-141517000D02*
X132992000Y-145757000D01*
X132992000Y-145757000D02*
X135232000Y-145757000D01*
X135232000Y-145757000D02*
X135232000Y-141517000D01*
X134112000Y-140867000D02*
X134112000Y-141517000D01*
X134112000Y-146407000D02*
X134112000Y-145757000D01*
X135232000Y-142237000D02*
X132992000Y-142237000D01*
X135232000Y-142357000D02*
X132992000Y-142357000D01*
X135232000Y-142117000D02*
X132992000Y-142117000D01*
%TO.C,D42*%
X116055000Y-141517000D02*
X113815000Y-141517000D01*
X113815000Y-141517000D02*
X113815000Y-145757000D01*
X113815000Y-145757000D02*
X116055000Y-145757000D01*
X116055000Y-145757000D02*
X116055000Y-141517000D01*
X114935000Y-140867000D02*
X114935000Y-141517000D01*
X114935000Y-146407000D02*
X114935000Y-145757000D01*
X116055000Y-142237000D02*
X113815000Y-142237000D01*
X116055000Y-142357000D02*
X113815000Y-142357000D01*
X116055000Y-142117000D02*
X113815000Y-142117000D01*
%TO.C,D41*%
X97005000Y-141517000D02*
X94765000Y-141517000D01*
X94765000Y-141517000D02*
X94765000Y-145757000D01*
X94765000Y-145757000D02*
X97005000Y-145757000D01*
X97005000Y-145757000D02*
X97005000Y-141517000D01*
X95885000Y-140867000D02*
X95885000Y-141517000D01*
X95885000Y-146407000D02*
X95885000Y-145757000D01*
X97005000Y-142237000D02*
X94765000Y-142237000D01*
X97005000Y-142357000D02*
X94765000Y-142357000D01*
X97005000Y-142117000D02*
X94765000Y-142117000D01*
%TO.C,D40*%
X77955000Y-141517000D02*
X75715000Y-141517000D01*
X75715000Y-141517000D02*
X75715000Y-145757000D01*
X75715000Y-145757000D02*
X77955000Y-145757000D01*
X77955000Y-145757000D02*
X77955000Y-141517000D01*
X76835000Y-140867000D02*
X76835000Y-141517000D01*
X76835000Y-146407000D02*
X76835000Y-145757000D01*
X77955000Y-142237000D02*
X75715000Y-142237000D01*
X77955000Y-142357000D02*
X75715000Y-142357000D01*
X77955000Y-142117000D02*
X75715000Y-142117000D01*
%TO.C,D39*%
X51920000Y-141517000D02*
X49680000Y-141517000D01*
X49680000Y-141517000D02*
X49680000Y-145757000D01*
X49680000Y-145757000D02*
X51920000Y-145757000D01*
X51920000Y-145757000D02*
X51920000Y-141517000D01*
X50800000Y-140867000D02*
X50800000Y-141517000D01*
X50800000Y-146407000D02*
X50800000Y-145757000D01*
X51920000Y-142237000D02*
X49680000Y-142237000D01*
X51920000Y-142357000D02*
X49680000Y-142357000D01*
X51920000Y-142117000D02*
X49680000Y-142117000D01*
%TO.C,D38*%
X378310000Y-122594000D02*
X376070000Y-122594000D01*
X376070000Y-122594000D02*
X376070000Y-126834000D01*
X376070000Y-126834000D02*
X378310000Y-126834000D01*
X378310000Y-126834000D02*
X378310000Y-122594000D01*
X377190000Y-121944000D02*
X377190000Y-122594000D01*
X377190000Y-127484000D02*
X377190000Y-126834000D01*
X378310000Y-123314000D02*
X376070000Y-123314000D01*
X378310000Y-123434000D02*
X376070000Y-123434000D01*
X378310000Y-123194000D02*
X376070000Y-123194000D01*
%TO.C,D37*%
X359514000Y-122594000D02*
X357274000Y-122594000D01*
X357274000Y-122594000D02*
X357274000Y-126834000D01*
X357274000Y-126834000D02*
X359514000Y-126834000D01*
X359514000Y-126834000D02*
X359514000Y-122594000D01*
X358394000Y-121944000D02*
X358394000Y-122594000D01*
X358394000Y-127484000D02*
X358394000Y-126834000D01*
X359514000Y-123314000D02*
X357274000Y-123314000D01*
X359514000Y-123434000D02*
X357274000Y-123434000D01*
X359514000Y-123194000D02*
X357274000Y-123194000D01*
%TO.C,D36*%
X340591000Y-122594000D02*
X338351000Y-122594000D01*
X338351000Y-122594000D02*
X338351000Y-126834000D01*
X338351000Y-126834000D02*
X340591000Y-126834000D01*
X340591000Y-126834000D02*
X340591000Y-122594000D01*
X339471000Y-121944000D02*
X339471000Y-122594000D01*
X339471000Y-127484000D02*
X339471000Y-126834000D01*
X340591000Y-123314000D02*
X338351000Y-123314000D01*
X340591000Y-123434000D02*
X338351000Y-123434000D01*
X340591000Y-123194000D02*
X338351000Y-123194000D01*
%TO.C,D35*%
X321541000Y-122594000D02*
X319301000Y-122594000D01*
X319301000Y-122594000D02*
X319301000Y-126834000D01*
X319301000Y-126834000D02*
X321541000Y-126834000D01*
X321541000Y-126834000D02*
X321541000Y-122594000D01*
X320421000Y-121944000D02*
X320421000Y-122594000D01*
X320421000Y-127484000D02*
X320421000Y-126834000D01*
X321541000Y-123314000D02*
X319301000Y-123314000D01*
X321541000Y-123434000D02*
X319301000Y-123434000D01*
X321541000Y-123194000D02*
X319301000Y-123194000D01*
%TO.C,D34*%
X302999000Y-122594000D02*
X300759000Y-122594000D01*
X300759000Y-122594000D02*
X300759000Y-126834000D01*
X300759000Y-126834000D02*
X302999000Y-126834000D01*
X302999000Y-126834000D02*
X302999000Y-122594000D01*
X301879000Y-121944000D02*
X301879000Y-122594000D01*
X301879000Y-127484000D02*
X301879000Y-126834000D01*
X302999000Y-123314000D02*
X300759000Y-123314000D01*
X302999000Y-123434000D02*
X300759000Y-123434000D01*
X302999000Y-123194000D02*
X300759000Y-123194000D01*
%TO.C,D33*%
X283441000Y-122594000D02*
X281201000Y-122594000D01*
X281201000Y-122594000D02*
X281201000Y-126834000D01*
X281201000Y-126834000D02*
X283441000Y-126834000D01*
X283441000Y-126834000D02*
X283441000Y-122594000D01*
X282321000Y-121944000D02*
X282321000Y-122594000D01*
X282321000Y-127484000D02*
X282321000Y-126834000D01*
X283441000Y-123314000D02*
X281201000Y-123314000D01*
X283441000Y-123434000D02*
X281201000Y-123434000D01*
X283441000Y-123194000D02*
X281201000Y-123194000D01*
%TO.C,D32*%
X264391000Y-122594000D02*
X262151000Y-122594000D01*
X262151000Y-122594000D02*
X262151000Y-126834000D01*
X262151000Y-126834000D02*
X264391000Y-126834000D01*
X264391000Y-126834000D02*
X264391000Y-122594000D01*
X263271000Y-121944000D02*
X263271000Y-122594000D01*
X263271000Y-127484000D02*
X263271000Y-126834000D01*
X264391000Y-123314000D02*
X262151000Y-123314000D01*
X264391000Y-123434000D02*
X262151000Y-123434000D01*
X264391000Y-123194000D02*
X262151000Y-123194000D01*
%TO.C,D31*%
X245264800Y-122594000D02*
X243024800Y-122594000D01*
X243024800Y-122594000D02*
X243024800Y-126834000D01*
X243024800Y-126834000D02*
X245264800Y-126834000D01*
X245264800Y-126834000D02*
X245264800Y-122594000D01*
X244144800Y-121944000D02*
X244144800Y-122594000D01*
X244144800Y-127484000D02*
X244144800Y-126834000D01*
X245264800Y-123314000D02*
X243024800Y-123314000D01*
X245264800Y-123434000D02*
X243024800Y-123434000D01*
X245264800Y-123194000D02*
X243024800Y-123194000D01*
%TO.C,D30*%
X226062400Y-122594000D02*
X223822400Y-122594000D01*
X223822400Y-122594000D02*
X223822400Y-126834000D01*
X223822400Y-126834000D02*
X226062400Y-126834000D01*
X226062400Y-126834000D02*
X226062400Y-122594000D01*
X224942400Y-121944000D02*
X224942400Y-122594000D01*
X224942400Y-127484000D02*
X224942400Y-126834000D01*
X226062400Y-123314000D02*
X223822400Y-123314000D01*
X226062400Y-123434000D02*
X223822400Y-123434000D01*
X226062400Y-123194000D02*
X223822400Y-123194000D01*
%TO.C,D29*%
X206961600Y-122594000D02*
X204721600Y-122594000D01*
X204721600Y-122594000D02*
X204721600Y-126834000D01*
X204721600Y-126834000D02*
X206961600Y-126834000D01*
X206961600Y-126834000D02*
X206961600Y-122594000D01*
X205841600Y-121944000D02*
X205841600Y-122594000D01*
X205841600Y-127484000D02*
X205841600Y-126834000D01*
X206961600Y-123314000D02*
X204721600Y-123314000D01*
X206961600Y-123434000D02*
X204721600Y-123434000D01*
X206961600Y-123194000D02*
X204721600Y-123194000D01*
%TO.C,D28*%
X187860800Y-122594000D02*
X185620800Y-122594000D01*
X185620800Y-122594000D02*
X185620800Y-126834000D01*
X185620800Y-126834000D02*
X187860800Y-126834000D01*
X187860800Y-126834000D02*
X187860800Y-122594000D01*
X186740800Y-121944000D02*
X186740800Y-122594000D01*
X186740800Y-127484000D02*
X186740800Y-126834000D01*
X187860800Y-123314000D02*
X185620800Y-123314000D01*
X187860800Y-123434000D02*
X185620800Y-123434000D01*
X187860800Y-123194000D02*
X185620800Y-123194000D01*
%TO.C,D27*%
X168709200Y-122594000D02*
X166469200Y-122594000D01*
X166469200Y-122594000D02*
X166469200Y-126834000D01*
X166469200Y-126834000D02*
X168709200Y-126834000D01*
X168709200Y-126834000D02*
X168709200Y-122594000D01*
X167589200Y-121944000D02*
X167589200Y-122594000D01*
X167589200Y-127484000D02*
X167589200Y-126834000D01*
X168709200Y-123314000D02*
X166469200Y-123314000D01*
X168709200Y-123434000D02*
X166469200Y-123434000D01*
X168709200Y-123194000D02*
X166469200Y-123194000D01*
%TO.C,D26*%
X149608400Y-122594000D02*
X147368400Y-122594000D01*
X147368400Y-122594000D02*
X147368400Y-126834000D01*
X147368400Y-126834000D02*
X149608400Y-126834000D01*
X149608400Y-126834000D02*
X149608400Y-122594000D01*
X148488400Y-121944000D02*
X148488400Y-122594000D01*
X148488400Y-127484000D02*
X148488400Y-126834000D01*
X149608400Y-123314000D02*
X147368400Y-123314000D01*
X149608400Y-123434000D02*
X147368400Y-123434000D01*
X149608400Y-123194000D02*
X147368400Y-123194000D01*
%TO.C,D25*%
X130456800Y-122594000D02*
X128216800Y-122594000D01*
X128216800Y-122594000D02*
X128216800Y-126834000D01*
X128216800Y-126834000D02*
X130456800Y-126834000D01*
X130456800Y-126834000D02*
X130456800Y-122594000D01*
X129336800Y-121944000D02*
X129336800Y-122594000D01*
X129336800Y-127484000D02*
X129336800Y-126834000D01*
X130456800Y-123314000D02*
X128216800Y-123314000D01*
X130456800Y-123434000D02*
X128216800Y-123434000D01*
X130456800Y-123194000D02*
X128216800Y-123194000D01*
%TO.C,D24*%
X111305200Y-122594000D02*
X109065200Y-122594000D01*
X109065200Y-122594000D02*
X109065200Y-126834000D01*
X109065200Y-126834000D02*
X111305200Y-126834000D01*
X111305200Y-126834000D02*
X111305200Y-122594000D01*
X110185200Y-121944000D02*
X110185200Y-122594000D01*
X110185200Y-127484000D02*
X110185200Y-126834000D01*
X111305200Y-123314000D02*
X109065200Y-123314000D01*
X111305200Y-123434000D02*
X109065200Y-123434000D01*
X111305200Y-123194000D02*
X109065200Y-123194000D01*
%TO.C,D23*%
X92255200Y-122594000D02*
X90015200Y-122594000D01*
X90015200Y-122594000D02*
X90015200Y-126834000D01*
X90015200Y-126834000D02*
X92255200Y-126834000D01*
X92255200Y-126834000D02*
X92255200Y-122594000D01*
X91135200Y-121944000D02*
X91135200Y-122594000D01*
X91135200Y-127484000D02*
X91135200Y-126834000D01*
X92255200Y-123314000D02*
X90015200Y-123314000D01*
X92255200Y-123434000D02*
X90015200Y-123434000D01*
X92255200Y-123194000D02*
X90015200Y-123194000D01*
%TO.C,D22*%
X73357600Y-123194000D02*
X71117600Y-123194000D01*
X73357600Y-123434000D02*
X71117600Y-123434000D01*
X73357600Y-123314000D02*
X71117600Y-123314000D01*
X72237600Y-127484000D02*
X72237600Y-126834000D01*
X72237600Y-121944000D02*
X72237600Y-122594000D01*
X73357600Y-126834000D02*
X73357600Y-122594000D01*
X71117600Y-126834000D02*
X73357600Y-126834000D01*
X71117600Y-122594000D02*
X71117600Y-126834000D01*
X73357600Y-122594000D02*
X71117600Y-122594000D01*
%TO.C,D21*%
X49634000Y-122594000D02*
X47394000Y-122594000D01*
X47394000Y-122594000D02*
X47394000Y-126834000D01*
X47394000Y-126834000D02*
X49634000Y-126834000D01*
X49634000Y-126834000D02*
X49634000Y-122594000D01*
X48514000Y-121944000D02*
X48514000Y-122594000D01*
X48514000Y-127484000D02*
X48514000Y-126834000D01*
X49634000Y-123314000D02*
X47394000Y-123314000D01*
X49634000Y-123434000D02*
X47394000Y-123434000D01*
X49634000Y-123194000D02*
X47394000Y-123194000D01*
%TO.C,D20*%
X376197000Y-110324000D02*
X378437000Y-110324000D01*
X378437000Y-110324000D02*
X378437000Y-106084000D01*
X378437000Y-106084000D02*
X376197000Y-106084000D01*
X376197000Y-106084000D02*
X376197000Y-110324000D01*
X377317000Y-110974000D02*
X377317000Y-110324000D01*
X377317000Y-105434000D02*
X377317000Y-106084000D01*
X376197000Y-109604000D02*
X378437000Y-109604000D01*
X376197000Y-109484000D02*
X378437000Y-109484000D01*
X376197000Y-109724000D02*
X378437000Y-109724000D01*
%TO.C,D19*%
X357274000Y-110324000D02*
X359514000Y-110324000D01*
X359514000Y-110324000D02*
X359514000Y-106084000D01*
X359514000Y-106084000D02*
X357274000Y-106084000D01*
X357274000Y-106084000D02*
X357274000Y-110324000D01*
X358394000Y-110974000D02*
X358394000Y-110324000D01*
X358394000Y-105434000D02*
X358394000Y-106084000D01*
X357274000Y-109604000D02*
X359514000Y-109604000D01*
X357274000Y-109484000D02*
X359514000Y-109484000D01*
X357274000Y-109724000D02*
X359514000Y-109724000D01*
%TO.C,D17*%
X318920000Y-110324000D02*
X321160000Y-110324000D01*
X321160000Y-110324000D02*
X321160000Y-106084000D01*
X321160000Y-106084000D02*
X318920000Y-106084000D01*
X318920000Y-106084000D02*
X318920000Y-110324000D01*
X320040000Y-110974000D02*
X320040000Y-110324000D01*
X320040000Y-105434000D02*
X320040000Y-106084000D01*
X318920000Y-109604000D02*
X321160000Y-109604000D01*
X318920000Y-109484000D02*
X321160000Y-109484000D01*
X318920000Y-109724000D02*
X321160000Y-109724000D01*
%TO.C,D16*%
X296822000Y-110324000D02*
X299062000Y-110324000D01*
X299062000Y-110324000D02*
X299062000Y-106084000D01*
X299062000Y-106084000D02*
X296822000Y-106084000D01*
X296822000Y-106084000D02*
X296822000Y-110324000D01*
X297942000Y-110974000D02*
X297942000Y-110324000D01*
X297942000Y-105434000D02*
X297942000Y-106084000D01*
X296822000Y-109604000D02*
X299062000Y-109604000D01*
X296822000Y-109484000D02*
X299062000Y-109484000D01*
X296822000Y-109724000D02*
X299062000Y-109724000D01*
%TO.C,D15*%
X272692000Y-110324000D02*
X274932000Y-110324000D01*
X274932000Y-110324000D02*
X274932000Y-106084000D01*
X274932000Y-106084000D02*
X272692000Y-106084000D01*
X272692000Y-106084000D02*
X272692000Y-110324000D01*
X273812000Y-110974000D02*
X273812000Y-110324000D01*
X273812000Y-105434000D02*
X273812000Y-106084000D01*
X272692000Y-109604000D02*
X274932000Y-109604000D01*
X272692000Y-109484000D02*
X274932000Y-109484000D01*
X272692000Y-109724000D02*
X274932000Y-109724000D01*
%TO.C,D14*%
X252626000Y-110324000D02*
X254866000Y-110324000D01*
X254866000Y-110324000D02*
X254866000Y-106084000D01*
X254866000Y-106084000D02*
X252626000Y-106084000D01*
X252626000Y-106084000D02*
X252626000Y-110324000D01*
X253746000Y-110974000D02*
X253746000Y-110324000D01*
X253746000Y-105434000D02*
X253746000Y-106084000D01*
X252626000Y-109604000D02*
X254866000Y-109604000D01*
X252626000Y-109484000D02*
X254866000Y-109484000D01*
X252626000Y-109724000D02*
X254866000Y-109724000D01*
%TO.C,D13*%
X233449000Y-110324000D02*
X235689000Y-110324000D01*
X235689000Y-110324000D02*
X235689000Y-106084000D01*
X235689000Y-106084000D02*
X233449000Y-106084000D01*
X233449000Y-106084000D02*
X233449000Y-110324000D01*
X234569000Y-110974000D02*
X234569000Y-110324000D01*
X234569000Y-105434000D02*
X234569000Y-106084000D01*
X233449000Y-109604000D02*
X235689000Y-109604000D01*
X233449000Y-109484000D02*
X235689000Y-109484000D01*
X233449000Y-109724000D02*
X235689000Y-109724000D01*
%TO.C,D12*%
X214272000Y-110324000D02*
X216512000Y-110324000D01*
X216512000Y-110324000D02*
X216512000Y-106084000D01*
X216512000Y-106084000D02*
X214272000Y-106084000D01*
X214272000Y-106084000D02*
X214272000Y-110324000D01*
X215392000Y-110974000D02*
X215392000Y-110324000D01*
X215392000Y-105434000D02*
X215392000Y-106084000D01*
X214272000Y-109604000D02*
X216512000Y-109604000D01*
X214272000Y-109484000D02*
X216512000Y-109484000D01*
X214272000Y-109724000D02*
X216512000Y-109724000D01*
%TO.C,D11*%
X195222000Y-110324000D02*
X197462000Y-110324000D01*
X197462000Y-110324000D02*
X197462000Y-106084000D01*
X197462000Y-106084000D02*
X195222000Y-106084000D01*
X195222000Y-106084000D02*
X195222000Y-110324000D01*
X196342000Y-110974000D02*
X196342000Y-110324000D01*
X196342000Y-105434000D02*
X196342000Y-106084000D01*
X195222000Y-109604000D02*
X197462000Y-109604000D01*
X195222000Y-109484000D02*
X197462000Y-109484000D01*
X195222000Y-109724000D02*
X197462000Y-109724000D01*
%TO.C,D10*%
X176045000Y-110324000D02*
X178285000Y-110324000D01*
X178285000Y-110324000D02*
X178285000Y-106084000D01*
X178285000Y-106084000D02*
X176045000Y-106084000D01*
X176045000Y-106084000D02*
X176045000Y-110324000D01*
X177165000Y-110974000D02*
X177165000Y-110324000D01*
X177165000Y-105434000D02*
X177165000Y-106084000D01*
X176045000Y-109604000D02*
X178285000Y-109604000D01*
X176045000Y-109484000D02*
X178285000Y-109484000D01*
X176045000Y-109724000D02*
X178285000Y-109724000D01*
%TO.C,D9*%
X156868000Y-110324000D02*
X159108000Y-110324000D01*
X159108000Y-110324000D02*
X159108000Y-106084000D01*
X159108000Y-106084000D02*
X156868000Y-106084000D01*
X156868000Y-106084000D02*
X156868000Y-110324000D01*
X157988000Y-110974000D02*
X157988000Y-110324000D01*
X157988000Y-105434000D02*
X157988000Y-106084000D01*
X156868000Y-109604000D02*
X159108000Y-109604000D01*
X156868000Y-109484000D02*
X159108000Y-109484000D01*
X156868000Y-109724000D02*
X159108000Y-109724000D01*
%TO.C,D8*%
X137691000Y-110324000D02*
X139931000Y-110324000D01*
X139931000Y-110324000D02*
X139931000Y-106084000D01*
X139931000Y-106084000D02*
X137691000Y-106084000D01*
X137691000Y-106084000D02*
X137691000Y-110324000D01*
X138811000Y-110974000D02*
X138811000Y-110324000D01*
X138811000Y-105434000D02*
X138811000Y-106084000D01*
X137691000Y-109604000D02*
X139931000Y-109604000D01*
X137691000Y-109484000D02*
X139931000Y-109484000D01*
X137691000Y-109724000D02*
X139931000Y-109724000D01*
%TO.C,D7*%
X118641000Y-110324000D02*
X120881000Y-110324000D01*
X120881000Y-110324000D02*
X120881000Y-106084000D01*
X120881000Y-106084000D02*
X118641000Y-106084000D01*
X118641000Y-106084000D02*
X118641000Y-110324000D01*
X119761000Y-110974000D02*
X119761000Y-110324000D01*
X119761000Y-105434000D02*
X119761000Y-106084000D01*
X118641000Y-109604000D02*
X120881000Y-109604000D01*
X118641000Y-109484000D02*
X120881000Y-109484000D01*
X118641000Y-109724000D02*
X120881000Y-109724000D01*
%TO.C,D6*%
X99591000Y-110324000D02*
X101831000Y-110324000D01*
X101831000Y-110324000D02*
X101831000Y-106084000D01*
X101831000Y-106084000D02*
X99591000Y-106084000D01*
X99591000Y-106084000D02*
X99591000Y-110324000D01*
X100711000Y-110974000D02*
X100711000Y-110324000D01*
X100711000Y-105434000D02*
X100711000Y-106084000D01*
X99591000Y-109604000D02*
X101831000Y-109604000D01*
X99591000Y-109484000D02*
X101831000Y-109484000D01*
X99591000Y-109724000D02*
X101831000Y-109724000D01*
%TO.C,D5*%
X80541000Y-110324000D02*
X82781000Y-110324000D01*
X82781000Y-110324000D02*
X82781000Y-106084000D01*
X82781000Y-106084000D02*
X80541000Y-106084000D01*
X80541000Y-106084000D02*
X80541000Y-110324000D01*
X81661000Y-110974000D02*
X81661000Y-110324000D01*
X81661000Y-105434000D02*
X81661000Y-106084000D01*
X80541000Y-109604000D02*
X82781000Y-109604000D01*
X80541000Y-109484000D02*
X82781000Y-109484000D01*
X80541000Y-109724000D02*
X82781000Y-109724000D01*
%TO.C,D4*%
X61745000Y-110324000D02*
X63985000Y-110324000D01*
X63985000Y-110324000D02*
X63985000Y-106084000D01*
X63985000Y-106084000D02*
X61745000Y-106084000D01*
X61745000Y-106084000D02*
X61745000Y-110324000D01*
X62865000Y-110974000D02*
X62865000Y-110324000D01*
X62865000Y-105434000D02*
X62865000Y-106084000D01*
X61745000Y-109604000D02*
X63985000Y-109604000D01*
X61745000Y-109484000D02*
X63985000Y-109484000D01*
X61745000Y-109724000D02*
X63985000Y-109724000D01*
%TO.C,C3*%
X272454800Y-74780000D02*
X269214800Y-74780000D01*
X272454800Y-72540000D02*
X269214800Y-72540000D01*
X272454800Y-74780000D02*
X272454800Y-74715000D01*
X272454800Y-72605000D02*
X272454800Y-72540000D01*
X269214800Y-74780000D02*
X269214800Y-74715000D01*
X269214800Y-72605000D02*
X269214800Y-72540000D01*
%TO.C,C2*%
X273073000Y-98120000D02*
X273073000Y-94880000D01*
X275313000Y-98120000D02*
X275313000Y-94880000D01*
X273073000Y-98120000D02*
X273138000Y-98120000D01*
X275248000Y-98120000D02*
X275313000Y-98120000D01*
X273073000Y-94880000D02*
X273138000Y-94880000D01*
X275248000Y-94880000D02*
X275313000Y-94880000D01*
%TO.C,Boot1*%
X170037000Y-89066000D02*
X174537000Y-89066000D01*
X168787000Y-85066000D02*
X168787000Y-86566000D01*
X174537000Y-82566000D02*
X170037000Y-82566000D01*
X175787000Y-86566000D02*
X175787000Y-85066000D01*
%TO.C,J3*%
D12*
X71725380Y-84486333D02*
X72439666Y-84486333D01*
X72582523Y-84533952D01*
X72677761Y-84629190D01*
X72725380Y-84772047D01*
X72725380Y-84867285D01*
X71725380Y-84105380D02*
X71725380Y-83486333D01*
X72106333Y-83819666D01*
X72106333Y-83676809D01*
X72153952Y-83581571D01*
X72201571Y-83533952D01*
X72296809Y-83486333D01*
X72534904Y-83486333D01*
X72630142Y-83533952D01*
X72677761Y-83581571D01*
X72725380Y-83676809D01*
X72725380Y-83962523D01*
X72677761Y-84057761D01*
X72630142Y-84105380D01*
%TO.C,U1*%
X296727180Y-84886704D02*
X297536704Y-84886704D01*
X297631942Y-84839085D01*
X297679561Y-84791466D01*
X297727180Y-84696228D01*
X297727180Y-84505752D01*
X297679561Y-84410514D01*
X297631942Y-84362895D01*
X297536704Y-84315276D01*
X296727180Y-84315276D01*
X297727180Y-83315276D02*
X297727180Y-83886704D01*
X297727180Y-83600990D02*
X296727180Y-83600990D01*
X296870038Y-83696228D01*
X296965276Y-83791466D01*
X297012895Y-83886704D01*
%TO.C,XTAL1*%
X241991380Y-85616809D02*
X242991380Y-84950142D01*
X241991380Y-84950142D02*
X242991380Y-85616809D01*
X241991380Y-84712047D02*
X241991380Y-84140619D01*
X242991380Y-84426333D02*
X241991380Y-84426333D01*
X242705666Y-83854904D02*
X242705666Y-83378714D01*
X242991380Y-83950142D02*
X241991380Y-83616809D01*
X242991380Y-83283476D01*
X242991380Y-82473952D02*
X242991380Y-82950142D01*
X241991380Y-82950142D01*
X242991380Y-81616809D02*
X242991380Y-82188238D01*
X242991380Y-81902523D02*
X241991380Y-81902523D01*
X242134238Y-81997761D01*
X242229476Y-82093000D01*
X242277095Y-82188238D01*
%TO.C,C5*%
X238379333Y-94170142D02*
X238331714Y-94217761D01*
X238188857Y-94265380D01*
X238093619Y-94265380D01*
X237950761Y-94217761D01*
X237855523Y-94122523D01*
X237807904Y-94027285D01*
X237760285Y-93836809D01*
X237760285Y-93693952D01*
X237807904Y-93503476D01*
X237855523Y-93408238D01*
X237950761Y-93313000D01*
X238093619Y-93265380D01*
X238188857Y-93265380D01*
X238331714Y-93313000D01*
X238379333Y-93360619D01*
X239284095Y-93265380D02*
X238807904Y-93265380D01*
X238760285Y-93741571D01*
X238807904Y-93693952D01*
X238903142Y-93646333D01*
X239141238Y-93646333D01*
X239236476Y-93693952D01*
X239284095Y-93741571D01*
X239331714Y-93836809D01*
X239331714Y-94074904D01*
X239284095Y-94170142D01*
X239236476Y-94217761D01*
X239141238Y-94265380D01*
X238903142Y-94265380D01*
X238807904Y-94217761D01*
X238760285Y-94170142D01*
%TO.C,C4*%
X238379333Y-78803142D02*
X238331714Y-78850761D01*
X238188857Y-78898380D01*
X238093619Y-78898380D01*
X237950761Y-78850761D01*
X237855523Y-78755523D01*
X237807904Y-78660285D01*
X237760285Y-78469809D01*
X237760285Y-78326952D01*
X237807904Y-78136476D01*
X237855523Y-78041238D01*
X237950761Y-77946000D01*
X238093619Y-77898380D01*
X238188857Y-77898380D01*
X238331714Y-77946000D01*
X238379333Y-77993619D01*
X239236476Y-78231714D02*
X239236476Y-78898380D01*
X238998380Y-77850761D02*
X238760285Y-78565047D01*
X239379333Y-78565047D01*
%TO.C,C1*%
X89451142Y-80918666D02*
X89498761Y-80966285D01*
X89546380Y-81109142D01*
X89546380Y-81204380D01*
X89498761Y-81347238D01*
X89403523Y-81442476D01*
X89308285Y-81490095D01*
X89117809Y-81537714D01*
X88974952Y-81537714D01*
X88784476Y-81490095D01*
X88689238Y-81442476D01*
X88594000Y-81347238D01*
X88546380Y-81204380D01*
X88546380Y-81109142D01*
X88594000Y-80966285D01*
X88641619Y-80918666D01*
X89546380Y-79966285D02*
X89546380Y-80537714D01*
X89546380Y-80252000D02*
X88546380Y-80252000D01*
X88689238Y-80347238D01*
X88784476Y-80442476D01*
X88832095Y-80537714D01*
%TO.C,J2*%
X34972666Y-74608380D02*
X34972666Y-75322666D01*
X34925047Y-75465523D01*
X34829809Y-75560761D01*
X34686952Y-75608380D01*
X34591714Y-75608380D01*
X35401238Y-74703619D02*
X35448857Y-74656000D01*
X35544095Y-74608380D01*
X35782190Y-74608380D01*
X35877428Y-74656000D01*
X35925047Y-74703619D01*
X35972666Y-74798857D01*
X35972666Y-74894095D01*
X35925047Y-75036952D01*
X35353619Y-75608380D01*
X35972666Y-75608380D01*
%TO.C,USB1*%
X26540380Y-82002095D02*
X27349904Y-82002095D01*
X27445142Y-81954476D01*
X27492761Y-81906857D01*
X27540380Y-81811619D01*
X27540380Y-81621142D01*
X27492761Y-81525904D01*
X27445142Y-81478285D01*
X27349904Y-81430666D01*
X26540380Y-81430666D01*
X27492761Y-81002095D02*
X27540380Y-80859238D01*
X27540380Y-80621142D01*
X27492761Y-80525904D01*
X27445142Y-80478285D01*
X27349904Y-80430666D01*
X27254666Y-80430666D01*
X27159428Y-80478285D01*
X27111809Y-80525904D01*
X27064190Y-80621142D01*
X27016571Y-80811619D01*
X26968952Y-80906857D01*
X26921333Y-80954476D01*
X26826095Y-81002095D01*
X26730857Y-81002095D01*
X26635619Y-80954476D01*
X26588000Y-80906857D01*
X26540380Y-80811619D01*
X26540380Y-80573523D01*
X26588000Y-80430666D01*
X27016571Y-79668761D02*
X27064190Y-79525904D01*
X27111809Y-79478285D01*
X27207047Y-79430666D01*
X27349904Y-79430666D01*
X27445142Y-79478285D01*
X27492761Y-79525904D01*
X27540380Y-79621142D01*
X27540380Y-80002095D01*
X26540380Y-80002095D01*
X26540380Y-79668761D01*
X26588000Y-79573523D01*
X26635619Y-79525904D01*
X26730857Y-79478285D01*
X26826095Y-79478285D01*
X26921333Y-79525904D01*
X26968952Y-79573523D01*
X27016571Y-79668761D01*
X27016571Y-80002095D01*
X27540380Y-78478285D02*
X27540380Y-79049714D01*
X27540380Y-78764000D02*
X26540380Y-78764000D01*
X26683238Y-78859238D01*
X26778476Y-78954476D01*
X26826095Y-79049714D01*
%TO.C,J1*%
X339066380Y-83578333D02*
X339780666Y-83578333D01*
X339923523Y-83625952D01*
X340018761Y-83721190D01*
X340066380Y-83864047D01*
X340066380Y-83959285D01*
X340066380Y-82578333D02*
X340066380Y-83149761D01*
X340066380Y-82864047D02*
X339066380Y-82864047D01*
X339209238Y-82959285D01*
X339304476Y-83054523D01*
X339352095Y-83149761D01*
%TO.C,D3*%
X42274380Y-108942095D02*
X41274380Y-108942095D01*
X41274380Y-108704000D01*
X41322000Y-108561142D01*
X41417238Y-108465904D01*
X41512476Y-108418285D01*
X41702952Y-108370666D01*
X41845809Y-108370666D01*
X42036285Y-108418285D01*
X42131523Y-108465904D01*
X42226761Y-108561142D01*
X42274380Y-108704000D01*
X42274380Y-108942095D01*
X41274380Y-108037333D02*
X41274380Y-107418285D01*
X41655333Y-107751619D01*
X41655333Y-107608761D01*
X41702952Y-107513523D01*
X41750571Y-107465904D01*
X41845809Y-107418285D01*
X42083904Y-107418285D01*
X42179142Y-107465904D01*
X42226761Y-107513523D01*
X42274380Y-107608761D01*
X42274380Y-107894476D01*
X42226761Y-107989714D01*
X42179142Y-108037333D01*
X42594380Y-112275904D02*
X41594380Y-112275904D01*
X42594380Y-111704476D02*
X42022952Y-112133047D01*
X41594380Y-111704476D02*
X42165809Y-112275904D01*
%TO.C,R3*%
X183629380Y-83478666D02*
X183153190Y-83812000D01*
X183629380Y-84050095D02*
X182629380Y-84050095D01*
X182629380Y-83669142D01*
X182677000Y-83573904D01*
X182724619Y-83526285D01*
X182819857Y-83478666D01*
X182962714Y-83478666D01*
X183057952Y-83526285D01*
X183105571Y-83573904D01*
X183153190Y-83669142D01*
X183153190Y-84050095D01*
X182629380Y-83145333D02*
X182629380Y-82526285D01*
X183010333Y-82859619D01*
X183010333Y-82716761D01*
X183057952Y-82621523D01*
X183105571Y-82573904D01*
X183200809Y-82526285D01*
X183438904Y-82526285D01*
X183534142Y-82573904D01*
X183581761Y-82621523D01*
X183629380Y-82716761D01*
X183629380Y-83002476D01*
X183581761Y-83097714D01*
X183534142Y-83145333D01*
%TO.C,D1*%
X78509904Y-84184380D02*
X78509904Y-83184380D01*
X78748000Y-83184380D01*
X78890857Y-83232000D01*
X78986095Y-83327238D01*
X79033714Y-83422476D01*
X79081333Y-83612952D01*
X79081333Y-83755809D01*
X79033714Y-83946285D01*
X78986095Y-84041523D01*
X78890857Y-84136761D01*
X78748000Y-84184380D01*
X78509904Y-84184380D01*
X80033714Y-84184380D02*
X79462285Y-84184380D01*
X79748000Y-84184380D02*
X79748000Y-83184380D01*
X79652761Y-83327238D01*
X79557523Y-83422476D01*
X79462285Y-83470095D01*
X75176095Y-84504380D02*
X75176095Y-83504380D01*
X75747523Y-84504380D02*
X75318952Y-83932952D01*
X75747523Y-83504380D02*
X75176095Y-84075809D01*
%TO.C,D2*%
X78509904Y-87740380D02*
X78509904Y-86740380D01*
X78748000Y-86740380D01*
X78890857Y-86788000D01*
X78986095Y-86883238D01*
X79033714Y-86978476D01*
X79081333Y-87168952D01*
X79081333Y-87311809D01*
X79033714Y-87502285D01*
X78986095Y-87597523D01*
X78890857Y-87692761D01*
X78748000Y-87740380D01*
X78509904Y-87740380D01*
X79462285Y-86835619D02*
X79509904Y-86788000D01*
X79605142Y-86740380D01*
X79843238Y-86740380D01*
X79938476Y-86788000D01*
X79986095Y-86835619D01*
X80033714Y-86930857D01*
X80033714Y-87026095D01*
X79986095Y-87168952D01*
X79414666Y-87740380D01*
X80033714Y-87740380D01*
X75176095Y-88060380D02*
X75176095Y-87060380D01*
X75747523Y-88060380D02*
X75318952Y-87488952D01*
X75747523Y-87060380D02*
X75176095Y-87631809D01*
%TO.C,D18*%
X337803380Y-109418285D02*
X336803380Y-109418285D01*
X336803380Y-109180190D01*
X336851000Y-109037333D01*
X336946238Y-108942095D01*
X337041476Y-108894476D01*
X337231952Y-108846857D01*
X337374809Y-108846857D01*
X337565285Y-108894476D01*
X337660523Y-108942095D01*
X337755761Y-109037333D01*
X337803380Y-109180190D01*
X337803380Y-109418285D01*
X337803380Y-107894476D02*
X337803380Y-108465904D01*
X337803380Y-108180190D02*
X336803380Y-108180190D01*
X336946238Y-108275428D01*
X337041476Y-108370666D01*
X337089095Y-108465904D01*
X337231952Y-107323047D02*
X337184333Y-107418285D01*
X337136714Y-107465904D01*
X337041476Y-107513523D01*
X336993857Y-107513523D01*
X336898619Y-107465904D01*
X336851000Y-107418285D01*
X336803380Y-107323047D01*
X336803380Y-107132571D01*
X336851000Y-107037333D01*
X336898619Y-106989714D01*
X336993857Y-106942095D01*
X337041476Y-106942095D01*
X337136714Y-106989714D01*
X337184333Y-107037333D01*
X337231952Y-107132571D01*
X337231952Y-107323047D01*
X337279571Y-107418285D01*
X337327190Y-107465904D01*
X337422428Y-107513523D01*
X337612904Y-107513523D01*
X337708142Y-107465904D01*
X337755761Y-107418285D01*
X337803380Y-107323047D01*
X337803380Y-107132571D01*
X337755761Y-107037333D01*
X337708142Y-106989714D01*
X337612904Y-106942095D01*
X337422428Y-106942095D01*
X337327190Y-106989714D01*
X337279571Y-107037333D01*
X337231952Y-107132571D01*
X338123380Y-112275904D02*
X337123380Y-112275904D01*
X338123380Y-111704476D02*
X337551952Y-112133047D01*
X337123380Y-111704476D02*
X337694809Y-112275904D01*
%TO.C,Reset1*%
X170572714Y-74017380D02*
X170239380Y-73541190D01*
X170001285Y-74017380D02*
X170001285Y-73017380D01*
X170382238Y-73017380D01*
X170477476Y-73065000D01*
X170525095Y-73112619D01*
X170572714Y-73207857D01*
X170572714Y-73350714D01*
X170525095Y-73445952D01*
X170477476Y-73493571D01*
X170382238Y-73541190D01*
X170001285Y-73541190D01*
X171382238Y-73969761D02*
X171287000Y-74017380D01*
X171096523Y-74017380D01*
X171001285Y-73969761D01*
X170953666Y-73874523D01*
X170953666Y-73493571D01*
X171001285Y-73398333D01*
X171096523Y-73350714D01*
X171287000Y-73350714D01*
X171382238Y-73398333D01*
X171429857Y-73493571D01*
X171429857Y-73588809D01*
X170953666Y-73684047D01*
X171810809Y-73969761D02*
X171906047Y-74017380D01*
X172096523Y-74017380D01*
X172191761Y-73969761D01*
X172239380Y-73874523D01*
X172239380Y-73826904D01*
X172191761Y-73731666D01*
X172096523Y-73684047D01*
X171953666Y-73684047D01*
X171858428Y-73636428D01*
X171810809Y-73541190D01*
X171810809Y-73493571D01*
X171858428Y-73398333D01*
X171953666Y-73350714D01*
X172096523Y-73350714D01*
X172191761Y-73398333D01*
X173048904Y-73969761D02*
X172953666Y-74017380D01*
X172763190Y-74017380D01*
X172667952Y-73969761D01*
X172620333Y-73874523D01*
X172620333Y-73493571D01*
X172667952Y-73398333D01*
X172763190Y-73350714D01*
X172953666Y-73350714D01*
X173048904Y-73398333D01*
X173096523Y-73493571D01*
X173096523Y-73588809D01*
X172620333Y-73684047D01*
X173382238Y-73350714D02*
X173763190Y-73350714D01*
X173525095Y-73017380D02*
X173525095Y-73874523D01*
X173572714Y-73969761D01*
X173667952Y-74017380D01*
X173763190Y-74017380D01*
X174620333Y-74017380D02*
X174048904Y-74017380D01*
X174334619Y-74017380D02*
X174334619Y-73017380D01*
X174239380Y-73160238D01*
X174144142Y-73255476D01*
X174048904Y-73303095D01*
%TO.C,R2*%
X198148380Y-83478666D02*
X197672190Y-83812000D01*
X198148380Y-84050095D02*
X197148380Y-84050095D01*
X197148380Y-83669142D01*
X197196000Y-83573904D01*
X197243619Y-83526285D01*
X197338857Y-83478666D01*
X197481714Y-83478666D01*
X197576952Y-83526285D01*
X197624571Y-83573904D01*
X197672190Y-83669142D01*
X197672190Y-84050095D01*
X197243619Y-83097714D02*
X197196000Y-83050095D01*
X197148380Y-82954857D01*
X197148380Y-82716761D01*
X197196000Y-82621523D01*
X197243619Y-82573904D01*
X197338857Y-82526285D01*
X197434095Y-82526285D01*
X197576952Y-82573904D01*
X198148380Y-83145333D01*
X198148380Y-82526285D01*
%TO.C,R4*%
X188582380Y-83478666D02*
X188106190Y-83812000D01*
X188582380Y-84050095D02*
X187582380Y-84050095D01*
X187582380Y-83669142D01*
X187630000Y-83573904D01*
X187677619Y-83526285D01*
X187772857Y-83478666D01*
X187915714Y-83478666D01*
X188010952Y-83526285D01*
X188058571Y-83573904D01*
X188106190Y-83669142D01*
X188106190Y-84050095D01*
X187915714Y-82621523D02*
X188582380Y-82621523D01*
X187534761Y-82859619D02*
X188249047Y-83097714D01*
X188249047Y-82478666D01*
%TO.C,R1*%
X161404380Y-82208666D02*
X160928190Y-82542000D01*
X161404380Y-82780095D02*
X160404380Y-82780095D01*
X160404380Y-82399142D01*
X160452000Y-82303904D01*
X160499619Y-82256285D01*
X160594857Y-82208666D01*
X160737714Y-82208666D01*
X160832952Y-82256285D01*
X160880571Y-82303904D01*
X160928190Y-82399142D01*
X160928190Y-82780095D01*
X161404380Y-81256285D02*
X161404380Y-81827714D01*
X161404380Y-81542000D02*
X160404380Y-81542000D01*
X160547238Y-81637238D01*
X160642476Y-81732476D01*
X160690095Y-81827714D01*
%TO.C,F1*%
X76772666Y-83650571D02*
X76439333Y-83650571D01*
X76439333Y-84174380D02*
X76439333Y-83174380D01*
X76915523Y-83174380D01*
X77820285Y-84174380D02*
X77248857Y-84174380D01*
X77534571Y-84174380D02*
X77534571Y-83174380D01*
X77439333Y-83317238D01*
X77344095Y-83412476D01*
X77248857Y-83460095D01*
%TO.C,D74*%
X126094380Y-82367285D02*
X125094380Y-82367285D01*
X125094380Y-82129190D01*
X125142000Y-81986333D01*
X125237238Y-81891095D01*
X125332476Y-81843476D01*
X125522952Y-81795857D01*
X125665809Y-81795857D01*
X125856285Y-81843476D01*
X125951523Y-81891095D01*
X126046761Y-81986333D01*
X126094380Y-82129190D01*
X126094380Y-82367285D01*
X125094380Y-81462523D02*
X125094380Y-80795857D01*
X126094380Y-81224428D01*
X125427714Y-79986333D02*
X126094380Y-79986333D01*
X125046761Y-80224428D02*
X125761047Y-80462523D01*
X125761047Y-79843476D01*
X126414380Y-85224904D02*
X125414380Y-85224904D01*
X126414380Y-84653476D02*
X125842952Y-85082047D01*
X125414380Y-84653476D02*
X125985809Y-85224904D01*
%TO.C,D83*%
X383849714Y-178545380D02*
X383849714Y-177545380D01*
X384087809Y-177545380D01*
X384230666Y-177593000D01*
X384325904Y-177688238D01*
X384373523Y-177783476D01*
X384421142Y-177973952D01*
X384421142Y-178116809D01*
X384373523Y-178307285D01*
X384325904Y-178402523D01*
X384230666Y-178497761D01*
X384087809Y-178545380D01*
X383849714Y-178545380D01*
X384992571Y-177973952D02*
X384897333Y-177926333D01*
X384849714Y-177878714D01*
X384802095Y-177783476D01*
X384802095Y-177735857D01*
X384849714Y-177640619D01*
X384897333Y-177593000D01*
X384992571Y-177545380D01*
X385183047Y-177545380D01*
X385278285Y-177593000D01*
X385325904Y-177640619D01*
X385373523Y-177735857D01*
X385373523Y-177783476D01*
X385325904Y-177878714D01*
X385278285Y-177926333D01*
X385183047Y-177973952D01*
X384992571Y-177973952D01*
X384897333Y-178021571D01*
X384849714Y-178069190D01*
X384802095Y-178164428D01*
X384802095Y-178354904D01*
X384849714Y-178450142D01*
X384897333Y-178497761D01*
X384992571Y-178545380D01*
X385183047Y-178545380D01*
X385278285Y-178497761D01*
X385325904Y-178450142D01*
X385373523Y-178354904D01*
X385373523Y-178164428D01*
X385325904Y-178069190D01*
X385278285Y-178021571D01*
X385183047Y-177973952D01*
X385706857Y-177545380D02*
X386325904Y-177545380D01*
X385992571Y-177926333D01*
X386135428Y-177926333D01*
X386230666Y-177973952D01*
X386278285Y-178021571D01*
X386325904Y-178116809D01*
X386325904Y-178354904D01*
X386278285Y-178450142D01*
X386230666Y-178497761D01*
X386135428Y-178545380D01*
X385849714Y-178545380D01*
X385754476Y-178497761D01*
X385706857Y-178450142D01*
X380992095Y-178865380D02*
X380992095Y-177865380D01*
X381563523Y-178865380D02*
X381134952Y-178293952D01*
X381563523Y-177865380D02*
X380992095Y-178436809D01*
%TO.C,D82*%
X379889380Y-173934285D02*
X378889380Y-173934285D01*
X378889380Y-173696190D01*
X378937000Y-173553333D01*
X379032238Y-173458095D01*
X379127476Y-173410476D01*
X379317952Y-173362857D01*
X379460809Y-173362857D01*
X379651285Y-173410476D01*
X379746523Y-173458095D01*
X379841761Y-173553333D01*
X379889380Y-173696190D01*
X379889380Y-173934285D01*
X379317952Y-172791428D02*
X379270333Y-172886666D01*
X379222714Y-172934285D01*
X379127476Y-172981904D01*
X379079857Y-172981904D01*
X378984619Y-172934285D01*
X378937000Y-172886666D01*
X378889380Y-172791428D01*
X378889380Y-172600952D01*
X378937000Y-172505714D01*
X378984619Y-172458095D01*
X379079857Y-172410476D01*
X379127476Y-172410476D01*
X379222714Y-172458095D01*
X379270333Y-172505714D01*
X379317952Y-172600952D01*
X379317952Y-172791428D01*
X379365571Y-172886666D01*
X379413190Y-172934285D01*
X379508428Y-172981904D01*
X379698904Y-172981904D01*
X379794142Y-172934285D01*
X379841761Y-172886666D01*
X379889380Y-172791428D01*
X379889380Y-172600952D01*
X379841761Y-172505714D01*
X379794142Y-172458095D01*
X379698904Y-172410476D01*
X379508428Y-172410476D01*
X379413190Y-172458095D01*
X379365571Y-172505714D01*
X379317952Y-172600952D01*
X378984619Y-172029523D02*
X378937000Y-171981904D01*
X378889380Y-171886666D01*
X378889380Y-171648571D01*
X378937000Y-171553333D01*
X378984619Y-171505714D01*
X379079857Y-171458095D01*
X379175095Y-171458095D01*
X379317952Y-171505714D01*
X379889380Y-172077142D01*
X379889380Y-171458095D01*
X379569380Y-169171904D02*
X378569380Y-169171904D01*
X379569380Y-168600476D02*
X378997952Y-169029047D01*
X378569380Y-168600476D02*
X379140809Y-169171904D01*
%TO.C,D81*%
X352076380Y-173934285D02*
X351076380Y-173934285D01*
X351076380Y-173696190D01*
X351124000Y-173553333D01*
X351219238Y-173458095D01*
X351314476Y-173410476D01*
X351504952Y-173362857D01*
X351647809Y-173362857D01*
X351838285Y-173410476D01*
X351933523Y-173458095D01*
X352028761Y-173553333D01*
X352076380Y-173696190D01*
X352076380Y-173934285D01*
X351504952Y-172791428D02*
X351457333Y-172886666D01*
X351409714Y-172934285D01*
X351314476Y-172981904D01*
X351266857Y-172981904D01*
X351171619Y-172934285D01*
X351124000Y-172886666D01*
X351076380Y-172791428D01*
X351076380Y-172600952D01*
X351124000Y-172505714D01*
X351171619Y-172458095D01*
X351266857Y-172410476D01*
X351314476Y-172410476D01*
X351409714Y-172458095D01*
X351457333Y-172505714D01*
X351504952Y-172600952D01*
X351504952Y-172791428D01*
X351552571Y-172886666D01*
X351600190Y-172934285D01*
X351695428Y-172981904D01*
X351885904Y-172981904D01*
X351981142Y-172934285D01*
X352028761Y-172886666D01*
X352076380Y-172791428D01*
X352076380Y-172600952D01*
X352028761Y-172505714D01*
X351981142Y-172458095D01*
X351885904Y-172410476D01*
X351695428Y-172410476D01*
X351600190Y-172458095D01*
X351552571Y-172505714D01*
X351504952Y-172600952D01*
X352076380Y-171458095D02*
X352076380Y-172029523D01*
X352076380Y-171743809D02*
X351076380Y-171743809D01*
X351219238Y-171839047D01*
X351314476Y-171934285D01*
X351362095Y-172029523D01*
X351756380Y-169171904D02*
X350756380Y-169171904D01*
X351756380Y-168600476D02*
X351184952Y-169029047D01*
X350756380Y-168600476D02*
X351327809Y-169171904D01*
%TO.C,D80*%
X304070380Y-173934285D02*
X303070380Y-173934285D01*
X303070380Y-173696190D01*
X303118000Y-173553333D01*
X303213238Y-173458095D01*
X303308476Y-173410476D01*
X303498952Y-173362857D01*
X303641809Y-173362857D01*
X303832285Y-173410476D01*
X303927523Y-173458095D01*
X304022761Y-173553333D01*
X304070380Y-173696190D01*
X304070380Y-173934285D01*
X303498952Y-172791428D02*
X303451333Y-172886666D01*
X303403714Y-172934285D01*
X303308476Y-172981904D01*
X303260857Y-172981904D01*
X303165619Y-172934285D01*
X303118000Y-172886666D01*
X303070380Y-172791428D01*
X303070380Y-172600952D01*
X303118000Y-172505714D01*
X303165619Y-172458095D01*
X303260857Y-172410476D01*
X303308476Y-172410476D01*
X303403714Y-172458095D01*
X303451333Y-172505714D01*
X303498952Y-172600952D01*
X303498952Y-172791428D01*
X303546571Y-172886666D01*
X303594190Y-172934285D01*
X303689428Y-172981904D01*
X303879904Y-172981904D01*
X303975142Y-172934285D01*
X304022761Y-172886666D01*
X304070380Y-172791428D01*
X304070380Y-172600952D01*
X304022761Y-172505714D01*
X303975142Y-172458095D01*
X303879904Y-172410476D01*
X303689428Y-172410476D01*
X303594190Y-172458095D01*
X303546571Y-172505714D01*
X303498952Y-172600952D01*
X303070380Y-171791428D02*
X303070380Y-171696190D01*
X303118000Y-171600952D01*
X303165619Y-171553333D01*
X303260857Y-171505714D01*
X303451333Y-171458095D01*
X303689428Y-171458095D01*
X303879904Y-171505714D01*
X303975142Y-171553333D01*
X304022761Y-171600952D01*
X304070380Y-171696190D01*
X304070380Y-171791428D01*
X304022761Y-171886666D01*
X303975142Y-171934285D01*
X303879904Y-171981904D01*
X303689428Y-172029523D01*
X303451333Y-172029523D01*
X303260857Y-171981904D01*
X303165619Y-171934285D01*
X303118000Y-171886666D01*
X303070380Y-171791428D01*
X303750380Y-169171904D02*
X302750380Y-169171904D01*
X303750380Y-168600476D02*
X303178952Y-169029047D01*
X302750380Y-168600476D02*
X303321809Y-169171904D01*
%TO.C,D79*%
X284893380Y-173934285D02*
X283893380Y-173934285D01*
X283893380Y-173696190D01*
X283941000Y-173553333D01*
X284036238Y-173458095D01*
X284131476Y-173410476D01*
X284321952Y-173362857D01*
X284464809Y-173362857D01*
X284655285Y-173410476D01*
X284750523Y-173458095D01*
X284845761Y-173553333D01*
X284893380Y-173696190D01*
X284893380Y-173934285D01*
X283893380Y-173029523D02*
X283893380Y-172362857D01*
X284893380Y-172791428D01*
X284893380Y-171934285D02*
X284893380Y-171743809D01*
X284845761Y-171648571D01*
X284798142Y-171600952D01*
X284655285Y-171505714D01*
X284464809Y-171458095D01*
X284083857Y-171458095D01*
X283988619Y-171505714D01*
X283941000Y-171553333D01*
X283893380Y-171648571D01*
X283893380Y-171839047D01*
X283941000Y-171934285D01*
X283988619Y-171981904D01*
X284083857Y-172029523D01*
X284321952Y-172029523D01*
X284417190Y-171981904D01*
X284464809Y-171934285D01*
X284512428Y-171839047D01*
X284512428Y-171648571D01*
X284464809Y-171553333D01*
X284417190Y-171505714D01*
X284321952Y-171458095D01*
X284573380Y-169171904D02*
X283573380Y-169171904D01*
X284573380Y-168600476D02*
X284001952Y-169029047D01*
X283573380Y-168600476D02*
X284144809Y-169171904D01*
%TO.C,D78*%
X265843380Y-173934285D02*
X264843380Y-173934285D01*
X264843380Y-173696190D01*
X264891000Y-173553333D01*
X264986238Y-173458095D01*
X265081476Y-173410476D01*
X265271952Y-173362857D01*
X265414809Y-173362857D01*
X265605285Y-173410476D01*
X265700523Y-173458095D01*
X265795761Y-173553333D01*
X265843380Y-173696190D01*
X265843380Y-173934285D01*
X264843380Y-173029523D02*
X264843380Y-172362857D01*
X265843380Y-172791428D01*
X265271952Y-171839047D02*
X265224333Y-171934285D01*
X265176714Y-171981904D01*
X265081476Y-172029523D01*
X265033857Y-172029523D01*
X264938619Y-171981904D01*
X264891000Y-171934285D01*
X264843380Y-171839047D01*
X264843380Y-171648571D01*
X264891000Y-171553333D01*
X264938619Y-171505714D01*
X265033857Y-171458095D01*
X265081476Y-171458095D01*
X265176714Y-171505714D01*
X265224333Y-171553333D01*
X265271952Y-171648571D01*
X265271952Y-171839047D01*
X265319571Y-171934285D01*
X265367190Y-171981904D01*
X265462428Y-172029523D01*
X265652904Y-172029523D01*
X265748142Y-171981904D01*
X265795761Y-171934285D01*
X265843380Y-171839047D01*
X265843380Y-171648571D01*
X265795761Y-171553333D01*
X265748142Y-171505714D01*
X265652904Y-171458095D01*
X265462428Y-171458095D01*
X265367190Y-171505714D01*
X265319571Y-171553333D01*
X265271952Y-171648571D01*
X265523380Y-169171904D02*
X264523380Y-169171904D01*
X265523380Y-168600476D02*
X264951952Y-169029047D01*
X264523380Y-168600476D02*
X265094809Y-169171904D01*
%TO.C,D77*%
X246666380Y-173934285D02*
X245666380Y-173934285D01*
X245666380Y-173696190D01*
X245714000Y-173553333D01*
X245809238Y-173458095D01*
X245904476Y-173410476D01*
X246094952Y-173362857D01*
X246237809Y-173362857D01*
X246428285Y-173410476D01*
X246523523Y-173458095D01*
X246618761Y-173553333D01*
X246666380Y-173696190D01*
X246666380Y-173934285D01*
X245666380Y-173029523D02*
X245666380Y-172362857D01*
X246666380Y-172791428D01*
X245666380Y-172077142D02*
X245666380Y-171410476D01*
X246666380Y-171839047D01*
X246346380Y-169171904D02*
X245346380Y-169171904D01*
X246346380Y-168600476D02*
X245774952Y-169029047D01*
X245346380Y-168600476D02*
X245917809Y-169171904D01*
%TO.C,D76*%
X227489380Y-173934285D02*
X226489380Y-173934285D01*
X226489380Y-173696190D01*
X226537000Y-173553333D01*
X226632238Y-173458095D01*
X226727476Y-173410476D01*
X226917952Y-173362857D01*
X227060809Y-173362857D01*
X227251285Y-173410476D01*
X227346523Y-173458095D01*
X227441761Y-173553333D01*
X227489380Y-173696190D01*
X227489380Y-173934285D01*
X226489380Y-173029523D02*
X226489380Y-172362857D01*
X227489380Y-172791428D01*
X226489380Y-171553333D02*
X226489380Y-171743809D01*
X226537000Y-171839047D01*
X226584619Y-171886666D01*
X226727476Y-171981904D01*
X226917952Y-172029523D01*
X227298904Y-172029523D01*
X227394142Y-171981904D01*
X227441761Y-171934285D01*
X227489380Y-171839047D01*
X227489380Y-171648571D01*
X227441761Y-171553333D01*
X227394142Y-171505714D01*
X227298904Y-171458095D01*
X227060809Y-171458095D01*
X226965571Y-171505714D01*
X226917952Y-171553333D01*
X226870333Y-171648571D01*
X226870333Y-171839047D01*
X226917952Y-171934285D01*
X226965571Y-171981904D01*
X227060809Y-172029523D01*
X227169380Y-169171904D02*
X226169380Y-169171904D01*
X227169380Y-168600476D02*
X226597952Y-169029047D01*
X226169380Y-168600476D02*
X226740809Y-169171904D01*
%TO.C,D75*%
X198787380Y-173934285D02*
X197787380Y-173934285D01*
X197787380Y-173696190D01*
X197835000Y-173553333D01*
X197930238Y-173458095D01*
X198025476Y-173410476D01*
X198215952Y-173362857D01*
X198358809Y-173362857D01*
X198549285Y-173410476D01*
X198644523Y-173458095D01*
X198739761Y-173553333D01*
X198787380Y-173696190D01*
X198787380Y-173934285D01*
X197787380Y-173029523D02*
X197787380Y-172362857D01*
X198787380Y-172791428D01*
X197787380Y-171505714D02*
X197787380Y-171981904D01*
X198263571Y-172029523D01*
X198215952Y-171981904D01*
X198168333Y-171886666D01*
X198168333Y-171648571D01*
X198215952Y-171553333D01*
X198263571Y-171505714D01*
X198358809Y-171458095D01*
X198596904Y-171458095D01*
X198692142Y-171505714D01*
X198739761Y-171553333D01*
X198787380Y-171648571D01*
X198787380Y-171886666D01*
X198739761Y-171981904D01*
X198692142Y-172029523D01*
X198467380Y-169171904D02*
X197467380Y-169171904D01*
X198467380Y-168600476D02*
X197895952Y-169029047D01*
X197467380Y-168600476D02*
X198038809Y-169171904D01*
%TO.C,D73*%
X117507380Y-173807285D02*
X116507380Y-173807285D01*
X116507380Y-173569190D01*
X116555000Y-173426333D01*
X116650238Y-173331095D01*
X116745476Y-173283476D01*
X116935952Y-173235857D01*
X117078809Y-173235857D01*
X117269285Y-173283476D01*
X117364523Y-173331095D01*
X117459761Y-173426333D01*
X117507380Y-173569190D01*
X117507380Y-173807285D01*
X116507380Y-172902523D02*
X116507380Y-172235857D01*
X117507380Y-172664428D01*
X116507380Y-171950142D02*
X116507380Y-171331095D01*
X116888333Y-171664428D01*
X116888333Y-171521571D01*
X116935952Y-171426333D01*
X116983571Y-171378714D01*
X117078809Y-171331095D01*
X117316904Y-171331095D01*
X117412142Y-171378714D01*
X117459761Y-171426333D01*
X117507380Y-171521571D01*
X117507380Y-171807285D01*
X117459761Y-171902523D01*
X117412142Y-171950142D01*
X117187380Y-169044904D02*
X116187380Y-169044904D01*
X117187380Y-168473476D02*
X116615952Y-168902047D01*
X116187380Y-168473476D02*
X116758809Y-169044904D01*
%TO.C,D72*%
X91218380Y-173807285D02*
X90218380Y-173807285D01*
X90218380Y-173569190D01*
X90266000Y-173426333D01*
X90361238Y-173331095D01*
X90456476Y-173283476D01*
X90646952Y-173235857D01*
X90789809Y-173235857D01*
X90980285Y-173283476D01*
X91075523Y-173331095D01*
X91170761Y-173426333D01*
X91218380Y-173569190D01*
X91218380Y-173807285D01*
X90218380Y-172902523D02*
X90218380Y-172235857D01*
X91218380Y-172664428D01*
X90313619Y-171902523D02*
X90266000Y-171854904D01*
X90218380Y-171759666D01*
X90218380Y-171521571D01*
X90266000Y-171426333D01*
X90313619Y-171378714D01*
X90408857Y-171331095D01*
X90504095Y-171331095D01*
X90646952Y-171378714D01*
X91218380Y-171950142D01*
X91218380Y-171331095D01*
X90898380Y-169044904D02*
X89898380Y-169044904D01*
X90898380Y-168473476D02*
X90326952Y-168902047D01*
X89898380Y-168473476D02*
X90469809Y-169044904D01*
%TO.C,D71*%
X65183380Y-173807285D02*
X64183380Y-173807285D01*
X64183380Y-173569190D01*
X64231000Y-173426333D01*
X64326238Y-173331095D01*
X64421476Y-173283476D01*
X64611952Y-173235857D01*
X64754809Y-173235857D01*
X64945285Y-173283476D01*
X65040523Y-173331095D01*
X65135761Y-173426333D01*
X65183380Y-173569190D01*
X65183380Y-173807285D01*
X64183380Y-172902523D02*
X64183380Y-172235857D01*
X65183380Y-172664428D01*
X65183380Y-171331095D02*
X65183380Y-171902523D01*
X65183380Y-171616809D02*
X64183380Y-171616809D01*
X64326238Y-171712047D01*
X64421476Y-171807285D01*
X64469095Y-171902523D01*
X64863380Y-169044904D02*
X63863380Y-169044904D01*
X64863380Y-168473476D02*
X64291952Y-168902047D01*
X63863380Y-168473476D02*
X64434809Y-169044904D01*
%TO.C,D70*%
X46133380Y-173807285D02*
X45133380Y-173807285D01*
X45133380Y-173569190D01*
X45181000Y-173426333D01*
X45276238Y-173331095D01*
X45371476Y-173283476D01*
X45561952Y-173235857D01*
X45704809Y-173235857D01*
X45895285Y-173283476D01*
X45990523Y-173331095D01*
X46085761Y-173426333D01*
X46133380Y-173569190D01*
X46133380Y-173807285D01*
X45133380Y-172902523D02*
X45133380Y-172235857D01*
X46133380Y-172664428D01*
X45133380Y-171664428D02*
X45133380Y-171569190D01*
X45181000Y-171473952D01*
X45228619Y-171426333D01*
X45323857Y-171378714D01*
X45514333Y-171331095D01*
X45752428Y-171331095D01*
X45942904Y-171378714D01*
X46038142Y-171426333D01*
X46085761Y-171473952D01*
X46133380Y-171569190D01*
X46133380Y-171664428D01*
X46085761Y-171759666D01*
X46038142Y-171807285D01*
X45942904Y-171854904D01*
X45752428Y-171902523D01*
X45514333Y-171902523D01*
X45323857Y-171854904D01*
X45228619Y-171807285D01*
X45181000Y-171759666D01*
X45133380Y-171664428D01*
X45813380Y-169044904D02*
X44813380Y-169044904D01*
X45813380Y-168473476D02*
X45241952Y-168902047D01*
X44813380Y-168473476D02*
X45384809Y-169044904D01*
%TO.C,D69*%
X375522380Y-158059285D02*
X374522380Y-158059285D01*
X374522380Y-157821190D01*
X374570000Y-157678333D01*
X374665238Y-157583095D01*
X374760476Y-157535476D01*
X374950952Y-157487857D01*
X375093809Y-157487857D01*
X375284285Y-157535476D01*
X375379523Y-157583095D01*
X375474761Y-157678333D01*
X375522380Y-157821190D01*
X375522380Y-158059285D01*
X374522380Y-156630714D02*
X374522380Y-156821190D01*
X374570000Y-156916428D01*
X374617619Y-156964047D01*
X374760476Y-157059285D01*
X374950952Y-157106904D01*
X375331904Y-157106904D01*
X375427142Y-157059285D01*
X375474761Y-157011666D01*
X375522380Y-156916428D01*
X375522380Y-156725952D01*
X375474761Y-156630714D01*
X375427142Y-156583095D01*
X375331904Y-156535476D01*
X375093809Y-156535476D01*
X374998571Y-156583095D01*
X374950952Y-156630714D01*
X374903333Y-156725952D01*
X374903333Y-156916428D01*
X374950952Y-157011666D01*
X374998571Y-157059285D01*
X375093809Y-157106904D01*
X375522380Y-156059285D02*
X375522380Y-155868809D01*
X375474761Y-155773571D01*
X375427142Y-155725952D01*
X375284285Y-155630714D01*
X375093809Y-155583095D01*
X374712857Y-155583095D01*
X374617619Y-155630714D01*
X374570000Y-155678333D01*
X374522380Y-155773571D01*
X374522380Y-155964047D01*
X374570000Y-156059285D01*
X374617619Y-156106904D01*
X374712857Y-156154523D01*
X374950952Y-156154523D01*
X375046190Y-156106904D01*
X375093809Y-156059285D01*
X375141428Y-155964047D01*
X375141428Y-155773571D01*
X375093809Y-155678333D01*
X375046190Y-155630714D01*
X374950952Y-155583095D01*
X375842380Y-160916904D02*
X374842380Y-160916904D01*
X375842380Y-160345476D02*
X375270952Y-160774047D01*
X374842380Y-160345476D02*
X375413809Y-160916904D01*
%TO.C,D68*%
X356726380Y-158059285D02*
X355726380Y-158059285D01*
X355726380Y-157821190D01*
X355774000Y-157678333D01*
X355869238Y-157583095D01*
X355964476Y-157535476D01*
X356154952Y-157487857D01*
X356297809Y-157487857D01*
X356488285Y-157535476D01*
X356583523Y-157583095D01*
X356678761Y-157678333D01*
X356726380Y-157821190D01*
X356726380Y-158059285D01*
X355726380Y-156630714D02*
X355726380Y-156821190D01*
X355774000Y-156916428D01*
X355821619Y-156964047D01*
X355964476Y-157059285D01*
X356154952Y-157106904D01*
X356535904Y-157106904D01*
X356631142Y-157059285D01*
X356678761Y-157011666D01*
X356726380Y-156916428D01*
X356726380Y-156725952D01*
X356678761Y-156630714D01*
X356631142Y-156583095D01*
X356535904Y-156535476D01*
X356297809Y-156535476D01*
X356202571Y-156583095D01*
X356154952Y-156630714D01*
X356107333Y-156725952D01*
X356107333Y-156916428D01*
X356154952Y-157011666D01*
X356202571Y-157059285D01*
X356297809Y-157106904D01*
X356154952Y-155964047D02*
X356107333Y-156059285D01*
X356059714Y-156106904D01*
X355964476Y-156154523D01*
X355916857Y-156154523D01*
X355821619Y-156106904D01*
X355774000Y-156059285D01*
X355726380Y-155964047D01*
X355726380Y-155773571D01*
X355774000Y-155678333D01*
X355821619Y-155630714D01*
X355916857Y-155583095D01*
X355964476Y-155583095D01*
X356059714Y-155630714D01*
X356107333Y-155678333D01*
X356154952Y-155773571D01*
X356154952Y-155964047D01*
X356202571Y-156059285D01*
X356250190Y-156106904D01*
X356345428Y-156154523D01*
X356535904Y-156154523D01*
X356631142Y-156106904D01*
X356678761Y-156059285D01*
X356726380Y-155964047D01*
X356726380Y-155773571D01*
X356678761Y-155678333D01*
X356631142Y-155630714D01*
X356535904Y-155583095D01*
X356345428Y-155583095D01*
X356250190Y-155630714D01*
X356202571Y-155678333D01*
X356154952Y-155773571D01*
X357046380Y-160916904D02*
X356046380Y-160916904D01*
X357046380Y-160345476D02*
X356474952Y-160774047D01*
X356046380Y-160345476D02*
X356617809Y-160916904D01*
%TO.C,D67*%
X337803380Y-158059285D02*
X336803380Y-158059285D01*
X336803380Y-157821190D01*
X336851000Y-157678333D01*
X336946238Y-157583095D01*
X337041476Y-157535476D01*
X337231952Y-157487857D01*
X337374809Y-157487857D01*
X337565285Y-157535476D01*
X337660523Y-157583095D01*
X337755761Y-157678333D01*
X337803380Y-157821190D01*
X337803380Y-158059285D01*
X336803380Y-156630714D02*
X336803380Y-156821190D01*
X336851000Y-156916428D01*
X336898619Y-156964047D01*
X337041476Y-157059285D01*
X337231952Y-157106904D01*
X337612904Y-157106904D01*
X337708142Y-157059285D01*
X337755761Y-157011666D01*
X337803380Y-156916428D01*
X337803380Y-156725952D01*
X337755761Y-156630714D01*
X337708142Y-156583095D01*
X337612904Y-156535476D01*
X337374809Y-156535476D01*
X337279571Y-156583095D01*
X337231952Y-156630714D01*
X337184333Y-156725952D01*
X337184333Y-156916428D01*
X337231952Y-157011666D01*
X337279571Y-157059285D01*
X337374809Y-157106904D01*
X336803380Y-156202142D02*
X336803380Y-155535476D01*
X337803380Y-155964047D01*
X338123380Y-160916904D02*
X337123380Y-160916904D01*
X338123380Y-160345476D02*
X337551952Y-160774047D01*
X337123380Y-160345476D02*
X337694809Y-160916904D01*
%TO.C,D66*%
X288019380Y-158059285D02*
X287019380Y-158059285D01*
X287019380Y-157821190D01*
X287067000Y-157678333D01*
X287162238Y-157583095D01*
X287257476Y-157535476D01*
X287447952Y-157487857D01*
X287590809Y-157487857D01*
X287781285Y-157535476D01*
X287876523Y-157583095D01*
X287971761Y-157678333D01*
X288019380Y-157821190D01*
X288019380Y-158059285D01*
X287019380Y-156630714D02*
X287019380Y-156821190D01*
X287067000Y-156916428D01*
X287114619Y-156964047D01*
X287257476Y-157059285D01*
X287447952Y-157106904D01*
X287828904Y-157106904D01*
X287924142Y-157059285D01*
X287971761Y-157011666D01*
X288019380Y-156916428D01*
X288019380Y-156725952D01*
X287971761Y-156630714D01*
X287924142Y-156583095D01*
X287828904Y-156535476D01*
X287590809Y-156535476D01*
X287495571Y-156583095D01*
X287447952Y-156630714D01*
X287400333Y-156725952D01*
X287400333Y-156916428D01*
X287447952Y-157011666D01*
X287495571Y-157059285D01*
X287590809Y-157106904D01*
X287019380Y-155678333D02*
X287019380Y-155868809D01*
X287067000Y-155964047D01*
X287114619Y-156011666D01*
X287257476Y-156106904D01*
X287447952Y-156154523D01*
X287828904Y-156154523D01*
X287924142Y-156106904D01*
X287971761Y-156059285D01*
X288019380Y-155964047D01*
X288019380Y-155773571D01*
X287971761Y-155678333D01*
X287924142Y-155630714D01*
X287828904Y-155583095D01*
X287590809Y-155583095D01*
X287495571Y-155630714D01*
X287447952Y-155678333D01*
X287400333Y-155773571D01*
X287400333Y-155964047D01*
X287447952Y-156059285D01*
X287495571Y-156106904D01*
X287590809Y-156154523D01*
X288339380Y-160916904D02*
X287339380Y-160916904D01*
X288339380Y-160345476D02*
X287767952Y-160774047D01*
X287339380Y-160345476D02*
X287910809Y-160916904D01*
%TO.C,D65*%
X257031380Y-158059285D02*
X256031380Y-158059285D01*
X256031380Y-157821190D01*
X256079000Y-157678333D01*
X256174238Y-157583095D01*
X256269476Y-157535476D01*
X256459952Y-157487857D01*
X256602809Y-157487857D01*
X256793285Y-157535476D01*
X256888523Y-157583095D01*
X256983761Y-157678333D01*
X257031380Y-157821190D01*
X257031380Y-158059285D01*
X256031380Y-156630714D02*
X256031380Y-156821190D01*
X256079000Y-156916428D01*
X256126619Y-156964047D01*
X256269476Y-157059285D01*
X256459952Y-157106904D01*
X256840904Y-157106904D01*
X256936142Y-157059285D01*
X256983761Y-157011666D01*
X257031380Y-156916428D01*
X257031380Y-156725952D01*
X256983761Y-156630714D01*
X256936142Y-156583095D01*
X256840904Y-156535476D01*
X256602809Y-156535476D01*
X256507571Y-156583095D01*
X256459952Y-156630714D01*
X256412333Y-156725952D01*
X256412333Y-156916428D01*
X256459952Y-157011666D01*
X256507571Y-157059285D01*
X256602809Y-157106904D01*
X256031380Y-155630714D02*
X256031380Y-156106904D01*
X256507571Y-156154523D01*
X256459952Y-156106904D01*
X256412333Y-156011666D01*
X256412333Y-155773571D01*
X256459952Y-155678333D01*
X256507571Y-155630714D01*
X256602809Y-155583095D01*
X256840904Y-155583095D01*
X256936142Y-155630714D01*
X256983761Y-155678333D01*
X257031380Y-155773571D01*
X257031380Y-156011666D01*
X256983761Y-156106904D01*
X256936142Y-156154523D01*
X257351380Y-160916904D02*
X256351380Y-160916904D01*
X257351380Y-160345476D02*
X256779952Y-160774047D01*
X256351380Y-160345476D02*
X256922809Y-160916904D01*
%TO.C,D64*%
X237600380Y-158059285D02*
X236600380Y-158059285D01*
X236600380Y-157821190D01*
X236648000Y-157678333D01*
X236743238Y-157583095D01*
X236838476Y-157535476D01*
X237028952Y-157487857D01*
X237171809Y-157487857D01*
X237362285Y-157535476D01*
X237457523Y-157583095D01*
X237552761Y-157678333D01*
X237600380Y-157821190D01*
X237600380Y-158059285D01*
X236600380Y-156630714D02*
X236600380Y-156821190D01*
X236648000Y-156916428D01*
X236695619Y-156964047D01*
X236838476Y-157059285D01*
X237028952Y-157106904D01*
X237409904Y-157106904D01*
X237505142Y-157059285D01*
X237552761Y-157011666D01*
X237600380Y-156916428D01*
X237600380Y-156725952D01*
X237552761Y-156630714D01*
X237505142Y-156583095D01*
X237409904Y-156535476D01*
X237171809Y-156535476D01*
X237076571Y-156583095D01*
X237028952Y-156630714D01*
X236981333Y-156725952D01*
X236981333Y-156916428D01*
X237028952Y-157011666D01*
X237076571Y-157059285D01*
X237171809Y-157106904D01*
X236933714Y-155678333D02*
X237600380Y-155678333D01*
X236552761Y-155916428D02*
X237267047Y-156154523D01*
X237267047Y-155535476D01*
X237920380Y-160916904D02*
X236920380Y-160916904D01*
X237920380Y-160345476D02*
X237348952Y-160774047D01*
X236920380Y-160345476D02*
X237491809Y-160916904D01*
%TO.C,D63*%
X218550380Y-158059285D02*
X217550380Y-158059285D01*
X217550380Y-157821190D01*
X217598000Y-157678333D01*
X217693238Y-157583095D01*
X217788476Y-157535476D01*
X217978952Y-157487857D01*
X218121809Y-157487857D01*
X218312285Y-157535476D01*
X218407523Y-157583095D01*
X218502761Y-157678333D01*
X218550380Y-157821190D01*
X218550380Y-158059285D01*
X217550380Y-156630714D02*
X217550380Y-156821190D01*
X217598000Y-156916428D01*
X217645619Y-156964047D01*
X217788476Y-157059285D01*
X217978952Y-157106904D01*
X218359904Y-157106904D01*
X218455142Y-157059285D01*
X218502761Y-157011666D01*
X218550380Y-156916428D01*
X218550380Y-156725952D01*
X218502761Y-156630714D01*
X218455142Y-156583095D01*
X218359904Y-156535476D01*
X218121809Y-156535476D01*
X218026571Y-156583095D01*
X217978952Y-156630714D01*
X217931333Y-156725952D01*
X217931333Y-156916428D01*
X217978952Y-157011666D01*
X218026571Y-157059285D01*
X218121809Y-157106904D01*
X217550380Y-156202142D02*
X217550380Y-155583095D01*
X217931333Y-155916428D01*
X217931333Y-155773571D01*
X217978952Y-155678333D01*
X218026571Y-155630714D01*
X218121809Y-155583095D01*
X218359904Y-155583095D01*
X218455142Y-155630714D01*
X218502761Y-155678333D01*
X218550380Y-155773571D01*
X218550380Y-156059285D01*
X218502761Y-156154523D01*
X218455142Y-156202142D01*
X218870380Y-160916904D02*
X217870380Y-160916904D01*
X218870380Y-160345476D02*
X218298952Y-160774047D01*
X217870380Y-160345476D02*
X218441809Y-160916904D01*
%TO.C,D62*%
X199373380Y-158059285D02*
X198373380Y-158059285D01*
X198373380Y-157821190D01*
X198421000Y-157678333D01*
X198516238Y-157583095D01*
X198611476Y-157535476D01*
X198801952Y-157487857D01*
X198944809Y-157487857D01*
X199135285Y-157535476D01*
X199230523Y-157583095D01*
X199325761Y-157678333D01*
X199373380Y-157821190D01*
X199373380Y-158059285D01*
X198373380Y-156630714D02*
X198373380Y-156821190D01*
X198421000Y-156916428D01*
X198468619Y-156964047D01*
X198611476Y-157059285D01*
X198801952Y-157106904D01*
X199182904Y-157106904D01*
X199278142Y-157059285D01*
X199325761Y-157011666D01*
X199373380Y-156916428D01*
X199373380Y-156725952D01*
X199325761Y-156630714D01*
X199278142Y-156583095D01*
X199182904Y-156535476D01*
X198944809Y-156535476D01*
X198849571Y-156583095D01*
X198801952Y-156630714D01*
X198754333Y-156725952D01*
X198754333Y-156916428D01*
X198801952Y-157011666D01*
X198849571Y-157059285D01*
X198944809Y-157106904D01*
X198468619Y-156154523D02*
X198421000Y-156106904D01*
X198373380Y-156011666D01*
X198373380Y-155773571D01*
X198421000Y-155678333D01*
X198468619Y-155630714D01*
X198563857Y-155583095D01*
X198659095Y-155583095D01*
X198801952Y-155630714D01*
X199373380Y-156202142D01*
X199373380Y-155583095D01*
X199693380Y-160916904D02*
X198693380Y-160916904D01*
X199693380Y-160345476D02*
X199121952Y-160774047D01*
X198693380Y-160345476D02*
X199264809Y-160916904D01*
%TO.C,D61*%
X180323380Y-158059285D02*
X179323380Y-158059285D01*
X179323380Y-157821190D01*
X179371000Y-157678333D01*
X179466238Y-157583095D01*
X179561476Y-157535476D01*
X179751952Y-157487857D01*
X179894809Y-157487857D01*
X180085285Y-157535476D01*
X180180523Y-157583095D01*
X180275761Y-157678333D01*
X180323380Y-157821190D01*
X180323380Y-158059285D01*
X179323380Y-156630714D02*
X179323380Y-156821190D01*
X179371000Y-156916428D01*
X179418619Y-156964047D01*
X179561476Y-157059285D01*
X179751952Y-157106904D01*
X180132904Y-157106904D01*
X180228142Y-157059285D01*
X180275761Y-157011666D01*
X180323380Y-156916428D01*
X180323380Y-156725952D01*
X180275761Y-156630714D01*
X180228142Y-156583095D01*
X180132904Y-156535476D01*
X179894809Y-156535476D01*
X179799571Y-156583095D01*
X179751952Y-156630714D01*
X179704333Y-156725952D01*
X179704333Y-156916428D01*
X179751952Y-157011666D01*
X179799571Y-157059285D01*
X179894809Y-157106904D01*
X180323380Y-155583095D02*
X180323380Y-156154523D01*
X180323380Y-155868809D02*
X179323380Y-155868809D01*
X179466238Y-155964047D01*
X179561476Y-156059285D01*
X179609095Y-156154523D01*
X180643380Y-160916904D02*
X179643380Y-160916904D01*
X180643380Y-160345476D02*
X180071952Y-160774047D01*
X179643380Y-160345476D02*
X180214809Y-160916904D01*
%TO.C,D60*%
X161146380Y-158059285D02*
X160146380Y-158059285D01*
X160146380Y-157821190D01*
X160194000Y-157678333D01*
X160289238Y-157583095D01*
X160384476Y-157535476D01*
X160574952Y-157487857D01*
X160717809Y-157487857D01*
X160908285Y-157535476D01*
X161003523Y-157583095D01*
X161098761Y-157678333D01*
X161146380Y-157821190D01*
X161146380Y-158059285D01*
X160146380Y-156630714D02*
X160146380Y-156821190D01*
X160194000Y-156916428D01*
X160241619Y-156964047D01*
X160384476Y-157059285D01*
X160574952Y-157106904D01*
X160955904Y-157106904D01*
X161051142Y-157059285D01*
X161098761Y-157011666D01*
X161146380Y-156916428D01*
X161146380Y-156725952D01*
X161098761Y-156630714D01*
X161051142Y-156583095D01*
X160955904Y-156535476D01*
X160717809Y-156535476D01*
X160622571Y-156583095D01*
X160574952Y-156630714D01*
X160527333Y-156725952D01*
X160527333Y-156916428D01*
X160574952Y-157011666D01*
X160622571Y-157059285D01*
X160717809Y-157106904D01*
X160146380Y-155916428D02*
X160146380Y-155821190D01*
X160194000Y-155725952D01*
X160241619Y-155678333D01*
X160336857Y-155630714D01*
X160527333Y-155583095D01*
X160765428Y-155583095D01*
X160955904Y-155630714D01*
X161051142Y-155678333D01*
X161098761Y-155725952D01*
X161146380Y-155821190D01*
X161146380Y-155916428D01*
X161098761Y-156011666D01*
X161051142Y-156059285D01*
X160955904Y-156106904D01*
X160765428Y-156154523D01*
X160527333Y-156154523D01*
X160336857Y-156106904D01*
X160241619Y-156059285D01*
X160194000Y-156011666D01*
X160146380Y-155916428D01*
X161466380Y-160916904D02*
X160466380Y-160916904D01*
X161466380Y-160345476D02*
X160894952Y-160774047D01*
X160466380Y-160345476D02*
X161037809Y-160916904D01*
%TO.C,D59*%
X141969380Y-158059285D02*
X140969380Y-158059285D01*
X140969380Y-157821190D01*
X141017000Y-157678333D01*
X141112238Y-157583095D01*
X141207476Y-157535476D01*
X141397952Y-157487857D01*
X141540809Y-157487857D01*
X141731285Y-157535476D01*
X141826523Y-157583095D01*
X141921761Y-157678333D01*
X141969380Y-157821190D01*
X141969380Y-158059285D01*
X140969380Y-156583095D02*
X140969380Y-157059285D01*
X141445571Y-157106904D01*
X141397952Y-157059285D01*
X141350333Y-156964047D01*
X141350333Y-156725952D01*
X141397952Y-156630714D01*
X141445571Y-156583095D01*
X141540809Y-156535476D01*
X141778904Y-156535476D01*
X141874142Y-156583095D01*
X141921761Y-156630714D01*
X141969380Y-156725952D01*
X141969380Y-156964047D01*
X141921761Y-157059285D01*
X141874142Y-157106904D01*
X141969380Y-156059285D02*
X141969380Y-155868809D01*
X141921761Y-155773571D01*
X141874142Y-155725952D01*
X141731285Y-155630714D01*
X141540809Y-155583095D01*
X141159857Y-155583095D01*
X141064619Y-155630714D01*
X141017000Y-155678333D01*
X140969380Y-155773571D01*
X140969380Y-155964047D01*
X141017000Y-156059285D01*
X141064619Y-156106904D01*
X141159857Y-156154523D01*
X141397952Y-156154523D01*
X141493190Y-156106904D01*
X141540809Y-156059285D01*
X141588428Y-155964047D01*
X141588428Y-155773571D01*
X141540809Y-155678333D01*
X141493190Y-155630714D01*
X141397952Y-155583095D01*
X142289380Y-160916904D02*
X141289380Y-160916904D01*
X142289380Y-160345476D02*
X141717952Y-160774047D01*
X141289380Y-160345476D02*
X141860809Y-160916904D01*
%TO.C,D58*%
X122919380Y-158059285D02*
X121919380Y-158059285D01*
X121919380Y-157821190D01*
X121967000Y-157678333D01*
X122062238Y-157583095D01*
X122157476Y-157535476D01*
X122347952Y-157487857D01*
X122490809Y-157487857D01*
X122681285Y-157535476D01*
X122776523Y-157583095D01*
X122871761Y-157678333D01*
X122919380Y-157821190D01*
X122919380Y-158059285D01*
X121919380Y-156583095D02*
X121919380Y-157059285D01*
X122395571Y-157106904D01*
X122347952Y-157059285D01*
X122300333Y-156964047D01*
X122300333Y-156725952D01*
X122347952Y-156630714D01*
X122395571Y-156583095D01*
X122490809Y-156535476D01*
X122728904Y-156535476D01*
X122824142Y-156583095D01*
X122871761Y-156630714D01*
X122919380Y-156725952D01*
X122919380Y-156964047D01*
X122871761Y-157059285D01*
X122824142Y-157106904D01*
X122347952Y-155964047D02*
X122300333Y-156059285D01*
X122252714Y-156106904D01*
X122157476Y-156154523D01*
X122109857Y-156154523D01*
X122014619Y-156106904D01*
X121967000Y-156059285D01*
X121919380Y-155964047D01*
X121919380Y-155773571D01*
X121967000Y-155678333D01*
X122014619Y-155630714D01*
X122109857Y-155583095D01*
X122157476Y-155583095D01*
X122252714Y-155630714D01*
X122300333Y-155678333D01*
X122347952Y-155773571D01*
X122347952Y-155964047D01*
X122395571Y-156059285D01*
X122443190Y-156106904D01*
X122538428Y-156154523D01*
X122728904Y-156154523D01*
X122824142Y-156106904D01*
X122871761Y-156059285D01*
X122919380Y-155964047D01*
X122919380Y-155773571D01*
X122871761Y-155678333D01*
X122824142Y-155630714D01*
X122728904Y-155583095D01*
X122538428Y-155583095D01*
X122443190Y-155630714D01*
X122395571Y-155678333D01*
X122347952Y-155773571D01*
X123239380Y-160916904D02*
X122239380Y-160916904D01*
X123239380Y-160345476D02*
X122667952Y-160774047D01*
X122239380Y-160345476D02*
X122810809Y-160916904D01*
%TO.C,D57*%
X103742380Y-158059285D02*
X102742380Y-158059285D01*
X102742380Y-157821190D01*
X102790000Y-157678333D01*
X102885238Y-157583095D01*
X102980476Y-157535476D01*
X103170952Y-157487857D01*
X103313809Y-157487857D01*
X103504285Y-157535476D01*
X103599523Y-157583095D01*
X103694761Y-157678333D01*
X103742380Y-157821190D01*
X103742380Y-158059285D01*
X102742380Y-156583095D02*
X102742380Y-157059285D01*
X103218571Y-157106904D01*
X103170952Y-157059285D01*
X103123333Y-156964047D01*
X103123333Y-156725952D01*
X103170952Y-156630714D01*
X103218571Y-156583095D01*
X103313809Y-156535476D01*
X103551904Y-156535476D01*
X103647142Y-156583095D01*
X103694761Y-156630714D01*
X103742380Y-156725952D01*
X103742380Y-156964047D01*
X103694761Y-157059285D01*
X103647142Y-157106904D01*
X102742380Y-156202142D02*
X102742380Y-155535476D01*
X103742380Y-155964047D01*
X104062380Y-160916904D02*
X103062380Y-160916904D01*
X104062380Y-160345476D02*
X103490952Y-160774047D01*
X103062380Y-160345476D02*
X103633809Y-160916904D01*
%TO.C,D56*%
X84692380Y-158059285D02*
X83692380Y-158059285D01*
X83692380Y-157821190D01*
X83740000Y-157678333D01*
X83835238Y-157583095D01*
X83930476Y-157535476D01*
X84120952Y-157487857D01*
X84263809Y-157487857D01*
X84454285Y-157535476D01*
X84549523Y-157583095D01*
X84644761Y-157678333D01*
X84692380Y-157821190D01*
X84692380Y-158059285D01*
X83692380Y-156583095D02*
X83692380Y-157059285D01*
X84168571Y-157106904D01*
X84120952Y-157059285D01*
X84073333Y-156964047D01*
X84073333Y-156725952D01*
X84120952Y-156630714D01*
X84168571Y-156583095D01*
X84263809Y-156535476D01*
X84501904Y-156535476D01*
X84597142Y-156583095D01*
X84644761Y-156630714D01*
X84692380Y-156725952D01*
X84692380Y-156964047D01*
X84644761Y-157059285D01*
X84597142Y-157106904D01*
X83692380Y-155678333D02*
X83692380Y-155868809D01*
X83740000Y-155964047D01*
X83787619Y-156011666D01*
X83930476Y-156106904D01*
X84120952Y-156154523D01*
X84501904Y-156154523D01*
X84597142Y-156106904D01*
X84644761Y-156059285D01*
X84692380Y-155964047D01*
X84692380Y-155773571D01*
X84644761Y-155678333D01*
X84597142Y-155630714D01*
X84501904Y-155583095D01*
X84263809Y-155583095D01*
X84168571Y-155630714D01*
X84120952Y-155678333D01*
X84073333Y-155773571D01*
X84073333Y-155964047D01*
X84120952Y-156059285D01*
X84168571Y-156106904D01*
X84263809Y-156154523D01*
X85012380Y-160916904D02*
X84012380Y-160916904D01*
X85012380Y-160345476D02*
X84440952Y-160774047D01*
X84012380Y-160345476D02*
X84583809Y-160916904D01*
%TO.C,D55*%
X54085380Y-158059285D02*
X53085380Y-158059285D01*
X53085380Y-157821190D01*
X53133000Y-157678333D01*
X53228238Y-157583095D01*
X53323476Y-157535476D01*
X53513952Y-157487857D01*
X53656809Y-157487857D01*
X53847285Y-157535476D01*
X53942523Y-157583095D01*
X54037761Y-157678333D01*
X54085380Y-157821190D01*
X54085380Y-158059285D01*
X53085380Y-156583095D02*
X53085380Y-157059285D01*
X53561571Y-157106904D01*
X53513952Y-157059285D01*
X53466333Y-156964047D01*
X53466333Y-156725952D01*
X53513952Y-156630714D01*
X53561571Y-156583095D01*
X53656809Y-156535476D01*
X53894904Y-156535476D01*
X53990142Y-156583095D01*
X54037761Y-156630714D01*
X54085380Y-156725952D01*
X54085380Y-156964047D01*
X54037761Y-157059285D01*
X53990142Y-157106904D01*
X53085380Y-155630714D02*
X53085380Y-156106904D01*
X53561571Y-156154523D01*
X53513952Y-156106904D01*
X53466333Y-156011666D01*
X53466333Y-155773571D01*
X53513952Y-155678333D01*
X53561571Y-155630714D01*
X53656809Y-155583095D01*
X53894904Y-155583095D01*
X53990142Y-155630714D01*
X54037761Y-155678333D01*
X54085380Y-155773571D01*
X54085380Y-156011666D01*
X54037761Y-156106904D01*
X53990142Y-156154523D01*
X54405380Y-160916904D02*
X53405380Y-160916904D01*
X54405380Y-160345476D02*
X53833952Y-160774047D01*
X53405380Y-160345476D02*
X53976809Y-160916904D01*
%TO.C,D54*%
X379762380Y-144851285D02*
X378762380Y-144851285D01*
X378762380Y-144613190D01*
X378810000Y-144470333D01*
X378905238Y-144375095D01*
X379000476Y-144327476D01*
X379190952Y-144279857D01*
X379333809Y-144279857D01*
X379524285Y-144327476D01*
X379619523Y-144375095D01*
X379714761Y-144470333D01*
X379762380Y-144613190D01*
X379762380Y-144851285D01*
X378762380Y-143375095D02*
X378762380Y-143851285D01*
X379238571Y-143898904D01*
X379190952Y-143851285D01*
X379143333Y-143756047D01*
X379143333Y-143517952D01*
X379190952Y-143422714D01*
X379238571Y-143375095D01*
X379333809Y-143327476D01*
X379571904Y-143327476D01*
X379667142Y-143375095D01*
X379714761Y-143422714D01*
X379762380Y-143517952D01*
X379762380Y-143756047D01*
X379714761Y-143851285D01*
X379667142Y-143898904D01*
X379095714Y-142470333D02*
X379762380Y-142470333D01*
X378714761Y-142708428D02*
X379429047Y-142946523D01*
X379429047Y-142327476D01*
X379442380Y-140088904D02*
X378442380Y-140088904D01*
X379442380Y-139517476D02*
X378870952Y-139946047D01*
X378442380Y-139517476D02*
X379013809Y-140088904D01*
%TO.C,D53*%
X360966380Y-144851285D02*
X359966380Y-144851285D01*
X359966380Y-144613190D01*
X360014000Y-144470333D01*
X360109238Y-144375095D01*
X360204476Y-144327476D01*
X360394952Y-144279857D01*
X360537809Y-144279857D01*
X360728285Y-144327476D01*
X360823523Y-144375095D01*
X360918761Y-144470333D01*
X360966380Y-144613190D01*
X360966380Y-144851285D01*
X359966380Y-143375095D02*
X359966380Y-143851285D01*
X360442571Y-143898904D01*
X360394952Y-143851285D01*
X360347333Y-143756047D01*
X360347333Y-143517952D01*
X360394952Y-143422714D01*
X360442571Y-143375095D01*
X360537809Y-143327476D01*
X360775904Y-143327476D01*
X360871142Y-143375095D01*
X360918761Y-143422714D01*
X360966380Y-143517952D01*
X360966380Y-143756047D01*
X360918761Y-143851285D01*
X360871142Y-143898904D01*
X359966380Y-142994142D02*
X359966380Y-142375095D01*
X360347333Y-142708428D01*
X360347333Y-142565571D01*
X360394952Y-142470333D01*
X360442571Y-142422714D01*
X360537809Y-142375095D01*
X360775904Y-142375095D01*
X360871142Y-142422714D01*
X360918761Y-142470333D01*
X360966380Y-142565571D01*
X360966380Y-142851285D01*
X360918761Y-142946523D01*
X360871142Y-142994142D01*
X360646380Y-140088904D02*
X359646380Y-140088904D01*
X360646380Y-139517476D02*
X360074952Y-139946047D01*
X359646380Y-139517476D02*
X360217809Y-140088904D01*
%TO.C,D52*%
X342043380Y-144851285D02*
X341043380Y-144851285D01*
X341043380Y-144613190D01*
X341091000Y-144470333D01*
X341186238Y-144375095D01*
X341281476Y-144327476D01*
X341471952Y-144279857D01*
X341614809Y-144279857D01*
X341805285Y-144327476D01*
X341900523Y-144375095D01*
X341995761Y-144470333D01*
X342043380Y-144613190D01*
X342043380Y-144851285D01*
X341043380Y-143375095D02*
X341043380Y-143851285D01*
X341519571Y-143898904D01*
X341471952Y-143851285D01*
X341424333Y-143756047D01*
X341424333Y-143517952D01*
X341471952Y-143422714D01*
X341519571Y-143375095D01*
X341614809Y-143327476D01*
X341852904Y-143327476D01*
X341948142Y-143375095D01*
X341995761Y-143422714D01*
X342043380Y-143517952D01*
X342043380Y-143756047D01*
X341995761Y-143851285D01*
X341948142Y-143898904D01*
X341138619Y-142946523D02*
X341091000Y-142898904D01*
X341043380Y-142803666D01*
X341043380Y-142565571D01*
X341091000Y-142470333D01*
X341138619Y-142422714D01*
X341233857Y-142375095D01*
X341329095Y-142375095D01*
X341471952Y-142422714D01*
X342043380Y-142994142D01*
X342043380Y-142375095D01*
X341723380Y-140088904D02*
X340723380Y-140088904D01*
X341723380Y-139517476D02*
X341151952Y-139946047D01*
X340723380Y-139517476D02*
X341294809Y-140088904D01*
%TO.C,D51*%
X322866380Y-144851285D02*
X321866380Y-144851285D01*
X321866380Y-144613190D01*
X321914000Y-144470333D01*
X322009238Y-144375095D01*
X322104476Y-144327476D01*
X322294952Y-144279857D01*
X322437809Y-144279857D01*
X322628285Y-144327476D01*
X322723523Y-144375095D01*
X322818761Y-144470333D01*
X322866380Y-144613190D01*
X322866380Y-144851285D01*
X321866380Y-143375095D02*
X321866380Y-143851285D01*
X322342571Y-143898904D01*
X322294952Y-143851285D01*
X322247333Y-143756047D01*
X322247333Y-143517952D01*
X322294952Y-143422714D01*
X322342571Y-143375095D01*
X322437809Y-143327476D01*
X322675904Y-143327476D01*
X322771142Y-143375095D01*
X322818761Y-143422714D01*
X322866380Y-143517952D01*
X322866380Y-143756047D01*
X322818761Y-143851285D01*
X322771142Y-143898904D01*
X322866380Y-142375095D02*
X322866380Y-142946523D01*
X322866380Y-142660809D02*
X321866380Y-142660809D01*
X322009238Y-142756047D01*
X322104476Y-142851285D01*
X322152095Y-142946523D01*
X322546380Y-140088904D02*
X321546380Y-140088904D01*
X322546380Y-139517476D02*
X321974952Y-139946047D01*
X321546380Y-139517476D02*
X322117809Y-140088904D01*
%TO.C,D50*%
X270796380Y-144851285D02*
X269796380Y-144851285D01*
X269796380Y-144613190D01*
X269844000Y-144470333D01*
X269939238Y-144375095D01*
X270034476Y-144327476D01*
X270224952Y-144279857D01*
X270367809Y-144279857D01*
X270558285Y-144327476D01*
X270653523Y-144375095D01*
X270748761Y-144470333D01*
X270796380Y-144613190D01*
X270796380Y-144851285D01*
X269796380Y-143375095D02*
X269796380Y-143851285D01*
X270272571Y-143898904D01*
X270224952Y-143851285D01*
X270177333Y-143756047D01*
X270177333Y-143517952D01*
X270224952Y-143422714D01*
X270272571Y-143375095D01*
X270367809Y-143327476D01*
X270605904Y-143327476D01*
X270701142Y-143375095D01*
X270748761Y-143422714D01*
X270796380Y-143517952D01*
X270796380Y-143756047D01*
X270748761Y-143851285D01*
X270701142Y-143898904D01*
X269796380Y-142708428D02*
X269796380Y-142613190D01*
X269844000Y-142517952D01*
X269891619Y-142470333D01*
X269986857Y-142422714D01*
X270177333Y-142375095D01*
X270415428Y-142375095D01*
X270605904Y-142422714D01*
X270701142Y-142470333D01*
X270748761Y-142517952D01*
X270796380Y-142613190D01*
X270796380Y-142708428D01*
X270748761Y-142803666D01*
X270701142Y-142851285D01*
X270605904Y-142898904D01*
X270415428Y-142946523D01*
X270177333Y-142946523D01*
X269986857Y-142898904D01*
X269891619Y-142851285D01*
X269844000Y-142803666D01*
X269796380Y-142708428D01*
X270476380Y-140088904D02*
X269476380Y-140088904D01*
X270476380Y-139517476D02*
X269904952Y-139946047D01*
X269476380Y-139517476D02*
X270047809Y-140088904D01*
%TO.C,D49*%
X251365380Y-144851285D02*
X250365380Y-144851285D01*
X250365380Y-144613190D01*
X250413000Y-144470333D01*
X250508238Y-144375095D01*
X250603476Y-144327476D01*
X250793952Y-144279857D01*
X250936809Y-144279857D01*
X251127285Y-144327476D01*
X251222523Y-144375095D01*
X251317761Y-144470333D01*
X251365380Y-144613190D01*
X251365380Y-144851285D01*
X250698714Y-143422714D02*
X251365380Y-143422714D01*
X250317761Y-143660809D02*
X251032047Y-143898904D01*
X251032047Y-143279857D01*
X251365380Y-142851285D02*
X251365380Y-142660809D01*
X251317761Y-142565571D01*
X251270142Y-142517952D01*
X251127285Y-142422714D01*
X250936809Y-142375095D01*
X250555857Y-142375095D01*
X250460619Y-142422714D01*
X250413000Y-142470333D01*
X250365380Y-142565571D01*
X250365380Y-142756047D01*
X250413000Y-142851285D01*
X250460619Y-142898904D01*
X250555857Y-142946523D01*
X250793952Y-142946523D01*
X250889190Y-142898904D01*
X250936809Y-142851285D01*
X250984428Y-142756047D01*
X250984428Y-142565571D01*
X250936809Y-142470333D01*
X250889190Y-142422714D01*
X250793952Y-142375095D01*
X251045380Y-140088904D02*
X250045380Y-140088904D01*
X251045380Y-139517476D02*
X250473952Y-139946047D01*
X250045380Y-139517476D02*
X250616809Y-140088904D01*
%TO.C,D48*%
X232188380Y-144851285D02*
X231188380Y-144851285D01*
X231188380Y-144613190D01*
X231236000Y-144470333D01*
X231331238Y-144375095D01*
X231426476Y-144327476D01*
X231616952Y-144279857D01*
X231759809Y-144279857D01*
X231950285Y-144327476D01*
X232045523Y-144375095D01*
X232140761Y-144470333D01*
X232188380Y-144613190D01*
X232188380Y-144851285D01*
X231521714Y-143422714D02*
X232188380Y-143422714D01*
X231140761Y-143660809D02*
X231855047Y-143898904D01*
X231855047Y-143279857D01*
X231616952Y-142756047D02*
X231569333Y-142851285D01*
X231521714Y-142898904D01*
X231426476Y-142946523D01*
X231378857Y-142946523D01*
X231283619Y-142898904D01*
X231236000Y-142851285D01*
X231188380Y-142756047D01*
X231188380Y-142565571D01*
X231236000Y-142470333D01*
X231283619Y-142422714D01*
X231378857Y-142375095D01*
X231426476Y-142375095D01*
X231521714Y-142422714D01*
X231569333Y-142470333D01*
X231616952Y-142565571D01*
X231616952Y-142756047D01*
X231664571Y-142851285D01*
X231712190Y-142898904D01*
X231807428Y-142946523D01*
X231997904Y-142946523D01*
X232093142Y-142898904D01*
X232140761Y-142851285D01*
X232188380Y-142756047D01*
X232188380Y-142565571D01*
X232140761Y-142470333D01*
X232093142Y-142422714D01*
X231997904Y-142375095D01*
X231807428Y-142375095D01*
X231712190Y-142422714D01*
X231664571Y-142470333D01*
X231616952Y-142565571D01*
X231868380Y-140088904D02*
X230868380Y-140088904D01*
X231868380Y-139517476D02*
X231296952Y-139946047D01*
X230868380Y-139517476D02*
X231439809Y-140088904D01*
%TO.C,D47*%
X213138380Y-144851285D02*
X212138380Y-144851285D01*
X212138380Y-144613190D01*
X212186000Y-144470333D01*
X212281238Y-144375095D01*
X212376476Y-144327476D01*
X212566952Y-144279857D01*
X212709809Y-144279857D01*
X212900285Y-144327476D01*
X212995523Y-144375095D01*
X213090761Y-144470333D01*
X213138380Y-144613190D01*
X213138380Y-144851285D01*
X212471714Y-143422714D02*
X213138380Y-143422714D01*
X212090761Y-143660809D02*
X212805047Y-143898904D01*
X212805047Y-143279857D01*
X212138380Y-142994142D02*
X212138380Y-142327476D01*
X213138380Y-142756047D01*
X212818380Y-140088904D02*
X211818380Y-140088904D01*
X212818380Y-139517476D02*
X212246952Y-139946047D01*
X211818380Y-139517476D02*
X212389809Y-140088904D01*
%TO.C,D46*%
X193961380Y-144851285D02*
X192961380Y-144851285D01*
X192961380Y-144613190D01*
X193009000Y-144470333D01*
X193104238Y-144375095D01*
X193199476Y-144327476D01*
X193389952Y-144279857D01*
X193532809Y-144279857D01*
X193723285Y-144327476D01*
X193818523Y-144375095D01*
X193913761Y-144470333D01*
X193961380Y-144613190D01*
X193961380Y-144851285D01*
X193294714Y-143422714D02*
X193961380Y-143422714D01*
X192913761Y-143660809D02*
X193628047Y-143898904D01*
X193628047Y-143279857D01*
X192961380Y-142470333D02*
X192961380Y-142660809D01*
X193009000Y-142756047D01*
X193056619Y-142803666D01*
X193199476Y-142898904D01*
X193389952Y-142946523D01*
X193770904Y-142946523D01*
X193866142Y-142898904D01*
X193913761Y-142851285D01*
X193961380Y-142756047D01*
X193961380Y-142565571D01*
X193913761Y-142470333D01*
X193866142Y-142422714D01*
X193770904Y-142375095D01*
X193532809Y-142375095D01*
X193437571Y-142422714D01*
X193389952Y-142470333D01*
X193342333Y-142565571D01*
X193342333Y-142756047D01*
X193389952Y-142851285D01*
X193437571Y-142898904D01*
X193532809Y-142946523D01*
X193641380Y-140088904D02*
X192641380Y-140088904D01*
X193641380Y-139517476D02*
X193069952Y-139946047D01*
X192641380Y-139517476D02*
X193212809Y-140088904D01*
%TO.C,D45*%
X174784380Y-144851285D02*
X173784380Y-144851285D01*
X173784380Y-144613190D01*
X173832000Y-144470333D01*
X173927238Y-144375095D01*
X174022476Y-144327476D01*
X174212952Y-144279857D01*
X174355809Y-144279857D01*
X174546285Y-144327476D01*
X174641523Y-144375095D01*
X174736761Y-144470333D01*
X174784380Y-144613190D01*
X174784380Y-144851285D01*
X174117714Y-143422714D02*
X174784380Y-143422714D01*
X173736761Y-143660809D02*
X174451047Y-143898904D01*
X174451047Y-143279857D01*
X173784380Y-142422714D02*
X173784380Y-142898904D01*
X174260571Y-142946523D01*
X174212952Y-142898904D01*
X174165333Y-142803666D01*
X174165333Y-142565571D01*
X174212952Y-142470333D01*
X174260571Y-142422714D01*
X174355809Y-142375095D01*
X174593904Y-142375095D01*
X174689142Y-142422714D01*
X174736761Y-142470333D01*
X174784380Y-142565571D01*
X174784380Y-142803666D01*
X174736761Y-142898904D01*
X174689142Y-142946523D01*
X174464380Y-140088904D02*
X173464380Y-140088904D01*
X174464380Y-139517476D02*
X173892952Y-139946047D01*
X173464380Y-139517476D02*
X174035809Y-140088904D01*
%TO.C,D44*%
X155734380Y-144851285D02*
X154734380Y-144851285D01*
X154734380Y-144613190D01*
X154782000Y-144470333D01*
X154877238Y-144375095D01*
X154972476Y-144327476D01*
X155162952Y-144279857D01*
X155305809Y-144279857D01*
X155496285Y-144327476D01*
X155591523Y-144375095D01*
X155686761Y-144470333D01*
X155734380Y-144613190D01*
X155734380Y-144851285D01*
X155067714Y-143422714D02*
X155734380Y-143422714D01*
X154686761Y-143660809D02*
X155401047Y-143898904D01*
X155401047Y-143279857D01*
X155067714Y-142470333D02*
X155734380Y-142470333D01*
X154686761Y-142708428D02*
X155401047Y-142946523D01*
X155401047Y-142327476D01*
X155414380Y-140088904D02*
X154414380Y-140088904D01*
X155414380Y-139517476D02*
X154842952Y-139946047D01*
X154414380Y-139517476D02*
X154985809Y-140088904D01*
%TO.C,D43*%
X136684380Y-144851285D02*
X135684380Y-144851285D01*
X135684380Y-144613190D01*
X135732000Y-144470333D01*
X135827238Y-144375095D01*
X135922476Y-144327476D01*
X136112952Y-144279857D01*
X136255809Y-144279857D01*
X136446285Y-144327476D01*
X136541523Y-144375095D01*
X136636761Y-144470333D01*
X136684380Y-144613190D01*
X136684380Y-144851285D01*
X136017714Y-143422714D02*
X136684380Y-143422714D01*
X135636761Y-143660809D02*
X136351047Y-143898904D01*
X136351047Y-143279857D01*
X135684380Y-142994142D02*
X135684380Y-142375095D01*
X136065333Y-142708428D01*
X136065333Y-142565571D01*
X136112952Y-142470333D01*
X136160571Y-142422714D01*
X136255809Y-142375095D01*
X136493904Y-142375095D01*
X136589142Y-142422714D01*
X136636761Y-142470333D01*
X136684380Y-142565571D01*
X136684380Y-142851285D01*
X136636761Y-142946523D01*
X136589142Y-142994142D01*
X136364380Y-140088904D02*
X135364380Y-140088904D01*
X136364380Y-139517476D02*
X135792952Y-139946047D01*
X135364380Y-139517476D02*
X135935809Y-140088904D01*
%TO.C,D42*%
X117507380Y-144851285D02*
X116507380Y-144851285D01*
X116507380Y-144613190D01*
X116555000Y-144470333D01*
X116650238Y-144375095D01*
X116745476Y-144327476D01*
X116935952Y-144279857D01*
X117078809Y-144279857D01*
X117269285Y-144327476D01*
X117364523Y-144375095D01*
X117459761Y-144470333D01*
X117507380Y-144613190D01*
X117507380Y-144851285D01*
X116840714Y-143422714D02*
X117507380Y-143422714D01*
X116459761Y-143660809D02*
X117174047Y-143898904D01*
X117174047Y-143279857D01*
X116602619Y-142946523D02*
X116555000Y-142898904D01*
X116507380Y-142803666D01*
X116507380Y-142565571D01*
X116555000Y-142470333D01*
X116602619Y-142422714D01*
X116697857Y-142375095D01*
X116793095Y-142375095D01*
X116935952Y-142422714D01*
X117507380Y-142994142D01*
X117507380Y-142375095D01*
X117187380Y-140088904D02*
X116187380Y-140088904D01*
X117187380Y-139517476D02*
X116615952Y-139946047D01*
X116187380Y-139517476D02*
X116758809Y-140088904D01*
%TO.C,D41*%
X98457380Y-144851285D02*
X97457380Y-144851285D01*
X97457380Y-144613190D01*
X97505000Y-144470333D01*
X97600238Y-144375095D01*
X97695476Y-144327476D01*
X97885952Y-144279857D01*
X98028809Y-144279857D01*
X98219285Y-144327476D01*
X98314523Y-144375095D01*
X98409761Y-144470333D01*
X98457380Y-144613190D01*
X98457380Y-144851285D01*
X97790714Y-143422714D02*
X98457380Y-143422714D01*
X97409761Y-143660809D02*
X98124047Y-143898904D01*
X98124047Y-143279857D01*
X98457380Y-142375095D02*
X98457380Y-142946523D01*
X98457380Y-142660809D02*
X97457380Y-142660809D01*
X97600238Y-142756047D01*
X97695476Y-142851285D01*
X97743095Y-142946523D01*
X98137380Y-140088904D02*
X97137380Y-140088904D01*
X98137380Y-139517476D02*
X97565952Y-139946047D01*
X97137380Y-139517476D02*
X97708809Y-140088904D01*
%TO.C,D40*%
X79407380Y-144851285D02*
X78407380Y-144851285D01*
X78407380Y-144613190D01*
X78455000Y-144470333D01*
X78550238Y-144375095D01*
X78645476Y-144327476D01*
X78835952Y-144279857D01*
X78978809Y-144279857D01*
X79169285Y-144327476D01*
X79264523Y-144375095D01*
X79359761Y-144470333D01*
X79407380Y-144613190D01*
X79407380Y-144851285D01*
X78740714Y-143422714D02*
X79407380Y-143422714D01*
X78359761Y-143660809D02*
X79074047Y-143898904D01*
X79074047Y-143279857D01*
X78407380Y-142708428D02*
X78407380Y-142613190D01*
X78455000Y-142517952D01*
X78502619Y-142470333D01*
X78597857Y-142422714D01*
X78788333Y-142375095D01*
X79026428Y-142375095D01*
X79216904Y-142422714D01*
X79312142Y-142470333D01*
X79359761Y-142517952D01*
X79407380Y-142613190D01*
X79407380Y-142708428D01*
X79359761Y-142803666D01*
X79312142Y-142851285D01*
X79216904Y-142898904D01*
X79026428Y-142946523D01*
X78788333Y-142946523D01*
X78597857Y-142898904D01*
X78502619Y-142851285D01*
X78455000Y-142803666D01*
X78407380Y-142708428D01*
X79087380Y-140088904D02*
X78087380Y-140088904D01*
X79087380Y-139517476D02*
X78515952Y-139946047D01*
X78087380Y-139517476D02*
X78658809Y-140088904D01*
%TO.C,D39*%
X53372380Y-144851285D02*
X52372380Y-144851285D01*
X52372380Y-144613190D01*
X52420000Y-144470333D01*
X52515238Y-144375095D01*
X52610476Y-144327476D01*
X52800952Y-144279857D01*
X52943809Y-144279857D01*
X53134285Y-144327476D01*
X53229523Y-144375095D01*
X53324761Y-144470333D01*
X53372380Y-144613190D01*
X53372380Y-144851285D01*
X52372380Y-143946523D02*
X52372380Y-143327476D01*
X52753333Y-143660809D01*
X52753333Y-143517952D01*
X52800952Y-143422714D01*
X52848571Y-143375095D01*
X52943809Y-143327476D01*
X53181904Y-143327476D01*
X53277142Y-143375095D01*
X53324761Y-143422714D01*
X53372380Y-143517952D01*
X53372380Y-143803666D01*
X53324761Y-143898904D01*
X53277142Y-143946523D01*
X53372380Y-142851285D02*
X53372380Y-142660809D01*
X53324761Y-142565571D01*
X53277142Y-142517952D01*
X53134285Y-142422714D01*
X52943809Y-142375095D01*
X52562857Y-142375095D01*
X52467619Y-142422714D01*
X52420000Y-142470333D01*
X52372380Y-142565571D01*
X52372380Y-142756047D01*
X52420000Y-142851285D01*
X52467619Y-142898904D01*
X52562857Y-142946523D01*
X52800952Y-142946523D01*
X52896190Y-142898904D01*
X52943809Y-142851285D01*
X52991428Y-142756047D01*
X52991428Y-142565571D01*
X52943809Y-142470333D01*
X52896190Y-142422714D01*
X52800952Y-142375095D01*
X53052380Y-140088904D02*
X52052380Y-140088904D01*
X53052380Y-139517476D02*
X52480952Y-139946047D01*
X52052380Y-139517476D02*
X52623809Y-140088904D01*
%TO.C,D38*%
X379762380Y-125928285D02*
X378762380Y-125928285D01*
X378762380Y-125690190D01*
X378810000Y-125547333D01*
X378905238Y-125452095D01*
X379000476Y-125404476D01*
X379190952Y-125356857D01*
X379333809Y-125356857D01*
X379524285Y-125404476D01*
X379619523Y-125452095D01*
X379714761Y-125547333D01*
X379762380Y-125690190D01*
X379762380Y-125928285D01*
X378762380Y-125023523D02*
X378762380Y-124404476D01*
X379143333Y-124737809D01*
X379143333Y-124594952D01*
X379190952Y-124499714D01*
X379238571Y-124452095D01*
X379333809Y-124404476D01*
X379571904Y-124404476D01*
X379667142Y-124452095D01*
X379714761Y-124499714D01*
X379762380Y-124594952D01*
X379762380Y-124880666D01*
X379714761Y-124975904D01*
X379667142Y-125023523D01*
X379190952Y-123833047D02*
X379143333Y-123928285D01*
X379095714Y-123975904D01*
X379000476Y-124023523D01*
X378952857Y-124023523D01*
X378857619Y-123975904D01*
X378810000Y-123928285D01*
X378762380Y-123833047D01*
X378762380Y-123642571D01*
X378810000Y-123547333D01*
X378857619Y-123499714D01*
X378952857Y-123452095D01*
X379000476Y-123452095D01*
X379095714Y-123499714D01*
X379143333Y-123547333D01*
X379190952Y-123642571D01*
X379190952Y-123833047D01*
X379238571Y-123928285D01*
X379286190Y-123975904D01*
X379381428Y-124023523D01*
X379571904Y-124023523D01*
X379667142Y-123975904D01*
X379714761Y-123928285D01*
X379762380Y-123833047D01*
X379762380Y-123642571D01*
X379714761Y-123547333D01*
X379667142Y-123499714D01*
X379571904Y-123452095D01*
X379381428Y-123452095D01*
X379286190Y-123499714D01*
X379238571Y-123547333D01*
X379190952Y-123642571D01*
X379442380Y-121165904D02*
X378442380Y-121165904D01*
X379442380Y-120594476D02*
X378870952Y-121023047D01*
X378442380Y-120594476D02*
X379013809Y-121165904D01*
%TO.C,D37*%
X360966380Y-125928285D02*
X359966380Y-125928285D01*
X359966380Y-125690190D01*
X360014000Y-125547333D01*
X360109238Y-125452095D01*
X360204476Y-125404476D01*
X360394952Y-125356857D01*
X360537809Y-125356857D01*
X360728285Y-125404476D01*
X360823523Y-125452095D01*
X360918761Y-125547333D01*
X360966380Y-125690190D01*
X360966380Y-125928285D01*
X359966380Y-125023523D02*
X359966380Y-124404476D01*
X360347333Y-124737809D01*
X360347333Y-124594952D01*
X360394952Y-124499714D01*
X360442571Y-124452095D01*
X360537809Y-124404476D01*
X360775904Y-124404476D01*
X360871142Y-124452095D01*
X360918761Y-124499714D01*
X360966380Y-124594952D01*
X360966380Y-124880666D01*
X360918761Y-124975904D01*
X360871142Y-125023523D01*
X359966380Y-124071142D02*
X359966380Y-123404476D01*
X360966380Y-123833047D01*
X360646380Y-121165904D02*
X359646380Y-121165904D01*
X360646380Y-120594476D02*
X360074952Y-121023047D01*
X359646380Y-120594476D02*
X360217809Y-121165904D01*
%TO.C,D36*%
X342043380Y-125928285D02*
X341043380Y-125928285D01*
X341043380Y-125690190D01*
X341091000Y-125547333D01*
X341186238Y-125452095D01*
X341281476Y-125404476D01*
X341471952Y-125356857D01*
X341614809Y-125356857D01*
X341805285Y-125404476D01*
X341900523Y-125452095D01*
X341995761Y-125547333D01*
X342043380Y-125690190D01*
X342043380Y-125928285D01*
X341043380Y-125023523D02*
X341043380Y-124404476D01*
X341424333Y-124737809D01*
X341424333Y-124594952D01*
X341471952Y-124499714D01*
X341519571Y-124452095D01*
X341614809Y-124404476D01*
X341852904Y-124404476D01*
X341948142Y-124452095D01*
X341995761Y-124499714D01*
X342043380Y-124594952D01*
X342043380Y-124880666D01*
X341995761Y-124975904D01*
X341948142Y-125023523D01*
X341043380Y-123547333D02*
X341043380Y-123737809D01*
X341091000Y-123833047D01*
X341138619Y-123880666D01*
X341281476Y-123975904D01*
X341471952Y-124023523D01*
X341852904Y-124023523D01*
X341948142Y-123975904D01*
X341995761Y-123928285D01*
X342043380Y-123833047D01*
X342043380Y-123642571D01*
X341995761Y-123547333D01*
X341948142Y-123499714D01*
X341852904Y-123452095D01*
X341614809Y-123452095D01*
X341519571Y-123499714D01*
X341471952Y-123547333D01*
X341424333Y-123642571D01*
X341424333Y-123833047D01*
X341471952Y-123928285D01*
X341519571Y-123975904D01*
X341614809Y-124023523D01*
X341723380Y-121165904D02*
X340723380Y-121165904D01*
X341723380Y-120594476D02*
X341151952Y-121023047D01*
X340723380Y-120594476D02*
X341294809Y-121165904D01*
%TO.C,D35*%
X322993380Y-125928285D02*
X321993380Y-125928285D01*
X321993380Y-125690190D01*
X322041000Y-125547333D01*
X322136238Y-125452095D01*
X322231476Y-125404476D01*
X322421952Y-125356857D01*
X322564809Y-125356857D01*
X322755285Y-125404476D01*
X322850523Y-125452095D01*
X322945761Y-125547333D01*
X322993380Y-125690190D01*
X322993380Y-125928285D01*
X321993380Y-125023523D02*
X321993380Y-124404476D01*
X322374333Y-124737809D01*
X322374333Y-124594952D01*
X322421952Y-124499714D01*
X322469571Y-124452095D01*
X322564809Y-124404476D01*
X322802904Y-124404476D01*
X322898142Y-124452095D01*
X322945761Y-124499714D01*
X322993380Y-124594952D01*
X322993380Y-124880666D01*
X322945761Y-124975904D01*
X322898142Y-125023523D01*
X321993380Y-123499714D02*
X321993380Y-123975904D01*
X322469571Y-124023523D01*
X322421952Y-123975904D01*
X322374333Y-123880666D01*
X322374333Y-123642571D01*
X322421952Y-123547333D01*
X322469571Y-123499714D01*
X322564809Y-123452095D01*
X322802904Y-123452095D01*
X322898142Y-123499714D01*
X322945761Y-123547333D01*
X322993380Y-123642571D01*
X322993380Y-123880666D01*
X322945761Y-123975904D01*
X322898142Y-124023523D01*
X322673380Y-121165904D02*
X321673380Y-121165904D01*
X322673380Y-120594476D02*
X322101952Y-121023047D01*
X321673380Y-120594476D02*
X322244809Y-121165904D01*
%TO.C,D34*%
X304451380Y-125928285D02*
X303451380Y-125928285D01*
X303451380Y-125690190D01*
X303499000Y-125547333D01*
X303594238Y-125452095D01*
X303689476Y-125404476D01*
X303879952Y-125356857D01*
X304022809Y-125356857D01*
X304213285Y-125404476D01*
X304308523Y-125452095D01*
X304403761Y-125547333D01*
X304451380Y-125690190D01*
X304451380Y-125928285D01*
X303451380Y-125023523D02*
X303451380Y-124404476D01*
X303832333Y-124737809D01*
X303832333Y-124594952D01*
X303879952Y-124499714D01*
X303927571Y-124452095D01*
X304022809Y-124404476D01*
X304260904Y-124404476D01*
X304356142Y-124452095D01*
X304403761Y-124499714D01*
X304451380Y-124594952D01*
X304451380Y-124880666D01*
X304403761Y-124975904D01*
X304356142Y-125023523D01*
X303784714Y-123547333D02*
X304451380Y-123547333D01*
X303403761Y-123785428D02*
X304118047Y-124023523D01*
X304118047Y-123404476D01*
X304131380Y-121165904D02*
X303131380Y-121165904D01*
X304131380Y-120594476D02*
X303559952Y-121023047D01*
X303131380Y-120594476D02*
X303702809Y-121165904D01*
%TO.C,D33*%
X284893380Y-125928285D02*
X283893380Y-125928285D01*
X283893380Y-125690190D01*
X283941000Y-125547333D01*
X284036238Y-125452095D01*
X284131476Y-125404476D01*
X284321952Y-125356857D01*
X284464809Y-125356857D01*
X284655285Y-125404476D01*
X284750523Y-125452095D01*
X284845761Y-125547333D01*
X284893380Y-125690190D01*
X284893380Y-125928285D01*
X283893380Y-125023523D02*
X283893380Y-124404476D01*
X284274333Y-124737809D01*
X284274333Y-124594952D01*
X284321952Y-124499714D01*
X284369571Y-124452095D01*
X284464809Y-124404476D01*
X284702904Y-124404476D01*
X284798142Y-124452095D01*
X284845761Y-124499714D01*
X284893380Y-124594952D01*
X284893380Y-124880666D01*
X284845761Y-124975904D01*
X284798142Y-125023523D01*
X283893380Y-124071142D02*
X283893380Y-123452095D01*
X284274333Y-123785428D01*
X284274333Y-123642571D01*
X284321952Y-123547333D01*
X284369571Y-123499714D01*
X284464809Y-123452095D01*
X284702904Y-123452095D01*
X284798142Y-123499714D01*
X284845761Y-123547333D01*
X284893380Y-123642571D01*
X284893380Y-123928285D01*
X284845761Y-124023523D01*
X284798142Y-124071142D01*
X284573380Y-121165904D02*
X283573380Y-121165904D01*
X284573380Y-120594476D02*
X284001952Y-121023047D01*
X283573380Y-120594476D02*
X284144809Y-121165904D01*
%TO.C,D32*%
X265843380Y-125928285D02*
X264843380Y-125928285D01*
X264843380Y-125690190D01*
X264891000Y-125547333D01*
X264986238Y-125452095D01*
X265081476Y-125404476D01*
X265271952Y-125356857D01*
X265414809Y-125356857D01*
X265605285Y-125404476D01*
X265700523Y-125452095D01*
X265795761Y-125547333D01*
X265843380Y-125690190D01*
X265843380Y-125928285D01*
X264843380Y-125023523D02*
X264843380Y-124404476D01*
X265224333Y-124737809D01*
X265224333Y-124594952D01*
X265271952Y-124499714D01*
X265319571Y-124452095D01*
X265414809Y-124404476D01*
X265652904Y-124404476D01*
X265748142Y-124452095D01*
X265795761Y-124499714D01*
X265843380Y-124594952D01*
X265843380Y-124880666D01*
X265795761Y-124975904D01*
X265748142Y-125023523D01*
X264938619Y-124023523D02*
X264891000Y-123975904D01*
X264843380Y-123880666D01*
X264843380Y-123642571D01*
X264891000Y-123547333D01*
X264938619Y-123499714D01*
X265033857Y-123452095D01*
X265129095Y-123452095D01*
X265271952Y-123499714D01*
X265843380Y-124071142D01*
X265843380Y-123452095D01*
X265523380Y-121165904D02*
X264523380Y-121165904D01*
X265523380Y-120594476D02*
X264951952Y-121023047D01*
X264523380Y-120594476D02*
X265094809Y-121165904D01*
%TO.C,D31*%
X246717180Y-125928285D02*
X245717180Y-125928285D01*
X245717180Y-125690190D01*
X245764800Y-125547333D01*
X245860038Y-125452095D01*
X245955276Y-125404476D01*
X246145752Y-125356857D01*
X246288609Y-125356857D01*
X246479085Y-125404476D01*
X246574323Y-125452095D01*
X246669561Y-125547333D01*
X246717180Y-125690190D01*
X246717180Y-125928285D01*
X245717180Y-125023523D02*
X245717180Y-124404476D01*
X246098133Y-124737809D01*
X246098133Y-124594952D01*
X246145752Y-124499714D01*
X246193371Y-124452095D01*
X246288609Y-124404476D01*
X246526704Y-124404476D01*
X246621942Y-124452095D01*
X246669561Y-124499714D01*
X246717180Y-124594952D01*
X246717180Y-124880666D01*
X246669561Y-124975904D01*
X246621942Y-125023523D01*
X246717180Y-123452095D02*
X246717180Y-124023523D01*
X246717180Y-123737809D02*
X245717180Y-123737809D01*
X245860038Y-123833047D01*
X245955276Y-123928285D01*
X246002895Y-124023523D01*
X246397180Y-121165904D02*
X245397180Y-121165904D01*
X246397180Y-120594476D02*
X245825752Y-121023047D01*
X245397180Y-120594476D02*
X245968609Y-121165904D01*
%TO.C,D30*%
X227514780Y-125928285D02*
X226514780Y-125928285D01*
X226514780Y-125690190D01*
X226562400Y-125547333D01*
X226657638Y-125452095D01*
X226752876Y-125404476D01*
X226943352Y-125356857D01*
X227086209Y-125356857D01*
X227276685Y-125404476D01*
X227371923Y-125452095D01*
X227467161Y-125547333D01*
X227514780Y-125690190D01*
X227514780Y-125928285D01*
X226514780Y-125023523D02*
X226514780Y-124404476D01*
X226895733Y-124737809D01*
X226895733Y-124594952D01*
X226943352Y-124499714D01*
X226990971Y-124452095D01*
X227086209Y-124404476D01*
X227324304Y-124404476D01*
X227419542Y-124452095D01*
X227467161Y-124499714D01*
X227514780Y-124594952D01*
X227514780Y-124880666D01*
X227467161Y-124975904D01*
X227419542Y-125023523D01*
X226514780Y-123785428D02*
X226514780Y-123690190D01*
X226562400Y-123594952D01*
X226610019Y-123547333D01*
X226705257Y-123499714D01*
X226895733Y-123452095D01*
X227133828Y-123452095D01*
X227324304Y-123499714D01*
X227419542Y-123547333D01*
X227467161Y-123594952D01*
X227514780Y-123690190D01*
X227514780Y-123785428D01*
X227467161Y-123880666D01*
X227419542Y-123928285D01*
X227324304Y-123975904D01*
X227133828Y-124023523D01*
X226895733Y-124023523D01*
X226705257Y-123975904D01*
X226610019Y-123928285D01*
X226562400Y-123880666D01*
X226514780Y-123785428D01*
X227194780Y-121165904D02*
X226194780Y-121165904D01*
X227194780Y-120594476D02*
X226623352Y-121023047D01*
X226194780Y-120594476D02*
X226766209Y-121165904D01*
%TO.C,D29*%
X208413980Y-125928285D02*
X207413980Y-125928285D01*
X207413980Y-125690190D01*
X207461600Y-125547333D01*
X207556838Y-125452095D01*
X207652076Y-125404476D01*
X207842552Y-125356857D01*
X207985409Y-125356857D01*
X208175885Y-125404476D01*
X208271123Y-125452095D01*
X208366361Y-125547333D01*
X208413980Y-125690190D01*
X208413980Y-125928285D01*
X207509219Y-124975904D02*
X207461600Y-124928285D01*
X207413980Y-124833047D01*
X207413980Y-124594952D01*
X207461600Y-124499714D01*
X207509219Y-124452095D01*
X207604457Y-124404476D01*
X207699695Y-124404476D01*
X207842552Y-124452095D01*
X208413980Y-125023523D01*
X208413980Y-124404476D01*
X208413980Y-123928285D02*
X208413980Y-123737809D01*
X208366361Y-123642571D01*
X208318742Y-123594952D01*
X208175885Y-123499714D01*
X207985409Y-123452095D01*
X207604457Y-123452095D01*
X207509219Y-123499714D01*
X207461600Y-123547333D01*
X207413980Y-123642571D01*
X207413980Y-123833047D01*
X207461600Y-123928285D01*
X207509219Y-123975904D01*
X207604457Y-124023523D01*
X207842552Y-124023523D01*
X207937790Y-123975904D01*
X207985409Y-123928285D01*
X208033028Y-123833047D01*
X208033028Y-123642571D01*
X207985409Y-123547333D01*
X207937790Y-123499714D01*
X207842552Y-123452095D01*
X208093980Y-121165904D02*
X207093980Y-121165904D01*
X208093980Y-120594476D02*
X207522552Y-121023047D01*
X207093980Y-120594476D02*
X207665409Y-121165904D01*
%TO.C,D28*%
X189313180Y-125928285D02*
X188313180Y-125928285D01*
X188313180Y-125690190D01*
X188360800Y-125547333D01*
X188456038Y-125452095D01*
X188551276Y-125404476D01*
X188741752Y-125356857D01*
X188884609Y-125356857D01*
X189075085Y-125404476D01*
X189170323Y-125452095D01*
X189265561Y-125547333D01*
X189313180Y-125690190D01*
X189313180Y-125928285D01*
X188408419Y-124975904D02*
X188360800Y-124928285D01*
X188313180Y-124833047D01*
X188313180Y-124594952D01*
X188360800Y-124499714D01*
X188408419Y-124452095D01*
X188503657Y-124404476D01*
X188598895Y-124404476D01*
X188741752Y-124452095D01*
X189313180Y-125023523D01*
X189313180Y-124404476D01*
X188741752Y-123833047D02*
X188694133Y-123928285D01*
X188646514Y-123975904D01*
X188551276Y-124023523D01*
X188503657Y-124023523D01*
X188408419Y-123975904D01*
X188360800Y-123928285D01*
X188313180Y-123833047D01*
X188313180Y-123642571D01*
X188360800Y-123547333D01*
X188408419Y-123499714D01*
X188503657Y-123452095D01*
X188551276Y-123452095D01*
X188646514Y-123499714D01*
X188694133Y-123547333D01*
X188741752Y-123642571D01*
X188741752Y-123833047D01*
X188789371Y-123928285D01*
X188836990Y-123975904D01*
X188932228Y-124023523D01*
X189122704Y-124023523D01*
X189217942Y-123975904D01*
X189265561Y-123928285D01*
X189313180Y-123833047D01*
X189313180Y-123642571D01*
X189265561Y-123547333D01*
X189217942Y-123499714D01*
X189122704Y-123452095D01*
X188932228Y-123452095D01*
X188836990Y-123499714D01*
X188789371Y-123547333D01*
X188741752Y-123642571D01*
X188993180Y-121165904D02*
X187993180Y-121165904D01*
X188993180Y-120594476D02*
X188421752Y-121023047D01*
X187993180Y-120594476D02*
X188564609Y-121165904D01*
%TO.C,D27*%
X170161580Y-125928285D02*
X169161580Y-125928285D01*
X169161580Y-125690190D01*
X169209200Y-125547333D01*
X169304438Y-125452095D01*
X169399676Y-125404476D01*
X169590152Y-125356857D01*
X169733009Y-125356857D01*
X169923485Y-125404476D01*
X170018723Y-125452095D01*
X170113961Y-125547333D01*
X170161580Y-125690190D01*
X170161580Y-125928285D01*
X169256819Y-124975904D02*
X169209200Y-124928285D01*
X169161580Y-124833047D01*
X169161580Y-124594952D01*
X169209200Y-124499714D01*
X169256819Y-124452095D01*
X169352057Y-124404476D01*
X169447295Y-124404476D01*
X169590152Y-124452095D01*
X170161580Y-125023523D01*
X170161580Y-124404476D01*
X169161580Y-124071142D02*
X169161580Y-123404476D01*
X170161580Y-123833047D01*
X169841580Y-121165904D02*
X168841580Y-121165904D01*
X169841580Y-120594476D02*
X169270152Y-121023047D01*
X168841580Y-120594476D02*
X169413009Y-121165904D01*
%TO.C,D26*%
X151060780Y-125928285D02*
X150060780Y-125928285D01*
X150060780Y-125690190D01*
X150108400Y-125547333D01*
X150203638Y-125452095D01*
X150298876Y-125404476D01*
X150489352Y-125356857D01*
X150632209Y-125356857D01*
X150822685Y-125404476D01*
X150917923Y-125452095D01*
X151013161Y-125547333D01*
X151060780Y-125690190D01*
X151060780Y-125928285D01*
X150156019Y-124975904D02*
X150108400Y-124928285D01*
X150060780Y-124833047D01*
X150060780Y-124594952D01*
X150108400Y-124499714D01*
X150156019Y-124452095D01*
X150251257Y-124404476D01*
X150346495Y-124404476D01*
X150489352Y-124452095D01*
X151060780Y-125023523D01*
X151060780Y-124404476D01*
X150060780Y-123547333D02*
X150060780Y-123737809D01*
X150108400Y-123833047D01*
X150156019Y-123880666D01*
X150298876Y-123975904D01*
X150489352Y-124023523D01*
X150870304Y-124023523D01*
X150965542Y-123975904D01*
X151013161Y-123928285D01*
X151060780Y-123833047D01*
X151060780Y-123642571D01*
X151013161Y-123547333D01*
X150965542Y-123499714D01*
X150870304Y-123452095D01*
X150632209Y-123452095D01*
X150536971Y-123499714D01*
X150489352Y-123547333D01*
X150441733Y-123642571D01*
X150441733Y-123833047D01*
X150489352Y-123928285D01*
X150536971Y-123975904D01*
X150632209Y-124023523D01*
X150740780Y-121165904D02*
X149740780Y-121165904D01*
X150740780Y-120594476D02*
X150169352Y-121023047D01*
X149740780Y-120594476D02*
X150312209Y-121165904D01*
%TO.C,D25*%
X131909180Y-125928285D02*
X130909180Y-125928285D01*
X130909180Y-125690190D01*
X130956800Y-125547333D01*
X131052038Y-125452095D01*
X131147276Y-125404476D01*
X131337752Y-125356857D01*
X131480609Y-125356857D01*
X131671085Y-125404476D01*
X131766323Y-125452095D01*
X131861561Y-125547333D01*
X131909180Y-125690190D01*
X131909180Y-125928285D01*
X131004419Y-124975904D02*
X130956800Y-124928285D01*
X130909180Y-124833047D01*
X130909180Y-124594952D01*
X130956800Y-124499714D01*
X131004419Y-124452095D01*
X131099657Y-124404476D01*
X131194895Y-124404476D01*
X131337752Y-124452095D01*
X131909180Y-125023523D01*
X131909180Y-124404476D01*
X130909180Y-123499714D02*
X130909180Y-123975904D01*
X131385371Y-124023523D01*
X131337752Y-123975904D01*
X131290133Y-123880666D01*
X131290133Y-123642571D01*
X131337752Y-123547333D01*
X131385371Y-123499714D01*
X131480609Y-123452095D01*
X131718704Y-123452095D01*
X131813942Y-123499714D01*
X131861561Y-123547333D01*
X131909180Y-123642571D01*
X131909180Y-123880666D01*
X131861561Y-123975904D01*
X131813942Y-124023523D01*
X131589180Y-121165904D02*
X130589180Y-121165904D01*
X131589180Y-120594476D02*
X131017752Y-121023047D01*
X130589180Y-120594476D02*
X131160609Y-121165904D01*
%TO.C,D24*%
X112757580Y-125928285D02*
X111757580Y-125928285D01*
X111757580Y-125690190D01*
X111805200Y-125547333D01*
X111900438Y-125452095D01*
X111995676Y-125404476D01*
X112186152Y-125356857D01*
X112329009Y-125356857D01*
X112519485Y-125404476D01*
X112614723Y-125452095D01*
X112709961Y-125547333D01*
X112757580Y-125690190D01*
X112757580Y-125928285D01*
X111852819Y-124975904D02*
X111805200Y-124928285D01*
X111757580Y-124833047D01*
X111757580Y-124594952D01*
X111805200Y-124499714D01*
X111852819Y-124452095D01*
X111948057Y-124404476D01*
X112043295Y-124404476D01*
X112186152Y-124452095D01*
X112757580Y-125023523D01*
X112757580Y-124404476D01*
X112090914Y-123547333D02*
X112757580Y-123547333D01*
X111709961Y-123785428D02*
X112424247Y-124023523D01*
X112424247Y-123404476D01*
X112437580Y-121165904D02*
X111437580Y-121165904D01*
X112437580Y-120594476D02*
X111866152Y-121023047D01*
X111437580Y-120594476D02*
X112009009Y-121165904D01*
%TO.C,D23*%
X93707580Y-125928285D02*
X92707580Y-125928285D01*
X92707580Y-125690190D01*
X92755200Y-125547333D01*
X92850438Y-125452095D01*
X92945676Y-125404476D01*
X93136152Y-125356857D01*
X93279009Y-125356857D01*
X93469485Y-125404476D01*
X93564723Y-125452095D01*
X93659961Y-125547333D01*
X93707580Y-125690190D01*
X93707580Y-125928285D01*
X92802819Y-124975904D02*
X92755200Y-124928285D01*
X92707580Y-124833047D01*
X92707580Y-124594952D01*
X92755200Y-124499714D01*
X92802819Y-124452095D01*
X92898057Y-124404476D01*
X92993295Y-124404476D01*
X93136152Y-124452095D01*
X93707580Y-125023523D01*
X93707580Y-124404476D01*
X92707580Y-124071142D02*
X92707580Y-123452095D01*
X93088533Y-123785428D01*
X93088533Y-123642571D01*
X93136152Y-123547333D01*
X93183771Y-123499714D01*
X93279009Y-123452095D01*
X93517104Y-123452095D01*
X93612342Y-123499714D01*
X93659961Y-123547333D01*
X93707580Y-123642571D01*
X93707580Y-123928285D01*
X93659961Y-124023523D01*
X93612342Y-124071142D01*
X93387580Y-121165904D02*
X92387580Y-121165904D01*
X93387580Y-120594476D02*
X92816152Y-121023047D01*
X92387580Y-120594476D02*
X92959009Y-121165904D01*
%TO.C,D22*%
X74809980Y-125928285D02*
X73809980Y-125928285D01*
X73809980Y-125690190D01*
X73857600Y-125547333D01*
X73952838Y-125452095D01*
X74048076Y-125404476D01*
X74238552Y-125356857D01*
X74381409Y-125356857D01*
X74571885Y-125404476D01*
X74667123Y-125452095D01*
X74762361Y-125547333D01*
X74809980Y-125690190D01*
X74809980Y-125928285D01*
X73905219Y-124975904D02*
X73857600Y-124928285D01*
X73809980Y-124833047D01*
X73809980Y-124594952D01*
X73857600Y-124499714D01*
X73905219Y-124452095D01*
X74000457Y-124404476D01*
X74095695Y-124404476D01*
X74238552Y-124452095D01*
X74809980Y-125023523D01*
X74809980Y-124404476D01*
X73905219Y-124023523D02*
X73857600Y-123975904D01*
X73809980Y-123880666D01*
X73809980Y-123642571D01*
X73857600Y-123547333D01*
X73905219Y-123499714D01*
X74000457Y-123452095D01*
X74095695Y-123452095D01*
X74238552Y-123499714D01*
X74809980Y-124071142D01*
X74809980Y-123452095D01*
X74489980Y-121165904D02*
X73489980Y-121165904D01*
X74489980Y-120594476D02*
X73918552Y-121023047D01*
X73489980Y-120594476D02*
X74061409Y-121165904D01*
%TO.C,D21*%
X51086380Y-125928285D02*
X50086380Y-125928285D01*
X50086380Y-125690190D01*
X50134000Y-125547333D01*
X50229238Y-125452095D01*
X50324476Y-125404476D01*
X50514952Y-125356857D01*
X50657809Y-125356857D01*
X50848285Y-125404476D01*
X50943523Y-125452095D01*
X51038761Y-125547333D01*
X51086380Y-125690190D01*
X51086380Y-125928285D01*
X50181619Y-124975904D02*
X50134000Y-124928285D01*
X50086380Y-124833047D01*
X50086380Y-124594952D01*
X50134000Y-124499714D01*
X50181619Y-124452095D01*
X50276857Y-124404476D01*
X50372095Y-124404476D01*
X50514952Y-124452095D01*
X51086380Y-125023523D01*
X51086380Y-124404476D01*
X51086380Y-123452095D02*
X51086380Y-124023523D01*
X51086380Y-123737809D02*
X50086380Y-123737809D01*
X50229238Y-123833047D01*
X50324476Y-123928285D01*
X50372095Y-124023523D01*
X50766380Y-121165904D02*
X49766380Y-121165904D01*
X50766380Y-120594476D02*
X50194952Y-121023047D01*
X49766380Y-120594476D02*
X50337809Y-121165904D01*
%TO.C,D20*%
X375649380Y-109418285D02*
X374649380Y-109418285D01*
X374649380Y-109180190D01*
X374697000Y-109037333D01*
X374792238Y-108942095D01*
X374887476Y-108894476D01*
X375077952Y-108846857D01*
X375220809Y-108846857D01*
X375411285Y-108894476D01*
X375506523Y-108942095D01*
X375601761Y-109037333D01*
X375649380Y-109180190D01*
X375649380Y-109418285D01*
X374744619Y-108465904D02*
X374697000Y-108418285D01*
X374649380Y-108323047D01*
X374649380Y-108084952D01*
X374697000Y-107989714D01*
X374744619Y-107942095D01*
X374839857Y-107894476D01*
X374935095Y-107894476D01*
X375077952Y-107942095D01*
X375649380Y-108513523D01*
X375649380Y-107894476D01*
X374649380Y-107275428D02*
X374649380Y-107180190D01*
X374697000Y-107084952D01*
X374744619Y-107037333D01*
X374839857Y-106989714D01*
X375030333Y-106942095D01*
X375268428Y-106942095D01*
X375458904Y-106989714D01*
X375554142Y-107037333D01*
X375601761Y-107084952D01*
X375649380Y-107180190D01*
X375649380Y-107275428D01*
X375601761Y-107370666D01*
X375554142Y-107418285D01*
X375458904Y-107465904D01*
X375268428Y-107513523D01*
X375030333Y-107513523D01*
X374839857Y-107465904D01*
X374744619Y-107418285D01*
X374697000Y-107370666D01*
X374649380Y-107275428D01*
X375969380Y-112275904D02*
X374969380Y-112275904D01*
X375969380Y-111704476D02*
X375397952Y-112133047D01*
X374969380Y-111704476D02*
X375540809Y-112275904D01*
%TO.C,D19*%
X356726380Y-109418285D02*
X355726380Y-109418285D01*
X355726380Y-109180190D01*
X355774000Y-109037333D01*
X355869238Y-108942095D01*
X355964476Y-108894476D01*
X356154952Y-108846857D01*
X356297809Y-108846857D01*
X356488285Y-108894476D01*
X356583523Y-108942095D01*
X356678761Y-109037333D01*
X356726380Y-109180190D01*
X356726380Y-109418285D01*
X356726380Y-107894476D02*
X356726380Y-108465904D01*
X356726380Y-108180190D02*
X355726380Y-108180190D01*
X355869238Y-108275428D01*
X355964476Y-108370666D01*
X356012095Y-108465904D01*
X356726380Y-107418285D02*
X356726380Y-107227809D01*
X356678761Y-107132571D01*
X356631142Y-107084952D01*
X356488285Y-106989714D01*
X356297809Y-106942095D01*
X355916857Y-106942095D01*
X355821619Y-106989714D01*
X355774000Y-107037333D01*
X355726380Y-107132571D01*
X355726380Y-107323047D01*
X355774000Y-107418285D01*
X355821619Y-107465904D01*
X355916857Y-107513523D01*
X356154952Y-107513523D01*
X356250190Y-107465904D01*
X356297809Y-107418285D01*
X356345428Y-107323047D01*
X356345428Y-107132571D01*
X356297809Y-107037333D01*
X356250190Y-106989714D01*
X356154952Y-106942095D01*
X357046380Y-112275904D02*
X356046380Y-112275904D01*
X357046380Y-111704476D02*
X356474952Y-112133047D01*
X356046380Y-111704476D02*
X356617809Y-112275904D01*
%TO.C,D17*%
X318372380Y-109418285D02*
X317372380Y-109418285D01*
X317372380Y-109180190D01*
X317420000Y-109037333D01*
X317515238Y-108942095D01*
X317610476Y-108894476D01*
X317800952Y-108846857D01*
X317943809Y-108846857D01*
X318134285Y-108894476D01*
X318229523Y-108942095D01*
X318324761Y-109037333D01*
X318372380Y-109180190D01*
X318372380Y-109418285D01*
X318372380Y-107894476D02*
X318372380Y-108465904D01*
X318372380Y-108180190D02*
X317372380Y-108180190D01*
X317515238Y-108275428D01*
X317610476Y-108370666D01*
X317658095Y-108465904D01*
X317372380Y-107561142D02*
X317372380Y-106894476D01*
X318372380Y-107323047D01*
X318692380Y-112275904D02*
X317692380Y-112275904D01*
X318692380Y-111704476D02*
X318120952Y-112133047D01*
X317692380Y-111704476D02*
X318263809Y-112275904D01*
%TO.C,D16*%
X296274380Y-109418285D02*
X295274380Y-109418285D01*
X295274380Y-109180190D01*
X295322000Y-109037333D01*
X295417238Y-108942095D01*
X295512476Y-108894476D01*
X295702952Y-108846857D01*
X295845809Y-108846857D01*
X296036285Y-108894476D01*
X296131523Y-108942095D01*
X296226761Y-109037333D01*
X296274380Y-109180190D01*
X296274380Y-109418285D01*
X296274380Y-107894476D02*
X296274380Y-108465904D01*
X296274380Y-108180190D02*
X295274380Y-108180190D01*
X295417238Y-108275428D01*
X295512476Y-108370666D01*
X295560095Y-108465904D01*
X295274380Y-107037333D02*
X295274380Y-107227809D01*
X295322000Y-107323047D01*
X295369619Y-107370666D01*
X295512476Y-107465904D01*
X295702952Y-107513523D01*
X296083904Y-107513523D01*
X296179142Y-107465904D01*
X296226761Y-107418285D01*
X296274380Y-107323047D01*
X296274380Y-107132571D01*
X296226761Y-107037333D01*
X296179142Y-106989714D01*
X296083904Y-106942095D01*
X295845809Y-106942095D01*
X295750571Y-106989714D01*
X295702952Y-107037333D01*
X295655333Y-107132571D01*
X295655333Y-107323047D01*
X295702952Y-107418285D01*
X295750571Y-107465904D01*
X295845809Y-107513523D01*
X296594380Y-112275904D02*
X295594380Y-112275904D01*
X296594380Y-111704476D02*
X296022952Y-112133047D01*
X295594380Y-111704476D02*
X296165809Y-112275904D01*
%TO.C,D15*%
X272144380Y-109418285D02*
X271144380Y-109418285D01*
X271144380Y-109180190D01*
X271192000Y-109037333D01*
X271287238Y-108942095D01*
X271382476Y-108894476D01*
X271572952Y-108846857D01*
X271715809Y-108846857D01*
X271906285Y-108894476D01*
X272001523Y-108942095D01*
X272096761Y-109037333D01*
X272144380Y-109180190D01*
X272144380Y-109418285D01*
X272144380Y-107894476D02*
X272144380Y-108465904D01*
X272144380Y-108180190D02*
X271144380Y-108180190D01*
X271287238Y-108275428D01*
X271382476Y-108370666D01*
X271430095Y-108465904D01*
X271144380Y-106989714D02*
X271144380Y-107465904D01*
X271620571Y-107513523D01*
X271572952Y-107465904D01*
X271525333Y-107370666D01*
X271525333Y-107132571D01*
X271572952Y-107037333D01*
X271620571Y-106989714D01*
X271715809Y-106942095D01*
X271953904Y-106942095D01*
X272049142Y-106989714D01*
X272096761Y-107037333D01*
X272144380Y-107132571D01*
X272144380Y-107370666D01*
X272096761Y-107465904D01*
X272049142Y-107513523D01*
X272464380Y-112275904D02*
X271464380Y-112275904D01*
X272464380Y-111704476D02*
X271892952Y-112133047D01*
X271464380Y-111704476D02*
X272035809Y-112275904D01*
%TO.C,D14*%
X252078380Y-109418285D02*
X251078380Y-109418285D01*
X251078380Y-109180190D01*
X251126000Y-109037333D01*
X251221238Y-108942095D01*
X251316476Y-108894476D01*
X251506952Y-108846857D01*
X251649809Y-108846857D01*
X251840285Y-108894476D01*
X251935523Y-108942095D01*
X252030761Y-109037333D01*
X252078380Y-109180190D01*
X252078380Y-109418285D01*
X252078380Y-107894476D02*
X252078380Y-108465904D01*
X252078380Y-108180190D02*
X251078380Y-108180190D01*
X251221238Y-108275428D01*
X251316476Y-108370666D01*
X251364095Y-108465904D01*
X251411714Y-107037333D02*
X252078380Y-107037333D01*
X251030761Y-107275428D02*
X251745047Y-107513523D01*
X251745047Y-106894476D01*
X252398380Y-112275904D02*
X251398380Y-112275904D01*
X252398380Y-111704476D02*
X251826952Y-112133047D01*
X251398380Y-111704476D02*
X251969809Y-112275904D01*
%TO.C,D13*%
X232901380Y-109418285D02*
X231901380Y-109418285D01*
X231901380Y-109180190D01*
X231949000Y-109037333D01*
X232044238Y-108942095D01*
X232139476Y-108894476D01*
X232329952Y-108846857D01*
X232472809Y-108846857D01*
X232663285Y-108894476D01*
X232758523Y-108942095D01*
X232853761Y-109037333D01*
X232901380Y-109180190D01*
X232901380Y-109418285D01*
X232901380Y-107894476D02*
X232901380Y-108465904D01*
X232901380Y-108180190D02*
X231901380Y-108180190D01*
X232044238Y-108275428D01*
X232139476Y-108370666D01*
X232187095Y-108465904D01*
X231901380Y-107561142D02*
X231901380Y-106942095D01*
X232282333Y-107275428D01*
X232282333Y-107132571D01*
X232329952Y-107037333D01*
X232377571Y-106989714D01*
X232472809Y-106942095D01*
X232710904Y-106942095D01*
X232806142Y-106989714D01*
X232853761Y-107037333D01*
X232901380Y-107132571D01*
X232901380Y-107418285D01*
X232853761Y-107513523D01*
X232806142Y-107561142D01*
X233221380Y-112275904D02*
X232221380Y-112275904D01*
X233221380Y-111704476D02*
X232649952Y-112133047D01*
X232221380Y-111704476D02*
X232792809Y-112275904D01*
%TO.C,D12*%
X213724380Y-109418285D02*
X212724380Y-109418285D01*
X212724380Y-109180190D01*
X212772000Y-109037333D01*
X212867238Y-108942095D01*
X212962476Y-108894476D01*
X213152952Y-108846857D01*
X213295809Y-108846857D01*
X213486285Y-108894476D01*
X213581523Y-108942095D01*
X213676761Y-109037333D01*
X213724380Y-109180190D01*
X213724380Y-109418285D01*
X213724380Y-107894476D02*
X213724380Y-108465904D01*
X213724380Y-108180190D02*
X212724380Y-108180190D01*
X212867238Y-108275428D01*
X212962476Y-108370666D01*
X213010095Y-108465904D01*
X212819619Y-107513523D02*
X212772000Y-107465904D01*
X212724380Y-107370666D01*
X212724380Y-107132571D01*
X212772000Y-107037333D01*
X212819619Y-106989714D01*
X212914857Y-106942095D01*
X213010095Y-106942095D01*
X213152952Y-106989714D01*
X213724380Y-107561142D01*
X213724380Y-106942095D01*
X214044380Y-112275904D02*
X213044380Y-112275904D01*
X214044380Y-111704476D02*
X213472952Y-112133047D01*
X213044380Y-111704476D02*
X213615809Y-112275904D01*
%TO.C,D11*%
X194674380Y-109418285D02*
X193674380Y-109418285D01*
X193674380Y-109180190D01*
X193722000Y-109037333D01*
X193817238Y-108942095D01*
X193912476Y-108894476D01*
X194102952Y-108846857D01*
X194245809Y-108846857D01*
X194436285Y-108894476D01*
X194531523Y-108942095D01*
X194626761Y-109037333D01*
X194674380Y-109180190D01*
X194674380Y-109418285D01*
X194674380Y-107894476D02*
X194674380Y-108465904D01*
X194674380Y-108180190D02*
X193674380Y-108180190D01*
X193817238Y-108275428D01*
X193912476Y-108370666D01*
X193960095Y-108465904D01*
X194674380Y-106942095D02*
X194674380Y-107513523D01*
X194674380Y-107227809D02*
X193674380Y-107227809D01*
X193817238Y-107323047D01*
X193912476Y-107418285D01*
X193960095Y-107513523D01*
X194994380Y-112275904D02*
X193994380Y-112275904D01*
X194994380Y-111704476D02*
X194422952Y-112133047D01*
X193994380Y-111704476D02*
X194565809Y-112275904D01*
%TO.C,D10*%
X175497380Y-109418285D02*
X174497380Y-109418285D01*
X174497380Y-109180190D01*
X174545000Y-109037333D01*
X174640238Y-108942095D01*
X174735476Y-108894476D01*
X174925952Y-108846857D01*
X175068809Y-108846857D01*
X175259285Y-108894476D01*
X175354523Y-108942095D01*
X175449761Y-109037333D01*
X175497380Y-109180190D01*
X175497380Y-109418285D01*
X175497380Y-107894476D02*
X175497380Y-108465904D01*
X175497380Y-108180190D02*
X174497380Y-108180190D01*
X174640238Y-108275428D01*
X174735476Y-108370666D01*
X174783095Y-108465904D01*
X174497380Y-107275428D02*
X174497380Y-107180190D01*
X174545000Y-107084952D01*
X174592619Y-107037333D01*
X174687857Y-106989714D01*
X174878333Y-106942095D01*
X175116428Y-106942095D01*
X175306904Y-106989714D01*
X175402142Y-107037333D01*
X175449761Y-107084952D01*
X175497380Y-107180190D01*
X175497380Y-107275428D01*
X175449761Y-107370666D01*
X175402142Y-107418285D01*
X175306904Y-107465904D01*
X175116428Y-107513523D01*
X174878333Y-107513523D01*
X174687857Y-107465904D01*
X174592619Y-107418285D01*
X174545000Y-107370666D01*
X174497380Y-107275428D01*
X175817380Y-112275904D02*
X174817380Y-112275904D01*
X175817380Y-111704476D02*
X175245952Y-112133047D01*
X174817380Y-111704476D02*
X175388809Y-112275904D01*
%TO.C,D9*%
X156320380Y-108942095D02*
X155320380Y-108942095D01*
X155320380Y-108704000D01*
X155368000Y-108561142D01*
X155463238Y-108465904D01*
X155558476Y-108418285D01*
X155748952Y-108370666D01*
X155891809Y-108370666D01*
X156082285Y-108418285D01*
X156177523Y-108465904D01*
X156272761Y-108561142D01*
X156320380Y-108704000D01*
X156320380Y-108942095D01*
X156320380Y-107894476D02*
X156320380Y-107704000D01*
X156272761Y-107608761D01*
X156225142Y-107561142D01*
X156082285Y-107465904D01*
X155891809Y-107418285D01*
X155510857Y-107418285D01*
X155415619Y-107465904D01*
X155368000Y-107513523D01*
X155320380Y-107608761D01*
X155320380Y-107799238D01*
X155368000Y-107894476D01*
X155415619Y-107942095D01*
X155510857Y-107989714D01*
X155748952Y-107989714D01*
X155844190Y-107942095D01*
X155891809Y-107894476D01*
X155939428Y-107799238D01*
X155939428Y-107608761D01*
X155891809Y-107513523D01*
X155844190Y-107465904D01*
X155748952Y-107418285D01*
X156640380Y-112275904D02*
X155640380Y-112275904D01*
X156640380Y-111704476D02*
X156068952Y-112133047D01*
X155640380Y-111704476D02*
X156211809Y-112275904D01*
%TO.C,D8*%
X137143380Y-108942095D02*
X136143380Y-108942095D01*
X136143380Y-108704000D01*
X136191000Y-108561142D01*
X136286238Y-108465904D01*
X136381476Y-108418285D01*
X136571952Y-108370666D01*
X136714809Y-108370666D01*
X136905285Y-108418285D01*
X137000523Y-108465904D01*
X137095761Y-108561142D01*
X137143380Y-108704000D01*
X137143380Y-108942095D01*
X136571952Y-107799238D02*
X136524333Y-107894476D01*
X136476714Y-107942095D01*
X136381476Y-107989714D01*
X136333857Y-107989714D01*
X136238619Y-107942095D01*
X136191000Y-107894476D01*
X136143380Y-107799238D01*
X136143380Y-107608761D01*
X136191000Y-107513523D01*
X136238619Y-107465904D01*
X136333857Y-107418285D01*
X136381476Y-107418285D01*
X136476714Y-107465904D01*
X136524333Y-107513523D01*
X136571952Y-107608761D01*
X136571952Y-107799238D01*
X136619571Y-107894476D01*
X136667190Y-107942095D01*
X136762428Y-107989714D01*
X136952904Y-107989714D01*
X137048142Y-107942095D01*
X137095761Y-107894476D01*
X137143380Y-107799238D01*
X137143380Y-107608761D01*
X137095761Y-107513523D01*
X137048142Y-107465904D01*
X136952904Y-107418285D01*
X136762428Y-107418285D01*
X136667190Y-107465904D01*
X136619571Y-107513523D01*
X136571952Y-107608761D01*
X137463380Y-112275904D02*
X136463380Y-112275904D01*
X137463380Y-111704476D02*
X136891952Y-112133047D01*
X136463380Y-111704476D02*
X137034809Y-112275904D01*
%TO.C,D7*%
X118093380Y-108942095D02*
X117093380Y-108942095D01*
X117093380Y-108704000D01*
X117141000Y-108561142D01*
X117236238Y-108465904D01*
X117331476Y-108418285D01*
X117521952Y-108370666D01*
X117664809Y-108370666D01*
X117855285Y-108418285D01*
X117950523Y-108465904D01*
X118045761Y-108561142D01*
X118093380Y-108704000D01*
X118093380Y-108942095D01*
X117093380Y-108037333D02*
X117093380Y-107370666D01*
X118093380Y-107799238D01*
X118413380Y-112275904D02*
X117413380Y-112275904D01*
X118413380Y-111704476D02*
X117841952Y-112133047D01*
X117413380Y-111704476D02*
X117984809Y-112275904D01*
%TO.C,D6*%
X99043380Y-108942095D02*
X98043380Y-108942095D01*
X98043380Y-108704000D01*
X98091000Y-108561142D01*
X98186238Y-108465904D01*
X98281476Y-108418285D01*
X98471952Y-108370666D01*
X98614809Y-108370666D01*
X98805285Y-108418285D01*
X98900523Y-108465904D01*
X98995761Y-108561142D01*
X99043380Y-108704000D01*
X99043380Y-108942095D01*
X98043380Y-107513523D02*
X98043380Y-107704000D01*
X98091000Y-107799238D01*
X98138619Y-107846857D01*
X98281476Y-107942095D01*
X98471952Y-107989714D01*
X98852904Y-107989714D01*
X98948142Y-107942095D01*
X98995761Y-107894476D01*
X99043380Y-107799238D01*
X99043380Y-107608761D01*
X98995761Y-107513523D01*
X98948142Y-107465904D01*
X98852904Y-107418285D01*
X98614809Y-107418285D01*
X98519571Y-107465904D01*
X98471952Y-107513523D01*
X98424333Y-107608761D01*
X98424333Y-107799238D01*
X98471952Y-107894476D01*
X98519571Y-107942095D01*
X98614809Y-107989714D01*
X99363380Y-112275904D02*
X98363380Y-112275904D01*
X99363380Y-111704476D02*
X98791952Y-112133047D01*
X98363380Y-111704476D02*
X98934809Y-112275904D01*
%TO.C,D5*%
X79993380Y-108942095D02*
X78993380Y-108942095D01*
X78993380Y-108704000D01*
X79041000Y-108561142D01*
X79136238Y-108465904D01*
X79231476Y-108418285D01*
X79421952Y-108370666D01*
X79564809Y-108370666D01*
X79755285Y-108418285D01*
X79850523Y-108465904D01*
X79945761Y-108561142D01*
X79993380Y-108704000D01*
X79993380Y-108942095D01*
X78993380Y-107465904D02*
X78993380Y-107942095D01*
X79469571Y-107989714D01*
X79421952Y-107942095D01*
X79374333Y-107846857D01*
X79374333Y-107608761D01*
X79421952Y-107513523D01*
X79469571Y-107465904D01*
X79564809Y-107418285D01*
X79802904Y-107418285D01*
X79898142Y-107465904D01*
X79945761Y-107513523D01*
X79993380Y-107608761D01*
X79993380Y-107846857D01*
X79945761Y-107942095D01*
X79898142Y-107989714D01*
X80313380Y-112275904D02*
X79313380Y-112275904D01*
X80313380Y-111704476D02*
X79741952Y-112133047D01*
X79313380Y-111704476D02*
X79884809Y-112275904D01*
%TO.C,D4*%
X61197380Y-108942095D02*
X60197380Y-108942095D01*
X60197380Y-108704000D01*
X60245000Y-108561142D01*
X60340238Y-108465904D01*
X60435476Y-108418285D01*
X60625952Y-108370666D01*
X60768809Y-108370666D01*
X60959285Y-108418285D01*
X61054523Y-108465904D01*
X61149761Y-108561142D01*
X61197380Y-108704000D01*
X61197380Y-108942095D01*
X60530714Y-107513523D02*
X61197380Y-107513523D01*
X60149761Y-107751619D02*
X60864047Y-107989714D01*
X60864047Y-107370666D01*
X61517380Y-112275904D02*
X60517380Y-112275904D01*
X61517380Y-111704476D02*
X60945952Y-112133047D01*
X60517380Y-111704476D02*
X61088809Y-112275904D01*
%TO.C,C3*%
X270668133Y-76267142D02*
X270620514Y-76314761D01*
X270477657Y-76362380D01*
X270382419Y-76362380D01*
X270239561Y-76314761D01*
X270144323Y-76219523D01*
X270096704Y-76124285D01*
X270049085Y-75933809D01*
X270049085Y-75790952D01*
X270096704Y-75600476D01*
X270144323Y-75505238D01*
X270239561Y-75410000D01*
X270382419Y-75362380D01*
X270477657Y-75362380D01*
X270620514Y-75410000D01*
X270668133Y-75457619D01*
X271001466Y-75362380D02*
X271620514Y-75362380D01*
X271287180Y-75743333D01*
X271430038Y-75743333D01*
X271525276Y-75790952D01*
X271572895Y-75838571D01*
X271620514Y-75933809D01*
X271620514Y-76171904D01*
X271572895Y-76267142D01*
X271525276Y-76314761D01*
X271430038Y-76362380D01*
X271144323Y-76362380D01*
X271049085Y-76314761D01*
X271001466Y-76267142D01*
%TO.C,C2*%
X272300142Y-96666666D02*
X272347761Y-96714285D01*
X272395380Y-96857142D01*
X272395380Y-96952380D01*
X272347761Y-97095238D01*
X272252523Y-97190476D01*
X272157285Y-97238095D01*
X271966809Y-97285714D01*
X271823952Y-97285714D01*
X271633476Y-97238095D01*
X271538238Y-97190476D01*
X271443000Y-97095238D01*
X271395380Y-96952380D01*
X271395380Y-96857142D01*
X271443000Y-96714285D01*
X271490619Y-96666666D01*
X271490619Y-96285714D02*
X271443000Y-96238095D01*
X271395380Y-96142857D01*
X271395380Y-95904761D01*
X271443000Y-95809523D01*
X271490619Y-95761904D01*
X271585857Y-95714285D01*
X271681095Y-95714285D01*
X271823952Y-95761904D01*
X272395380Y-96333333D01*
X272395380Y-95714285D01*
%TO.C,Boot1*%
X170691761Y-81494571D02*
X170834619Y-81542190D01*
X170882238Y-81589809D01*
X170929857Y-81685047D01*
X170929857Y-81827904D01*
X170882238Y-81923142D01*
X170834619Y-81970761D01*
X170739380Y-82018380D01*
X170358428Y-82018380D01*
X170358428Y-81018380D01*
X170691761Y-81018380D01*
X170787000Y-81066000D01*
X170834619Y-81113619D01*
X170882238Y-81208857D01*
X170882238Y-81304095D01*
X170834619Y-81399333D01*
X170787000Y-81446952D01*
X170691761Y-81494571D01*
X170358428Y-81494571D01*
X171501285Y-82018380D02*
X171406047Y-81970761D01*
X171358428Y-81923142D01*
X171310809Y-81827904D01*
X171310809Y-81542190D01*
X171358428Y-81446952D01*
X171406047Y-81399333D01*
X171501285Y-81351714D01*
X171644142Y-81351714D01*
X171739380Y-81399333D01*
X171787000Y-81446952D01*
X171834619Y-81542190D01*
X171834619Y-81827904D01*
X171787000Y-81923142D01*
X171739380Y-81970761D01*
X171644142Y-82018380D01*
X171501285Y-82018380D01*
X172406047Y-82018380D02*
X172310809Y-81970761D01*
X172263190Y-81923142D01*
X172215571Y-81827904D01*
X172215571Y-81542190D01*
X172263190Y-81446952D01*
X172310809Y-81399333D01*
X172406047Y-81351714D01*
X172548904Y-81351714D01*
X172644142Y-81399333D01*
X172691761Y-81446952D01*
X172739380Y-81542190D01*
X172739380Y-81827904D01*
X172691761Y-81923142D01*
X172644142Y-81970761D01*
X172548904Y-82018380D01*
X172406047Y-82018380D01*
X173025095Y-81351714D02*
X173406047Y-81351714D01*
X173167952Y-81018380D02*
X173167952Y-81875523D01*
X173215571Y-81970761D01*
X173310809Y-82018380D01*
X173406047Y-82018380D01*
X174263190Y-82018380D02*
X173691761Y-82018380D01*
X173977476Y-82018380D02*
X173977476Y-81018380D01*
X173882238Y-81161238D01*
X173787000Y-81256476D01*
X173691761Y-81304095D01*
%TD*%
%LPC*%
D13*
%TO.C,J3*%
X69723000Y-87153000D03*
X69723000Y-85153000D03*
X69723000Y-83153000D03*
G36*
G01*
X69068832Y-80503000D02*
X70377168Y-80503000D01*
G75*
G02*
X70648000Y-80773832I0J-270832D01*
G01*
X70648000Y-81532168D01*
G75*
G02*
X70377168Y-81803000I-270832J0D01*
G01*
X69068832Y-81803000D01*
G75*
G02*
X68798000Y-81532168I0J270832D01*
G01*
X68798000Y-80773832D01*
G75*
G02*
X69068832Y-80503000I270832J0D01*
G01*
G37*
%TD*%
D14*
%TO.C,U1*%
X294944800Y-91744800D03*
X246684800Y-76504800D03*
X292404800Y-91744800D03*
X249224800Y-76504800D03*
X289864800Y-91744800D03*
X251764800Y-76504800D03*
X287324800Y-91744800D03*
X254304800Y-76504800D03*
X284784800Y-91744800D03*
X256844800Y-76504800D03*
X282244800Y-91744800D03*
X259384800Y-76504800D03*
X279704800Y-91744800D03*
X261924800Y-76504800D03*
X277164800Y-91744800D03*
X264464800Y-76504800D03*
X274624800Y-91744800D03*
X267004800Y-76504800D03*
X272084800Y-91744800D03*
X269544800Y-76504800D03*
X269544800Y-91744800D03*
X272084800Y-76504800D03*
X267004800Y-91744800D03*
X274624800Y-76504800D03*
X264464800Y-91744800D03*
X277164800Y-76504800D03*
X261924800Y-91744800D03*
X279704800Y-76504800D03*
X259384800Y-91744800D03*
X282244800Y-76504800D03*
X256844800Y-91744800D03*
X284784800Y-76504800D03*
X254304800Y-91744800D03*
X287324800Y-76504800D03*
X251764800Y-91744800D03*
X289864800Y-76504800D03*
X249224800Y-91744800D03*
X292404800Y-76504800D03*
X246684800Y-91744800D03*
D15*
X294944800Y-76504800D03*
%TD*%
D16*
%TO.C,XTAL1*%
X239014000Y-86033000D03*
X239014000Y-81153000D03*
%TD*%
D17*
%TO.C,C5*%
X236046000Y-91313000D03*
X241046000Y-91313000D03*
%TD*%
%TO.C,C4*%
X236046000Y-75946000D03*
X241046000Y-75946000D03*
%TD*%
%TO.C,C1*%
X85344000Y-82002000D03*
D15*
X85344000Y-79502000D03*
%TD*%
D18*
%TO.C,J2*%
X35306000Y-83216000D03*
X35306000Y-81216000D03*
X35306000Y-79216000D03*
D19*
X35306000Y-77216000D03*
%TD*%
D20*
%TO.C,USB1*%
X26388000Y-76614000D03*
X26388000Y-83914000D03*
%TD*%
D21*
%TO.C,MX34*%
X351496000Y-125539000D03*
X346496000Y-126039000D03*
%TD*%
%TO.C,MX40*%
X107910000Y-144589000D03*
X102910000Y-145089000D03*
%TD*%
D22*
%TO.C,J1*%
X346964000Y-86360000D03*
X346964000Y-88900000D03*
X344424000Y-86360000D03*
X344424000Y-88900000D03*
X341884000Y-86360000D03*
D23*
X341884000Y-88900000D03*
%TD*%
D21*
%TO.C,MX14*%
X289901000Y-106489000D03*
X284901000Y-106989000D03*
%TD*%
%TO.C,MX1*%
X36917000Y-106489000D03*
X31917000Y-106989000D03*
%TD*%
D15*
%TO.C,D3*%
X43942000Y-112014000D03*
D14*
X43942000Y-104394000D03*
%TD*%
D17*
%TO.C,R3*%
X185547000Y-88392000D03*
D14*
X185547000Y-78232000D03*
%TD*%
%TO.C,D1*%
X83058000Y-85852000D03*
D15*
X75438000Y-85852000D03*
%TD*%
D14*
%TO.C,D2*%
X83058000Y-89408000D03*
D15*
X75438000Y-89408000D03*
%TD*%
D21*
%TO.C,MX62*%
X227243000Y-155893000D03*
X232243000Y-155393000D03*
%TD*%
%TO.C,MX64*%
X277535000Y-155893000D03*
X282535000Y-155393000D03*
%TD*%
D14*
%TO.C,D18*%
X339471000Y-104394000D03*
D15*
X339471000Y-112014000D03*
%TD*%
D21*
%TO.C,MX3*%
X74763000Y-106489000D03*
X69763000Y-106989000D03*
%TD*%
%TO.C,MX72*%
X135065000Y-82256000D03*
X134565000Y-77256000D03*
%TD*%
%TO.C,MX81*%
X382969000Y-172680000D03*
X382469000Y-167680000D03*
%TD*%
%TO.C,MX80*%
X365292000Y-174943000D03*
X370292000Y-174443000D03*
%TD*%
%TO.C,MX79*%
X337098000Y-174943000D03*
X342098000Y-174443000D03*
%TD*%
%TO.C,MX78*%
X289346000Y-174943000D03*
X294346000Y-174443000D03*
%TD*%
%TO.C,MX77*%
X270296000Y-174943000D03*
X275296000Y-174443000D03*
%TD*%
%TO.C,MX76*%
X251119000Y-174943000D03*
X256119000Y-174443000D03*
%TD*%
%TO.C,MX75*%
X231942000Y-174943000D03*
X236942000Y-174443000D03*
%TD*%
%TO.C,MX74*%
X212892000Y-174943000D03*
X217892000Y-174443000D03*
%TD*%
%TO.C,MX73*%
X183428000Y-174943000D03*
X188428000Y-174443000D03*
%TD*%
%TO.C,MX71*%
X102910000Y-174943000D03*
X107910000Y-174443000D03*
%TD*%
%TO.C,MX70*%
X76621000Y-174943000D03*
X81621000Y-174443000D03*
%TD*%
%TO.C,MX69*%
X50586000Y-174943000D03*
X55586000Y-174443000D03*
%TD*%
%TO.C,MX68*%
X31663000Y-174943000D03*
X36663000Y-174443000D03*
%TD*%
%TO.C,MX67*%
X365292000Y-155893000D03*
X370292000Y-155393000D03*
%TD*%
%TO.C,MX66*%
X346496000Y-155893000D03*
X351496000Y-155393000D03*
%TD*%
%TO.C,MX65*%
X327446000Y-155893000D03*
X332446000Y-155393000D03*
%TD*%
%TO.C,MX63*%
X246420000Y-155893000D03*
X251420000Y-155393000D03*
%TD*%
%TO.C,MX61*%
X208193000Y-155893000D03*
X213193000Y-155393000D03*
%TD*%
%TO.C,MX60*%
X189016000Y-155893000D03*
X194016000Y-155393000D03*
%TD*%
%TO.C,MX59*%
X169966000Y-155893000D03*
X174966000Y-155393000D03*
%TD*%
%TO.C,MX58*%
X150789000Y-155893000D03*
X155789000Y-155393000D03*
%TD*%
%TO.C,MX57*%
X131612000Y-155893000D03*
X136612000Y-155393000D03*
%TD*%
%TO.C,MX56*%
X112562000Y-155893000D03*
X117562000Y-155393000D03*
%TD*%
%TO.C,MX55*%
X93385000Y-155893000D03*
X98385000Y-155393000D03*
%TD*%
%TO.C,MX54*%
X74335000Y-155893000D03*
X79335000Y-155393000D03*
%TD*%
%TO.C,MX53*%
X43728000Y-155893000D03*
X48728000Y-155393000D03*
%TD*%
%TO.C,MX52*%
X389088000Y-144589000D03*
X384088000Y-145089000D03*
%TD*%
%TO.C,MX51*%
X370292000Y-144589000D03*
X365292000Y-145089000D03*
%TD*%
%TO.C,MX50*%
X351496000Y-144589000D03*
X346496000Y-145089000D03*
%TD*%
%TO.C,MX49*%
X332446000Y-144589000D03*
X327446000Y-145089000D03*
%TD*%
%TO.C,MX48*%
X260945000Y-144589000D03*
X255945000Y-145089000D03*
%TD*%
%TO.C,MX47*%
X241768000Y-144589000D03*
X236768000Y-145089000D03*
%TD*%
%TO.C,MX46*%
X222591000Y-144589000D03*
X217591000Y-145089000D03*
%TD*%
%TO.C,MX45*%
X203541000Y-144589000D03*
X198541000Y-145089000D03*
%TD*%
%TO.C,MX44*%
X184364000Y-144589000D03*
X179364000Y-145089000D03*
%TD*%
%TO.C,MX43*%
X165187000Y-144589000D03*
X160187000Y-145089000D03*
%TD*%
%TO.C,MX42*%
X146137000Y-144589000D03*
X141137000Y-145089000D03*
%TD*%
%TO.C,MX41*%
X126960000Y-144589000D03*
X121960000Y-145089000D03*
%TD*%
%TO.C,MX39*%
X88860000Y-144589000D03*
X83860000Y-145089000D03*
%TD*%
%TO.C,MX38*%
X69810000Y-144589000D03*
X64810000Y-145089000D03*
%TD*%
%TO.C,MX37*%
X43648000Y-144589000D03*
X38648000Y-145089000D03*
%TD*%
%TO.C,MX36*%
X389088000Y-125539000D03*
X384088000Y-126039000D03*
%TD*%
%TO.C,MX35*%
X370292000Y-125539000D03*
X365292000Y-126039000D03*
%TD*%
%TO.C,MX33*%
X332446000Y-125539000D03*
X327446000Y-126039000D03*
%TD*%
%TO.C,MX32*%
X287973000Y-134453000D03*
X287473000Y-129453000D03*
%TD*%
%TO.C,MX31*%
X275296000Y-125539000D03*
X270296000Y-126039000D03*
%TD*%
%TO.C,MX30*%
X256246000Y-125539000D03*
X251246000Y-126039000D03*
%TD*%
%TO.C,MX29*%
X237069000Y-125539000D03*
X232069000Y-126039000D03*
%TD*%
%TO.C,MX28*%
X217892000Y-125539000D03*
X212892000Y-126039000D03*
%TD*%
%TO.C,MX27*%
X198715000Y-125539000D03*
X193715000Y-126039000D03*
%TD*%
%TO.C,MX26*%
X179665000Y-125539000D03*
X174665000Y-126039000D03*
%TD*%
%TO.C,MX25*%
X160488000Y-125539000D03*
X155488000Y-126039000D03*
%TD*%
%TO.C,MX24*%
X141438000Y-125539000D03*
X136438000Y-126039000D03*
%TD*%
%TO.C,MX23*%
X122261000Y-125539000D03*
X117261000Y-126039000D03*
%TD*%
%TO.C,MX22*%
X103211000Y-125539000D03*
X98211000Y-126039000D03*
%TD*%
%TO.C,MX21*%
X84161000Y-125539000D03*
X79161000Y-126039000D03*
%TD*%
%TO.C,MX20*%
X65238000Y-125539000D03*
X60238000Y-126039000D03*
%TD*%
%TO.C,MX19*%
X41489000Y-125539000D03*
X36489000Y-126039000D03*
%TD*%
%TO.C,MX18*%
X389088000Y-106489000D03*
X384088000Y-106989000D03*
%TD*%
%TO.C,MX17*%
X370292000Y-106489000D03*
X365292000Y-106989000D03*
%TD*%
%TO.C,MX16*%
X351496000Y-106489000D03*
X346496000Y-106989000D03*
%TD*%
%TO.C,MX15*%
X332446000Y-106489000D03*
X327446000Y-106989000D03*
%TD*%
%TO.C,MX13*%
X265771000Y-106489000D03*
X260771000Y-106989000D03*
%TD*%
%TO.C,MX12*%
X246594000Y-106489000D03*
X241594000Y-106989000D03*
%TD*%
%TO.C,MX11*%
X227417000Y-106489000D03*
X222417000Y-106989000D03*
%TD*%
%TO.C,MX10*%
X208367000Y-106489000D03*
X203367000Y-106989000D03*
%TD*%
%TO.C,MX9*%
X189190000Y-106489000D03*
X184190000Y-106989000D03*
%TD*%
%TO.C,MX8*%
X170140000Y-106489000D03*
X165140000Y-106989000D03*
%TD*%
%TO.C,MX7*%
X150836000Y-106489000D03*
X145836000Y-106989000D03*
%TD*%
%TO.C,MX6*%
X131786000Y-106489000D03*
X126786000Y-106989000D03*
%TD*%
%TO.C,MX5*%
X112736000Y-106489000D03*
X107736000Y-106989000D03*
%TD*%
%TO.C,MX4*%
X93686000Y-106489000D03*
X88686000Y-106989000D03*
%TD*%
%TO.C,MX2*%
X55840000Y-106489000D03*
X50840000Y-106989000D03*
%TD*%
D24*
%TO.C,Reset1*%
X175537000Y-75565000D03*
X175537000Y-80065000D03*
X169037000Y-75565000D03*
X169037000Y-80065000D03*
%TD*%
D14*
%TO.C,R2*%
X195326000Y-88392000D03*
D17*
X195326000Y-78232000D03*
%TD*%
%TO.C,R4*%
X190500000Y-88392000D03*
D14*
X190500000Y-78232000D03*
%TD*%
%TO.C,R1*%
X163322000Y-76962000D03*
D17*
X163322000Y-87122000D03*
%TD*%
D24*
%TO.C,F1*%
X74676000Y-80762000D03*
X79756000Y-80772000D03*
%TD*%
D14*
%TO.C,D74*%
X127762000Y-77343000D03*
D15*
X127762000Y-84963000D03*
%TD*%
D14*
%TO.C,D83*%
X388874000Y-180213000D03*
D15*
X381254000Y-180213000D03*
%TD*%
D14*
%TO.C,D82*%
X377317000Y-176530000D03*
D15*
X377317000Y-168910000D03*
%TD*%
D14*
%TO.C,D81*%
X349504000Y-176530000D03*
D15*
X349504000Y-168910000D03*
%TD*%
D14*
%TO.C,D80*%
X301498000Y-176530000D03*
D15*
X301498000Y-168910000D03*
%TD*%
D14*
%TO.C,D79*%
X282321000Y-176530000D03*
D15*
X282321000Y-168910000D03*
%TD*%
D14*
%TO.C,D78*%
X263271000Y-176530000D03*
D15*
X263271000Y-168910000D03*
%TD*%
D14*
%TO.C,D77*%
X244094000Y-176530000D03*
D15*
X244094000Y-168910000D03*
%TD*%
D14*
%TO.C,D76*%
X224917000Y-176530000D03*
D15*
X224917000Y-168910000D03*
%TD*%
D14*
%TO.C,D75*%
X196215000Y-176530000D03*
D15*
X196215000Y-168910000D03*
%TD*%
D14*
%TO.C,D73*%
X114935000Y-176403000D03*
D15*
X114935000Y-168783000D03*
%TD*%
D14*
%TO.C,D72*%
X88646000Y-176403000D03*
D15*
X88646000Y-168783000D03*
%TD*%
D14*
%TO.C,D71*%
X62611000Y-176403000D03*
D15*
X62611000Y-168783000D03*
%TD*%
D14*
%TO.C,D70*%
X43561000Y-176403000D03*
D15*
X43561000Y-168783000D03*
%TD*%
D14*
%TO.C,D69*%
X377190000Y-153035000D03*
D15*
X377190000Y-160655000D03*
%TD*%
D14*
%TO.C,D68*%
X358394000Y-153035000D03*
D15*
X358394000Y-160655000D03*
%TD*%
D14*
%TO.C,D67*%
X339471000Y-153035000D03*
D15*
X339471000Y-160655000D03*
%TD*%
D14*
%TO.C,D66*%
X289687000Y-153035000D03*
D15*
X289687000Y-160655000D03*
%TD*%
D14*
%TO.C,D65*%
X258699000Y-153035000D03*
D15*
X258699000Y-160655000D03*
%TD*%
D14*
%TO.C,D64*%
X239268000Y-153035000D03*
D15*
X239268000Y-160655000D03*
%TD*%
D14*
%TO.C,D63*%
X220218000Y-153035000D03*
D15*
X220218000Y-160655000D03*
%TD*%
D14*
%TO.C,D62*%
X201041000Y-153035000D03*
D15*
X201041000Y-160655000D03*
%TD*%
D14*
%TO.C,D61*%
X181991000Y-153035000D03*
D15*
X181991000Y-160655000D03*
%TD*%
D14*
%TO.C,D60*%
X162814000Y-153035000D03*
D15*
X162814000Y-160655000D03*
%TD*%
D14*
%TO.C,D59*%
X143637000Y-153035000D03*
D15*
X143637000Y-160655000D03*
%TD*%
D14*
%TO.C,D58*%
X124587000Y-153035000D03*
D15*
X124587000Y-160655000D03*
%TD*%
D14*
%TO.C,D57*%
X105410000Y-153035000D03*
D15*
X105410000Y-160655000D03*
%TD*%
D14*
%TO.C,D56*%
X86360000Y-153035000D03*
D15*
X86360000Y-160655000D03*
%TD*%
D14*
%TO.C,D55*%
X55753000Y-153035000D03*
D15*
X55753000Y-160655000D03*
%TD*%
D14*
%TO.C,D54*%
X377190000Y-147447000D03*
D15*
X377190000Y-139827000D03*
%TD*%
D14*
%TO.C,D53*%
X358394000Y-147447000D03*
D15*
X358394000Y-139827000D03*
%TD*%
D14*
%TO.C,D52*%
X339471000Y-147447000D03*
D15*
X339471000Y-139827000D03*
%TD*%
D14*
%TO.C,D51*%
X320294000Y-147447000D03*
D15*
X320294000Y-139827000D03*
%TD*%
D14*
%TO.C,D50*%
X268224000Y-147447000D03*
D15*
X268224000Y-139827000D03*
%TD*%
D14*
%TO.C,D49*%
X248793000Y-147447000D03*
D15*
X248793000Y-139827000D03*
%TD*%
D14*
%TO.C,D48*%
X229616000Y-147447000D03*
D15*
X229616000Y-139827000D03*
%TD*%
D14*
%TO.C,D47*%
X210566000Y-147447000D03*
D15*
X210566000Y-139827000D03*
%TD*%
D14*
%TO.C,D46*%
X191389000Y-147447000D03*
D15*
X191389000Y-139827000D03*
%TD*%
D14*
%TO.C,D45*%
X172212000Y-147447000D03*
D15*
X172212000Y-139827000D03*
%TD*%
D14*
%TO.C,D44*%
X153162000Y-147447000D03*
D15*
X153162000Y-139827000D03*
%TD*%
D14*
%TO.C,D43*%
X134112000Y-147447000D03*
D15*
X134112000Y-139827000D03*
%TD*%
D14*
%TO.C,D42*%
X114935000Y-147447000D03*
D15*
X114935000Y-139827000D03*
%TD*%
D14*
%TO.C,D41*%
X95885000Y-147447000D03*
D15*
X95885000Y-139827000D03*
%TD*%
D14*
%TO.C,D40*%
X76835000Y-147447000D03*
D15*
X76835000Y-139827000D03*
%TD*%
D14*
%TO.C,D39*%
X50800000Y-147447000D03*
D15*
X50800000Y-139827000D03*
%TD*%
D14*
%TO.C,D38*%
X377190000Y-128524000D03*
D15*
X377190000Y-120904000D03*
%TD*%
D14*
%TO.C,D37*%
X358394000Y-128524000D03*
D15*
X358394000Y-120904000D03*
%TD*%
D14*
%TO.C,D36*%
X339471000Y-128524000D03*
D15*
X339471000Y-120904000D03*
%TD*%
D14*
%TO.C,D35*%
X320421000Y-128524000D03*
D15*
X320421000Y-120904000D03*
%TD*%
D14*
%TO.C,D34*%
X301879000Y-128524000D03*
D15*
X301879000Y-120904000D03*
%TD*%
D14*
%TO.C,D33*%
X282321000Y-128524000D03*
D15*
X282321000Y-120904000D03*
%TD*%
D14*
%TO.C,D32*%
X263271000Y-128524000D03*
D15*
X263271000Y-120904000D03*
%TD*%
D14*
%TO.C,D31*%
X244144800Y-128524000D03*
D15*
X244144800Y-120904000D03*
%TD*%
D14*
%TO.C,D30*%
X224942400Y-128524000D03*
D15*
X224942400Y-120904000D03*
%TD*%
D14*
%TO.C,D29*%
X205841600Y-128524000D03*
D15*
X205841600Y-120904000D03*
%TD*%
D14*
%TO.C,D28*%
X186740800Y-128524000D03*
D15*
X186740800Y-120904000D03*
%TD*%
D14*
%TO.C,D27*%
X167589200Y-128524000D03*
D15*
X167589200Y-120904000D03*
%TD*%
D14*
%TO.C,D26*%
X148488400Y-128524000D03*
D15*
X148488400Y-120904000D03*
%TD*%
D14*
%TO.C,D25*%
X129336800Y-128524000D03*
D15*
X129336800Y-120904000D03*
%TD*%
D14*
%TO.C,D24*%
X110185200Y-128524000D03*
D15*
X110185200Y-120904000D03*
%TD*%
D14*
%TO.C,D23*%
X91135200Y-128524000D03*
D15*
X91135200Y-120904000D03*
%TD*%
%TO.C,D22*%
X72237600Y-120904000D03*
D14*
X72237600Y-128524000D03*
%TD*%
%TO.C,D21*%
X48514000Y-128524000D03*
D15*
X48514000Y-120904000D03*
%TD*%
D14*
%TO.C,D20*%
X377317000Y-104394000D03*
D15*
X377317000Y-112014000D03*
%TD*%
D14*
%TO.C,D19*%
X358394000Y-104394000D03*
D15*
X358394000Y-112014000D03*
%TD*%
D14*
%TO.C,D17*%
X320040000Y-104394000D03*
D15*
X320040000Y-112014000D03*
%TD*%
D14*
%TO.C,D16*%
X297942000Y-104394000D03*
D15*
X297942000Y-112014000D03*
%TD*%
D14*
%TO.C,D15*%
X273812000Y-104394000D03*
D15*
X273812000Y-112014000D03*
%TD*%
D14*
%TO.C,D14*%
X253746000Y-104394000D03*
D15*
X253746000Y-112014000D03*
%TD*%
D14*
%TO.C,D13*%
X234569000Y-104394000D03*
D15*
X234569000Y-112014000D03*
%TD*%
D14*
%TO.C,D12*%
X215392000Y-104394000D03*
D15*
X215392000Y-112014000D03*
%TD*%
D14*
%TO.C,D11*%
X196342000Y-104394000D03*
D15*
X196342000Y-112014000D03*
%TD*%
D14*
%TO.C,D10*%
X177165000Y-104394000D03*
D15*
X177165000Y-112014000D03*
%TD*%
D14*
%TO.C,D9*%
X157988000Y-104394000D03*
D15*
X157988000Y-112014000D03*
%TD*%
D14*
%TO.C,D8*%
X138811000Y-104394000D03*
D15*
X138811000Y-112014000D03*
%TD*%
D14*
%TO.C,D7*%
X119761000Y-104394000D03*
D15*
X119761000Y-112014000D03*
%TD*%
D14*
%TO.C,D6*%
X100711000Y-104394000D03*
D15*
X100711000Y-112014000D03*
%TD*%
D14*
%TO.C,D5*%
X81661000Y-104394000D03*
D15*
X81661000Y-112014000D03*
%TD*%
D14*
%TO.C,D4*%
X62865000Y-104394000D03*
D15*
X62865000Y-112014000D03*
%TD*%
D17*
%TO.C,C3*%
X269584800Y-73660000D03*
X272084800Y-73660000D03*
%TD*%
%TO.C,C2*%
X274193000Y-95250000D03*
X274193000Y-97750000D03*
%TD*%
D24*
%TO.C,Boot1*%
X175537000Y-83566000D03*
X175537000Y-88066000D03*
X169037000Y-83566000D03*
X169037000Y-88066000D03*
%TD*%
M02*
