%TF.GenerationSoftware,KiCad,Pcbnew,(5.1.6)-1*%
%TF.CreationDate,2020-05-26T23:46:38+02:00*%
%TF.ProjectId,m0116_usb,6d303131-365f-4757-9362-2e6b69636164,rev?*%
%TF.SameCoordinates,Original*%
%TF.FileFunction,Soldermask,Top*%
%TF.FilePolarity,Negative*%
%FSLAX46Y46*%
G04 Gerber Fmt 4.6, Leading zero omitted, Abs format (unit mm)*
G04 Created by KiCad (PCBNEW (5.1.6)-1) date 2020-05-26 23:46:38*
%MOMM*%
%LPD*%
G01*
G04 APERTURE LIST*
%ADD10O,1.800000X1.800000*%
%ADD11R,1.800000X1.800000*%
%ADD12C,2.350000*%
%ADD13C,1.700000*%
%ADD14R,1.700000X1.700000*%
%ADD15O,1.700000X1.700000*%
%ADD16C,1.600000*%
%ADD17C,2.100000*%
%ADD18O,2.800000X1.800000*%
G04 APERTURE END LIST*
D10*
%TO.C,J6*%
X343408000Y-92964000D03*
X345948000Y-92964000D03*
X348488000Y-92964000D03*
X351028000Y-92964000D03*
X353568000Y-92964000D03*
D11*
X356108000Y-92964000D03*
%TD*%
D10*
%TO.C,J5*%
X343408000Y-86360000D03*
X345948000Y-86360000D03*
X348488000Y-86360000D03*
X351028000Y-86360000D03*
X353568000Y-86360000D03*
D11*
X356108000Y-86360000D03*
%TD*%
D10*
%TO.C,J1*%
X379857000Y-82677000D03*
X377317000Y-82677000D03*
X379857000Y-80137000D03*
X377317000Y-80137000D03*
X379857000Y-77597000D03*
D11*
X377317000Y-77597000D03*
%TD*%
D12*
%TO.C,MX14*%
X289901000Y-106489000D03*
X284901000Y-106989000D03*
%TD*%
D13*
%TO.C,C1*%
X233379000Y-76200000D03*
X238379000Y-76200000D03*
%TD*%
D12*
%TO.C,MX1*%
X36917000Y-106489000D03*
X31917000Y-106989000D03*
%TD*%
D14*
%TO.C,D3*%
X43942000Y-112014000D03*
D15*
X43942000Y-104394000D03*
%TD*%
D10*
%TO.C,J4*%
X75438000Y-86487000D03*
X72898000Y-86487000D03*
X70358000Y-86487000D03*
D11*
X67818000Y-86487000D03*
%TD*%
D13*
%TO.C,R3*%
X190119000Y-88392000D03*
D15*
X190119000Y-78232000D03*
%TD*%
D10*
%TO.C,J3*%
X75438000Y-92837000D03*
X72898000Y-92837000D03*
X70358000Y-92837000D03*
D11*
X67818000Y-92837000D03*
%TD*%
D15*
%TO.C,D1*%
X75438000Y-80645000D03*
D14*
X67818000Y-80645000D03*
%TD*%
D15*
%TO.C,D2*%
X75438000Y-76136500D03*
D14*
X67818000Y-76136500D03*
%TD*%
D12*
%TO.C,MX62*%
X227243000Y-155893000D03*
X232243000Y-155393000D03*
%TD*%
%TO.C,MX64*%
X277535000Y-155893000D03*
X282535000Y-155393000D03*
%TD*%
D15*
%TO.C,D18*%
X339471000Y-104394000D03*
D14*
X339471000Y-112014000D03*
%TD*%
D12*
%TO.C,MX3*%
X74763000Y-106489000D03*
X69763000Y-106989000D03*
%TD*%
%TO.C,MX81*%
X135065000Y-82256000D03*
X134565000Y-77256000D03*
%TD*%
%TO.C,MX80*%
X382969000Y-172680000D03*
X382469000Y-167680000D03*
%TD*%
%TO.C,MX79*%
X365292000Y-174943000D03*
X370292000Y-174443000D03*
%TD*%
%TO.C,MX78*%
X337098000Y-174943000D03*
X342098000Y-174443000D03*
%TD*%
%TO.C,MX77*%
X289346000Y-174943000D03*
X294346000Y-174443000D03*
%TD*%
%TO.C,MX76*%
X270296000Y-174943000D03*
X275296000Y-174443000D03*
%TD*%
%TO.C,MX75*%
X251119000Y-174943000D03*
X256119000Y-174443000D03*
%TD*%
%TO.C,MX74*%
X231942000Y-174943000D03*
X236942000Y-174443000D03*
%TD*%
%TO.C,MX73*%
X212892000Y-174943000D03*
X217892000Y-174443000D03*
%TD*%
%TO.C,MX72*%
X183428000Y-174943000D03*
X188428000Y-174443000D03*
%TD*%
%TO.C,MX71*%
X102910000Y-174943000D03*
X107910000Y-174443000D03*
%TD*%
%TO.C,MX70*%
X76621000Y-174943000D03*
X81621000Y-174443000D03*
%TD*%
%TO.C,MX69*%
X50586000Y-174943000D03*
X55586000Y-174443000D03*
%TD*%
%TO.C,MX68*%
X31663000Y-174943000D03*
X36663000Y-174443000D03*
%TD*%
%TO.C,MX67*%
X365292000Y-155893000D03*
X370292000Y-155393000D03*
%TD*%
%TO.C,MX66*%
X346496000Y-155893000D03*
X351496000Y-155393000D03*
%TD*%
%TO.C,MX65*%
X327446000Y-155893000D03*
X332446000Y-155393000D03*
%TD*%
%TO.C,MX63*%
X246420000Y-155893000D03*
X251420000Y-155393000D03*
%TD*%
%TO.C,MX61*%
X208193000Y-155893000D03*
X213193000Y-155393000D03*
%TD*%
%TO.C,MX60*%
X189016000Y-155893000D03*
X194016000Y-155393000D03*
%TD*%
%TO.C,MX59*%
X169966000Y-155893000D03*
X174966000Y-155393000D03*
%TD*%
%TO.C,MX58*%
X150789000Y-155893000D03*
X155789000Y-155393000D03*
%TD*%
%TO.C,MX57*%
X131612000Y-155893000D03*
X136612000Y-155393000D03*
%TD*%
%TO.C,MX56*%
X112562000Y-155893000D03*
X117562000Y-155393000D03*
%TD*%
%TO.C,MX55*%
X93385000Y-155893000D03*
X98385000Y-155393000D03*
%TD*%
%TO.C,MX54*%
X74335000Y-155893000D03*
X79335000Y-155393000D03*
%TD*%
%TO.C,MX53*%
X43728000Y-155893000D03*
X48728000Y-155393000D03*
%TD*%
%TO.C,MX52*%
X389088000Y-144589000D03*
X384088000Y-145089000D03*
%TD*%
%TO.C,MX51*%
X370292000Y-144589000D03*
X365292000Y-145089000D03*
%TD*%
%TO.C,MX50*%
X351496000Y-144589000D03*
X346496000Y-145089000D03*
%TD*%
%TO.C,MX49*%
X332446000Y-144589000D03*
X327446000Y-145089000D03*
%TD*%
%TO.C,MX48*%
X260945000Y-144589000D03*
X255945000Y-145089000D03*
%TD*%
%TO.C,MX47*%
X241768000Y-144589000D03*
X236768000Y-145089000D03*
%TD*%
%TO.C,MX46*%
X222591000Y-144589000D03*
X217591000Y-145089000D03*
%TD*%
%TO.C,MX45*%
X203541000Y-144589000D03*
X198541000Y-145089000D03*
%TD*%
%TO.C,MX44*%
X184364000Y-144589000D03*
X179364000Y-145089000D03*
%TD*%
%TO.C,MX43*%
X165187000Y-144589000D03*
X160187000Y-145089000D03*
%TD*%
%TO.C,MX42*%
X146137000Y-144589000D03*
X141137000Y-145089000D03*
%TD*%
%TO.C,MX41*%
X126960000Y-144589000D03*
X121960000Y-145089000D03*
%TD*%
%TO.C,MX40*%
X107910000Y-144589000D03*
X102910000Y-145089000D03*
%TD*%
%TO.C,MX39*%
X88860000Y-144589000D03*
X83860000Y-145089000D03*
%TD*%
%TO.C,MX38*%
X69810000Y-144589000D03*
X64810000Y-145089000D03*
%TD*%
%TO.C,MX37*%
X43648000Y-144589000D03*
X38648000Y-145089000D03*
%TD*%
%TO.C,MX36*%
X389088000Y-125539000D03*
X384088000Y-126039000D03*
%TD*%
%TO.C,MX35*%
X370292000Y-125539000D03*
X365292000Y-126039000D03*
%TD*%
%TO.C,MX34*%
X351496000Y-125539000D03*
X346496000Y-126039000D03*
%TD*%
%TO.C,MX33*%
X332446000Y-125539000D03*
X327446000Y-126039000D03*
%TD*%
%TO.C,MX32*%
X287973000Y-134453000D03*
X287473000Y-129453000D03*
%TD*%
%TO.C,MX31*%
X275296000Y-125539000D03*
X270296000Y-126039000D03*
%TD*%
%TO.C,MX30*%
X256246000Y-125539000D03*
X251246000Y-126039000D03*
%TD*%
%TO.C,MX29*%
X237069000Y-125539000D03*
X232069000Y-126039000D03*
%TD*%
%TO.C,MX28*%
X217892000Y-125539000D03*
X212892000Y-126039000D03*
%TD*%
%TO.C,MX27*%
X198715000Y-125539000D03*
X193715000Y-126039000D03*
%TD*%
%TO.C,MX26*%
X179665000Y-125539000D03*
X174665000Y-126039000D03*
%TD*%
%TO.C,MX25*%
X160488000Y-125539000D03*
X155488000Y-126039000D03*
%TD*%
%TO.C,MX24*%
X141438000Y-125539000D03*
X136438000Y-126039000D03*
%TD*%
%TO.C,MX23*%
X122261000Y-125539000D03*
X117261000Y-126039000D03*
%TD*%
%TO.C,MX22*%
X103211000Y-125539000D03*
X98211000Y-126039000D03*
%TD*%
%TO.C,MX21*%
X84161000Y-125539000D03*
X79161000Y-126039000D03*
%TD*%
%TO.C,MX20*%
X65238000Y-125539000D03*
X60238000Y-126039000D03*
%TD*%
%TO.C,MX19*%
X41489000Y-125539000D03*
X36489000Y-126039000D03*
%TD*%
%TO.C,MX18*%
X389088000Y-106489000D03*
X384088000Y-106989000D03*
%TD*%
%TO.C,MX17*%
X370292000Y-106489000D03*
X365292000Y-106989000D03*
%TD*%
%TO.C,MX16*%
X351496000Y-106489000D03*
X346496000Y-106989000D03*
%TD*%
%TO.C,MX15*%
X332446000Y-106489000D03*
X327446000Y-106989000D03*
%TD*%
%TO.C,MX13*%
X265771000Y-106489000D03*
X260771000Y-106989000D03*
%TD*%
%TO.C,MX12*%
X246594000Y-106489000D03*
X241594000Y-106989000D03*
%TD*%
%TO.C,MX11*%
X227417000Y-106489000D03*
X222417000Y-106989000D03*
%TD*%
%TO.C,MX10*%
X208367000Y-106489000D03*
X203367000Y-106989000D03*
%TD*%
%TO.C,MX9*%
X189190000Y-106489000D03*
X184190000Y-106989000D03*
%TD*%
%TO.C,MX8*%
X170140000Y-106489000D03*
X165140000Y-106989000D03*
%TD*%
%TO.C,MX7*%
X150836000Y-106489000D03*
X145836000Y-106989000D03*
%TD*%
%TO.C,MX6*%
X131786000Y-106489000D03*
X126786000Y-106989000D03*
%TD*%
%TO.C,MX5*%
X112736000Y-106489000D03*
X107736000Y-106989000D03*
%TD*%
%TO.C,MX4*%
X93686000Y-106489000D03*
X88686000Y-106989000D03*
%TD*%
%TO.C,MX2*%
X55840000Y-106489000D03*
X50840000Y-106989000D03*
%TD*%
D16*
%TO.C,Y1*%
X236474000Y-86375900D03*
X236474000Y-81495900D03*
%TD*%
D15*
%TO.C,U1*%
X294944800Y-91744800D03*
X246684800Y-76504800D03*
X292404800Y-91744800D03*
X249224800Y-76504800D03*
X289864800Y-91744800D03*
X251764800Y-76504800D03*
X287324800Y-91744800D03*
X254304800Y-76504800D03*
X284784800Y-91744800D03*
X256844800Y-76504800D03*
X282244800Y-91744800D03*
X259384800Y-76504800D03*
X279704800Y-91744800D03*
X261924800Y-76504800D03*
X277164800Y-91744800D03*
X264464800Y-76504800D03*
X274624800Y-91744800D03*
X267004800Y-76504800D03*
X272084800Y-91744800D03*
X269544800Y-76504800D03*
X269544800Y-91744800D03*
X272084800Y-76504800D03*
X267004800Y-91744800D03*
X274624800Y-76504800D03*
X264464800Y-91744800D03*
X277164800Y-76504800D03*
X261924800Y-91744800D03*
X279704800Y-76504800D03*
X259384800Y-91744800D03*
X282244800Y-76504800D03*
X256844800Y-91744800D03*
X284784800Y-76504800D03*
X254304800Y-91744800D03*
X287324800Y-76504800D03*
X251764800Y-91744800D03*
X289864800Y-76504800D03*
X249224800Y-91744800D03*
X292404800Y-76504800D03*
X246684800Y-91744800D03*
D14*
X294944800Y-76504800D03*
%TD*%
D17*
%TO.C,Reset1*%
X175537000Y-83820000D03*
X175537000Y-88320000D03*
X169037000Y-83820000D03*
X169037000Y-88320000D03*
%TD*%
D15*
%TO.C,R5*%
X195326000Y-88392000D03*
D13*
X195326000Y-78232000D03*
%TD*%
%TO.C,R2*%
X184912000Y-88392000D03*
D15*
X184912000Y-78232000D03*
%TD*%
%TO.C,R1*%
X161544000Y-90170000D03*
D13*
X161544000Y-80010000D03*
%TD*%
D18*
%TO.C,J2*%
X26388000Y-76614000D03*
X26388000Y-83914000D03*
%TD*%
D17*
%TO.C,F1*%
X42926000Y-83937000D03*
X48006000Y-83947000D03*
%TD*%
D15*
%TO.C,D84*%
X127762000Y-77343000D03*
D14*
X127762000Y-84963000D03*
%TD*%
D15*
%TO.C,D83*%
X388874000Y-180213000D03*
D14*
X381254000Y-180213000D03*
%TD*%
D15*
%TO.C,D81*%
X377317000Y-176530000D03*
D14*
X377317000Y-168910000D03*
%TD*%
D15*
%TO.C,D80*%
X349504000Y-176530000D03*
D14*
X349504000Y-168910000D03*
%TD*%
D15*
%TO.C,D79*%
X301498000Y-176530000D03*
D14*
X301498000Y-168910000D03*
%TD*%
D15*
%TO.C,D78*%
X282321000Y-176530000D03*
D14*
X282321000Y-168910000D03*
%TD*%
D15*
%TO.C,D77*%
X263271000Y-176530000D03*
D14*
X263271000Y-168910000D03*
%TD*%
D15*
%TO.C,D76*%
X244094000Y-176530000D03*
D14*
X244094000Y-168910000D03*
%TD*%
D15*
%TO.C,D75*%
X224917000Y-176530000D03*
D14*
X224917000Y-168910000D03*
%TD*%
D15*
%TO.C,D74*%
X196215000Y-176530000D03*
D14*
X196215000Y-168910000D03*
%TD*%
D15*
%TO.C,D73*%
X114935000Y-176403000D03*
D14*
X114935000Y-168783000D03*
%TD*%
D15*
%TO.C,D72*%
X88646000Y-176403000D03*
D14*
X88646000Y-168783000D03*
%TD*%
D15*
%TO.C,D71*%
X62611000Y-176403000D03*
D14*
X62611000Y-168783000D03*
%TD*%
D15*
%TO.C,D70*%
X43561000Y-176403000D03*
D14*
X43561000Y-168783000D03*
%TD*%
D15*
%TO.C,D69*%
X377190000Y-153035000D03*
D14*
X377190000Y-160655000D03*
%TD*%
D15*
%TO.C,D68*%
X358394000Y-153035000D03*
D14*
X358394000Y-160655000D03*
%TD*%
D15*
%TO.C,D67*%
X339471000Y-153035000D03*
D14*
X339471000Y-160655000D03*
%TD*%
D15*
%TO.C,D66*%
X289687000Y-153035000D03*
D14*
X289687000Y-160655000D03*
%TD*%
D15*
%TO.C,D65*%
X258699000Y-153035000D03*
D14*
X258699000Y-160655000D03*
%TD*%
D15*
%TO.C,D64*%
X239268000Y-153035000D03*
D14*
X239268000Y-160655000D03*
%TD*%
D15*
%TO.C,D63*%
X220218000Y-153035000D03*
D14*
X220218000Y-160655000D03*
%TD*%
D15*
%TO.C,D62*%
X201041000Y-153035000D03*
D14*
X201041000Y-160655000D03*
%TD*%
D15*
%TO.C,D61*%
X181991000Y-153035000D03*
D14*
X181991000Y-160655000D03*
%TD*%
D15*
%TO.C,D60*%
X162814000Y-153035000D03*
D14*
X162814000Y-160655000D03*
%TD*%
D15*
%TO.C,D59*%
X143637000Y-153035000D03*
D14*
X143637000Y-160655000D03*
%TD*%
D15*
%TO.C,D58*%
X124587000Y-153035000D03*
D14*
X124587000Y-160655000D03*
%TD*%
D15*
%TO.C,D57*%
X105410000Y-153035000D03*
D14*
X105410000Y-160655000D03*
%TD*%
D15*
%TO.C,D56*%
X86360000Y-153035000D03*
D14*
X86360000Y-160655000D03*
%TD*%
D15*
%TO.C,D55*%
X55753000Y-153035000D03*
D14*
X55753000Y-160655000D03*
%TD*%
D15*
%TO.C,D54*%
X377190000Y-150241000D03*
D14*
X377190000Y-142621000D03*
%TD*%
D15*
%TO.C,D53*%
X358394000Y-150241000D03*
D14*
X358394000Y-142621000D03*
%TD*%
D15*
%TO.C,D52*%
X339471000Y-150241000D03*
D14*
X339471000Y-142621000D03*
%TD*%
D15*
%TO.C,D51*%
X320294000Y-150241000D03*
D14*
X320294000Y-142621000D03*
%TD*%
D15*
%TO.C,D50*%
X268224000Y-150241000D03*
D14*
X268224000Y-142621000D03*
%TD*%
D15*
%TO.C,D49*%
X248793000Y-150241000D03*
D14*
X248793000Y-142621000D03*
%TD*%
D15*
%TO.C,D48*%
X229616000Y-150241000D03*
D14*
X229616000Y-142621000D03*
%TD*%
D15*
%TO.C,D47*%
X210566000Y-150241000D03*
D14*
X210566000Y-142621000D03*
%TD*%
D15*
%TO.C,D46*%
X191389000Y-150241000D03*
D14*
X191389000Y-142621000D03*
%TD*%
D15*
%TO.C,D45*%
X172212000Y-150241000D03*
D14*
X172212000Y-142621000D03*
%TD*%
D15*
%TO.C,D44*%
X153162000Y-150241000D03*
D14*
X153162000Y-142621000D03*
%TD*%
D15*
%TO.C,D43*%
X134112000Y-150241000D03*
D14*
X134112000Y-142621000D03*
%TD*%
D15*
%TO.C,D42*%
X114935000Y-150241000D03*
D14*
X114935000Y-142621000D03*
%TD*%
D15*
%TO.C,D41*%
X95885000Y-150241000D03*
D14*
X95885000Y-142621000D03*
%TD*%
D15*
%TO.C,D40*%
X76835000Y-150241000D03*
D14*
X76835000Y-142621000D03*
%TD*%
D15*
%TO.C,D39*%
X50800000Y-150241000D03*
D14*
X50800000Y-142621000D03*
%TD*%
D15*
%TO.C,D38*%
X377190000Y-130937000D03*
D14*
X377190000Y-123317000D03*
%TD*%
D15*
%TO.C,D37*%
X358394000Y-130937000D03*
D14*
X358394000Y-123317000D03*
%TD*%
D15*
%TO.C,D36*%
X339471000Y-130937000D03*
D14*
X339471000Y-123317000D03*
%TD*%
D15*
%TO.C,D35*%
X320421000Y-130937000D03*
D14*
X320421000Y-123317000D03*
%TD*%
D15*
%TO.C,D34*%
X301879000Y-130937000D03*
D14*
X301879000Y-123317000D03*
%TD*%
D15*
%TO.C,D33*%
X282321000Y-130937000D03*
D14*
X282321000Y-123317000D03*
%TD*%
D15*
%TO.C,D32*%
X263271000Y-130937000D03*
D14*
X263271000Y-123317000D03*
%TD*%
D15*
%TO.C,D31*%
X244144800Y-130937000D03*
D14*
X244144800Y-123317000D03*
%TD*%
D15*
%TO.C,D30*%
X224942400Y-130937000D03*
D14*
X224942400Y-123317000D03*
%TD*%
D15*
%TO.C,D29*%
X205841600Y-130937000D03*
D14*
X205841600Y-123317000D03*
%TD*%
D15*
%TO.C,D28*%
X186740800Y-130937000D03*
D14*
X186740800Y-123317000D03*
%TD*%
D15*
%TO.C,D27*%
X167589200Y-130937000D03*
D14*
X167589200Y-123317000D03*
%TD*%
D15*
%TO.C,D26*%
X148488400Y-130937000D03*
D14*
X148488400Y-123317000D03*
%TD*%
D15*
%TO.C,D25*%
X129336800Y-130937000D03*
D14*
X129336800Y-123317000D03*
%TD*%
D15*
%TO.C,D24*%
X110185200Y-130937000D03*
D14*
X110185200Y-123317000D03*
%TD*%
D15*
%TO.C,D23*%
X91135200Y-130937000D03*
D14*
X91135200Y-123317000D03*
%TD*%
%TO.C,D22*%
X72237600Y-123317000D03*
D15*
X72237600Y-130937000D03*
%TD*%
%TO.C,D21*%
X48514000Y-130937000D03*
D14*
X48514000Y-123317000D03*
%TD*%
D15*
%TO.C,D20*%
X377317000Y-104394000D03*
D14*
X377317000Y-112014000D03*
%TD*%
D15*
%TO.C,D19*%
X358394000Y-104394000D03*
D14*
X358394000Y-112014000D03*
%TD*%
D15*
%TO.C,D17*%
X320040000Y-104394000D03*
D14*
X320040000Y-112014000D03*
%TD*%
D15*
%TO.C,D16*%
X297942000Y-104394000D03*
D14*
X297942000Y-112014000D03*
%TD*%
D15*
%TO.C,D15*%
X273812000Y-104394000D03*
D14*
X273812000Y-112014000D03*
%TD*%
D15*
%TO.C,D14*%
X253746000Y-104394000D03*
D14*
X253746000Y-112014000D03*
%TD*%
D15*
%TO.C,D13*%
X234569000Y-104394000D03*
D14*
X234569000Y-112014000D03*
%TD*%
D15*
%TO.C,D12*%
X215392000Y-104394000D03*
D14*
X215392000Y-112014000D03*
%TD*%
D15*
%TO.C,D11*%
X196342000Y-104394000D03*
D14*
X196342000Y-112014000D03*
%TD*%
D15*
%TO.C,D10*%
X177165000Y-104394000D03*
D14*
X177165000Y-112014000D03*
%TD*%
D15*
%TO.C,D9*%
X157988000Y-104394000D03*
D14*
X157988000Y-112014000D03*
%TD*%
D15*
%TO.C,D8*%
X138811000Y-104394000D03*
D14*
X138811000Y-112014000D03*
%TD*%
D15*
%TO.C,D7*%
X119761000Y-104394000D03*
D14*
X119761000Y-112014000D03*
%TD*%
D15*
%TO.C,D6*%
X100711000Y-104394000D03*
D14*
X100711000Y-112014000D03*
%TD*%
D15*
%TO.C,D5*%
X81661000Y-104394000D03*
D14*
X81661000Y-112014000D03*
%TD*%
D15*
%TO.C,D4*%
X62865000Y-104394000D03*
D14*
X62865000Y-112014000D03*
%TD*%
D13*
%TO.C,C5*%
X269584800Y-73660000D03*
X272084800Y-73660000D03*
%TD*%
%TO.C,C4*%
X272095600Y-94538800D03*
X269595600Y-94538800D03*
%TD*%
%TO.C,C3*%
X45506000Y-77724000D03*
D14*
X48006000Y-77724000D03*
%TD*%
D13*
%TO.C,C2*%
X233379000Y-91694000D03*
X238379000Y-91694000D03*
%TD*%
D17*
%TO.C,Boot1*%
X175537000Y-74930000D03*
X175537000Y-79430000D03*
X169037000Y-74930000D03*
X169037000Y-79430000D03*
%TD*%
M02*
