%TF.GenerationSoftware,KiCad,Pcbnew,(5.1.6)-1*%
%TF.CreationDate,2020-07-13T14:18:02+02:00*%
%TF.ProjectId,m0116_usb,6d303131-365f-4757-9362-2e6b69636164,rev?*%
%TF.SameCoordinates,Original*%
%TF.FileFunction,Soldermask,Bot*%
%TF.FilePolarity,Negative*%
%FSLAX46Y46*%
G04 Gerber Fmt 4.6, Leading zero omitted, Abs format (unit mm)*
G04 Created by KiCad (PCBNEW (5.1.6)-1) date 2020-07-13 14:18:02*
%MOMM*%
%LPD*%
G01*
G04 APERTURE LIST*
%ADD10O,1.700000X1.700000*%
%ADD11R,1.700000X1.700000*%
%ADD12C,2.350000*%
%ADD13O,1.850000X1.300000*%
%ADD14C,1.600000*%
%ADD15C,1.700000*%
%ADD16O,1.450000X1.450000*%
%ADD17R,1.450000X1.450000*%
%ADD18O,1.750000X1.200000*%
%ADD19O,2.800000X1.800000*%
%ADD20O,1.800000X1.800000*%
%ADD21R,1.800000X1.800000*%
%ADD22C,2.100000*%
G04 APERTURE END LIST*
D10*
%TO.C,U1*%
X303276000Y-91744800D03*
X255016000Y-76504800D03*
X300736000Y-91744800D03*
X257556000Y-76504800D03*
X298196000Y-91744800D03*
X260096000Y-76504800D03*
X295656000Y-91744800D03*
X262636000Y-76504800D03*
X293116000Y-91744800D03*
X265176000Y-76504800D03*
X290576000Y-91744800D03*
X267716000Y-76504800D03*
X288036000Y-91744800D03*
X270256000Y-76504800D03*
X285496000Y-91744800D03*
X272796000Y-76504800D03*
X282956000Y-91744800D03*
X275336000Y-76504800D03*
X280416000Y-91744800D03*
X277876000Y-76504800D03*
X277876000Y-91744800D03*
X280416000Y-76504800D03*
X275336000Y-91744800D03*
X282956000Y-76504800D03*
X272796000Y-91744800D03*
X285496000Y-76504800D03*
X270256000Y-91744800D03*
X288036000Y-76504800D03*
X267716000Y-91744800D03*
X290576000Y-76504800D03*
X265176000Y-91744800D03*
X293116000Y-76504800D03*
X262636000Y-91744800D03*
X295656000Y-76504800D03*
X260096000Y-91744800D03*
X298196000Y-76504800D03*
X257556000Y-91744800D03*
X300736000Y-76504800D03*
X255016000Y-91744800D03*
D11*
X303276000Y-76504800D03*
%TD*%
D12*
%TO.C,MX14*%
X289901000Y-106489000D03*
X284901000Y-106989000D03*
%TD*%
D13*
%TO.C,J3*%
X69723000Y-87153000D03*
X69723000Y-85153000D03*
X69723000Y-83153000D03*
G36*
G01*
X69068832Y-80503000D02*
X70377168Y-80503000D01*
G75*
G02*
X70648000Y-80773832I0J-270832D01*
G01*
X70648000Y-81532168D01*
G75*
G02*
X70377168Y-81803000I-270832J0D01*
G01*
X69068832Y-81803000D01*
G75*
G02*
X68798000Y-81532168I0J270832D01*
G01*
X68798000Y-80773832D01*
G75*
G02*
X69068832Y-80503000I270832J0D01*
G01*
G37*
%TD*%
D14*
%TO.C,XTAL1*%
X248666000Y-86287000D03*
X248666000Y-81407000D03*
%TD*%
D15*
%TO.C,C5*%
X245698000Y-91567000D03*
X250698000Y-91567000D03*
%TD*%
%TO.C,C4*%
X245698000Y-76200000D03*
X250698000Y-76200000D03*
%TD*%
%TO.C,C1*%
X85344000Y-82002000D03*
D11*
X85344000Y-79502000D03*
%TD*%
D16*
%TO.C,J2*%
X59309000Y-83216000D03*
X59309000Y-81216000D03*
X59309000Y-79216000D03*
D17*
X59309000Y-77216000D03*
%TD*%
D18*
%TO.C,USB1*%
X55691000Y-78664000D03*
X53991000Y-79464000D03*
X55691000Y-80264000D03*
X53991000Y-81064000D03*
X55691000Y-81864000D03*
D19*
X50391000Y-76614000D03*
X50391000Y-83914000D03*
%TD*%
D12*
%TO.C,MX34*%
X351496000Y-125539000D03*
X346496000Y-126039000D03*
%TD*%
%TO.C,MX40*%
X107910000Y-144589000D03*
X102910000Y-145089000D03*
%TD*%
D20*
%TO.C,J1*%
X346964000Y-86360000D03*
X346964000Y-88900000D03*
X344424000Y-86360000D03*
X344424000Y-88900000D03*
X341884000Y-86360000D03*
D21*
X341884000Y-88900000D03*
%TD*%
D12*
%TO.C,MX1*%
X36917000Y-106489000D03*
X31917000Y-106989000D03*
%TD*%
D11*
%TO.C,D3*%
X43942000Y-112014000D03*
D10*
X43942000Y-104394000D03*
%TD*%
D15*
%TO.C,R3*%
X185547000Y-88392000D03*
D10*
X185547000Y-78232000D03*
%TD*%
%TO.C,D1*%
X83058000Y-85852000D03*
D11*
X75438000Y-85852000D03*
%TD*%
D10*
%TO.C,D2*%
X83058000Y-89408000D03*
D11*
X75438000Y-89408000D03*
%TD*%
D12*
%TO.C,MX62*%
X227243000Y-155893000D03*
X232243000Y-155393000D03*
%TD*%
%TO.C,MX64*%
X277535000Y-155893000D03*
X282535000Y-155393000D03*
%TD*%
D10*
%TO.C,D18*%
X339471000Y-104394000D03*
D11*
X339471000Y-112014000D03*
%TD*%
D12*
%TO.C,MX3*%
X74763000Y-106489000D03*
X69763000Y-106989000D03*
%TD*%
%TO.C,MX72*%
X135065000Y-82002000D03*
X134565000Y-77002000D03*
%TD*%
%TO.C,MX81*%
X382969000Y-172680000D03*
X382469000Y-167680000D03*
%TD*%
%TO.C,MX80*%
X365292000Y-174943000D03*
X370292000Y-174443000D03*
%TD*%
%TO.C,MX79*%
X337098000Y-174943000D03*
X342098000Y-174443000D03*
%TD*%
%TO.C,MX78*%
X289346000Y-174943000D03*
X294346000Y-174443000D03*
%TD*%
%TO.C,MX77*%
X270296000Y-174943000D03*
X275296000Y-174443000D03*
%TD*%
%TO.C,MX76*%
X251119000Y-174943000D03*
X256119000Y-174443000D03*
%TD*%
%TO.C,MX75*%
X231942000Y-174943000D03*
X236942000Y-174443000D03*
%TD*%
%TO.C,MX74*%
X212892000Y-174943000D03*
X217892000Y-174443000D03*
%TD*%
%TO.C,MX73*%
X183428000Y-174943000D03*
X188428000Y-174443000D03*
%TD*%
%TO.C,MX71*%
X102910000Y-174943000D03*
X107910000Y-174443000D03*
%TD*%
%TO.C,MX70*%
X76621000Y-174943000D03*
X81621000Y-174443000D03*
%TD*%
%TO.C,MX69*%
X50586000Y-174943000D03*
X55586000Y-174443000D03*
%TD*%
%TO.C,MX68*%
X31663000Y-174943000D03*
X36663000Y-174443000D03*
%TD*%
%TO.C,MX67*%
X365292000Y-155893000D03*
X370292000Y-155393000D03*
%TD*%
%TO.C,MX66*%
X346496000Y-155893000D03*
X351496000Y-155393000D03*
%TD*%
%TO.C,MX65*%
X327446000Y-155893000D03*
X332446000Y-155393000D03*
%TD*%
%TO.C,MX63*%
X246420000Y-155893000D03*
X251420000Y-155393000D03*
%TD*%
%TO.C,MX61*%
X208193000Y-155893000D03*
X213193000Y-155393000D03*
%TD*%
%TO.C,MX60*%
X189016000Y-155893000D03*
X194016000Y-155393000D03*
%TD*%
%TO.C,MX59*%
X169966000Y-155893000D03*
X174966000Y-155393000D03*
%TD*%
%TO.C,MX58*%
X150789000Y-155893000D03*
X155789000Y-155393000D03*
%TD*%
%TO.C,MX57*%
X131612000Y-155893000D03*
X136612000Y-155393000D03*
%TD*%
%TO.C,MX56*%
X112562000Y-155893000D03*
X117562000Y-155393000D03*
%TD*%
%TO.C,MX55*%
X93385000Y-155893000D03*
X98385000Y-155393000D03*
%TD*%
%TO.C,MX54*%
X74335000Y-155893000D03*
X79335000Y-155393000D03*
%TD*%
%TO.C,MX53*%
X43728000Y-155893000D03*
X48728000Y-155393000D03*
%TD*%
%TO.C,MX52*%
X389088000Y-144589000D03*
X384088000Y-145089000D03*
%TD*%
%TO.C,MX51*%
X370292000Y-144589000D03*
X365292000Y-145089000D03*
%TD*%
%TO.C,MX50*%
X351496000Y-144589000D03*
X346496000Y-145089000D03*
%TD*%
%TO.C,MX49*%
X332446000Y-144589000D03*
X327446000Y-145089000D03*
%TD*%
%TO.C,MX48*%
X260945000Y-144589000D03*
X255945000Y-145089000D03*
%TD*%
%TO.C,MX47*%
X241768000Y-144589000D03*
X236768000Y-145089000D03*
%TD*%
%TO.C,MX46*%
X222591000Y-144589000D03*
X217591000Y-145089000D03*
%TD*%
%TO.C,MX45*%
X203541000Y-144589000D03*
X198541000Y-145089000D03*
%TD*%
%TO.C,MX44*%
X184364000Y-144589000D03*
X179364000Y-145089000D03*
%TD*%
%TO.C,MX43*%
X165187000Y-144589000D03*
X160187000Y-145089000D03*
%TD*%
%TO.C,MX42*%
X146137000Y-144589000D03*
X141137000Y-145089000D03*
%TD*%
%TO.C,MX41*%
X126960000Y-144589000D03*
X121960000Y-145089000D03*
%TD*%
%TO.C,MX39*%
X88860000Y-144589000D03*
X83860000Y-145089000D03*
%TD*%
%TO.C,MX38*%
X69810000Y-144589000D03*
X64810000Y-145089000D03*
%TD*%
%TO.C,MX37*%
X43648000Y-144589000D03*
X38648000Y-145089000D03*
%TD*%
%TO.C,MX36*%
X389088000Y-125539000D03*
X384088000Y-126039000D03*
%TD*%
%TO.C,MX35*%
X370292000Y-125539000D03*
X365292000Y-126039000D03*
%TD*%
%TO.C,MX33*%
X332446000Y-125539000D03*
X327446000Y-126039000D03*
%TD*%
%TO.C,MX32*%
X287973000Y-134453000D03*
X287473000Y-129453000D03*
%TD*%
%TO.C,MX31*%
X275296000Y-125539000D03*
X270296000Y-126039000D03*
%TD*%
%TO.C,MX30*%
X256246000Y-125539000D03*
X251246000Y-126039000D03*
%TD*%
%TO.C,MX29*%
X237069000Y-125539000D03*
X232069000Y-126039000D03*
%TD*%
%TO.C,MX28*%
X217892000Y-125539000D03*
X212892000Y-126039000D03*
%TD*%
%TO.C,MX27*%
X198715000Y-125539000D03*
X193715000Y-126039000D03*
%TD*%
%TO.C,MX26*%
X179665000Y-125539000D03*
X174665000Y-126039000D03*
%TD*%
%TO.C,MX25*%
X160488000Y-125539000D03*
X155488000Y-126039000D03*
%TD*%
%TO.C,MX24*%
X141438000Y-125539000D03*
X136438000Y-126039000D03*
%TD*%
%TO.C,MX23*%
X122261000Y-125539000D03*
X117261000Y-126039000D03*
%TD*%
%TO.C,MX22*%
X103211000Y-125539000D03*
X98211000Y-126039000D03*
%TD*%
%TO.C,MX21*%
X84161000Y-125539000D03*
X79161000Y-126039000D03*
%TD*%
%TO.C,MX20*%
X65238000Y-125539000D03*
X60238000Y-126039000D03*
%TD*%
%TO.C,MX19*%
X41489000Y-125539000D03*
X36489000Y-126039000D03*
%TD*%
%TO.C,MX18*%
X389088000Y-106489000D03*
X384088000Y-106989000D03*
%TD*%
%TO.C,MX17*%
X370292000Y-106489000D03*
X365292000Y-106989000D03*
%TD*%
%TO.C,MX16*%
X351496000Y-106489000D03*
X346496000Y-106989000D03*
%TD*%
%TO.C,MX15*%
X332446000Y-106489000D03*
X327446000Y-106989000D03*
%TD*%
%TO.C,MX13*%
X265771000Y-106489000D03*
X260771000Y-106989000D03*
%TD*%
%TO.C,MX12*%
X246594000Y-106489000D03*
X241594000Y-106989000D03*
%TD*%
%TO.C,MX11*%
X227417000Y-106489000D03*
X222417000Y-106989000D03*
%TD*%
%TO.C,MX10*%
X208367000Y-106489000D03*
X203367000Y-106989000D03*
%TD*%
%TO.C,MX9*%
X189190000Y-106489000D03*
X184190000Y-106989000D03*
%TD*%
%TO.C,MX8*%
X170140000Y-106489000D03*
X165140000Y-106989000D03*
%TD*%
%TO.C,MX7*%
X150836000Y-106489000D03*
X145836000Y-106989000D03*
%TD*%
%TO.C,MX6*%
X131786000Y-106489000D03*
X126786000Y-106989000D03*
%TD*%
%TO.C,MX5*%
X112736000Y-106489000D03*
X107736000Y-106989000D03*
%TD*%
%TO.C,MX4*%
X93686000Y-106489000D03*
X88686000Y-106989000D03*
%TD*%
%TO.C,MX2*%
X55840000Y-106489000D03*
X50840000Y-106989000D03*
%TD*%
D22*
%TO.C,Reset*%
X242085000Y-85344000D03*
X242085000Y-89844000D03*
X235585000Y-85344000D03*
X235585000Y-89844000D03*
%TD*%
D10*
%TO.C,R2*%
X195326000Y-88392000D03*
D15*
X195326000Y-78232000D03*
%TD*%
%TO.C,R4*%
X190500000Y-88392000D03*
D10*
X190500000Y-78232000D03*
%TD*%
%TO.C,R1*%
X229870000Y-78740000D03*
D15*
X229870000Y-88900000D03*
%TD*%
D22*
%TO.C,F1*%
X74676000Y-80762000D03*
X79756000Y-80772000D03*
%TD*%
D10*
%TO.C,D74*%
X127762000Y-77343000D03*
D11*
X127762000Y-84963000D03*
%TD*%
D10*
%TO.C,D83*%
X388874000Y-180213000D03*
D11*
X381254000Y-180213000D03*
%TD*%
D10*
%TO.C,D82*%
X377317000Y-176530000D03*
D11*
X377317000Y-168910000D03*
%TD*%
D10*
%TO.C,D81*%
X349504000Y-176530000D03*
D11*
X349504000Y-168910000D03*
%TD*%
D10*
%TO.C,D80*%
X301498000Y-176530000D03*
D11*
X301498000Y-168910000D03*
%TD*%
D10*
%TO.C,D79*%
X282321000Y-176530000D03*
D11*
X282321000Y-168910000D03*
%TD*%
D10*
%TO.C,D78*%
X263271000Y-176530000D03*
D11*
X263271000Y-168910000D03*
%TD*%
D10*
%TO.C,D77*%
X244094000Y-176530000D03*
D11*
X244094000Y-168910000D03*
%TD*%
D10*
%TO.C,D76*%
X224917000Y-176530000D03*
D11*
X224917000Y-168910000D03*
%TD*%
D10*
%TO.C,D75*%
X196215000Y-176530000D03*
D11*
X196215000Y-168910000D03*
%TD*%
D10*
%TO.C,D73*%
X114935000Y-176403000D03*
D11*
X114935000Y-168783000D03*
%TD*%
D10*
%TO.C,D72*%
X88646000Y-176403000D03*
D11*
X88646000Y-168783000D03*
%TD*%
D10*
%TO.C,D71*%
X62611000Y-176403000D03*
D11*
X62611000Y-168783000D03*
%TD*%
D10*
%TO.C,D70*%
X43561000Y-176403000D03*
D11*
X43561000Y-168783000D03*
%TD*%
D10*
%TO.C,D69*%
X377190000Y-153035000D03*
D11*
X377190000Y-160655000D03*
%TD*%
D10*
%TO.C,D68*%
X358394000Y-153035000D03*
D11*
X358394000Y-160655000D03*
%TD*%
D10*
%TO.C,D67*%
X339471000Y-153035000D03*
D11*
X339471000Y-160655000D03*
%TD*%
D10*
%TO.C,D66*%
X289687000Y-153035000D03*
D11*
X289687000Y-160655000D03*
%TD*%
D10*
%TO.C,D65*%
X258699000Y-153035000D03*
D11*
X258699000Y-160655000D03*
%TD*%
D10*
%TO.C,D64*%
X239268000Y-153035000D03*
D11*
X239268000Y-160655000D03*
%TD*%
D10*
%TO.C,D63*%
X220218000Y-153035000D03*
D11*
X220218000Y-160655000D03*
%TD*%
D10*
%TO.C,D62*%
X201041000Y-153035000D03*
D11*
X201041000Y-160655000D03*
%TD*%
D10*
%TO.C,D61*%
X181991000Y-153035000D03*
D11*
X181991000Y-160655000D03*
%TD*%
D10*
%TO.C,D60*%
X162814000Y-153035000D03*
D11*
X162814000Y-160655000D03*
%TD*%
D10*
%TO.C,D59*%
X143637000Y-153035000D03*
D11*
X143637000Y-160655000D03*
%TD*%
D10*
%TO.C,D58*%
X124587000Y-153035000D03*
D11*
X124587000Y-160655000D03*
%TD*%
D10*
%TO.C,D57*%
X105410000Y-153035000D03*
D11*
X105410000Y-160655000D03*
%TD*%
D10*
%TO.C,D56*%
X86360000Y-153035000D03*
D11*
X86360000Y-160655000D03*
%TD*%
D10*
%TO.C,D55*%
X55753000Y-153035000D03*
D11*
X55753000Y-160655000D03*
%TD*%
D10*
%TO.C,D54*%
X377190000Y-147447000D03*
D11*
X377190000Y-139827000D03*
%TD*%
D10*
%TO.C,D53*%
X358394000Y-147447000D03*
D11*
X358394000Y-139827000D03*
%TD*%
D10*
%TO.C,D52*%
X339471000Y-147447000D03*
D11*
X339471000Y-139827000D03*
%TD*%
D10*
%TO.C,D51*%
X320294000Y-147447000D03*
D11*
X320294000Y-139827000D03*
%TD*%
D10*
%TO.C,D50*%
X268224000Y-147447000D03*
D11*
X268224000Y-139827000D03*
%TD*%
D10*
%TO.C,D49*%
X248793000Y-147447000D03*
D11*
X248793000Y-139827000D03*
%TD*%
D10*
%TO.C,D48*%
X229616000Y-147447000D03*
D11*
X229616000Y-139827000D03*
%TD*%
D10*
%TO.C,D47*%
X210566000Y-147447000D03*
D11*
X210566000Y-139827000D03*
%TD*%
D10*
%TO.C,D46*%
X191389000Y-147447000D03*
D11*
X191389000Y-139827000D03*
%TD*%
D10*
%TO.C,D45*%
X172212000Y-147447000D03*
D11*
X172212000Y-139827000D03*
%TD*%
D10*
%TO.C,D44*%
X153162000Y-147447000D03*
D11*
X153162000Y-139827000D03*
%TD*%
D10*
%TO.C,D43*%
X134112000Y-147447000D03*
D11*
X134112000Y-139827000D03*
%TD*%
D10*
%TO.C,D42*%
X114935000Y-147447000D03*
D11*
X114935000Y-139827000D03*
%TD*%
D10*
%TO.C,D41*%
X95885000Y-147447000D03*
D11*
X95885000Y-139827000D03*
%TD*%
D10*
%TO.C,D40*%
X76835000Y-147447000D03*
D11*
X76835000Y-139827000D03*
%TD*%
D10*
%TO.C,D39*%
X50800000Y-147447000D03*
D11*
X50800000Y-139827000D03*
%TD*%
D10*
%TO.C,D38*%
X377190000Y-128524000D03*
D11*
X377190000Y-120904000D03*
%TD*%
D10*
%TO.C,D37*%
X358394000Y-128524000D03*
D11*
X358394000Y-120904000D03*
%TD*%
D10*
%TO.C,D36*%
X339471000Y-128524000D03*
D11*
X339471000Y-120904000D03*
%TD*%
D10*
%TO.C,D35*%
X320421000Y-128524000D03*
D11*
X320421000Y-120904000D03*
%TD*%
D10*
%TO.C,D34*%
X301879000Y-128524000D03*
D11*
X301879000Y-120904000D03*
%TD*%
D10*
%TO.C,D33*%
X282321000Y-128524000D03*
D11*
X282321000Y-120904000D03*
%TD*%
D10*
%TO.C,D32*%
X263271000Y-128524000D03*
D11*
X263271000Y-120904000D03*
%TD*%
D10*
%TO.C,D31*%
X244144800Y-128524000D03*
D11*
X244144800Y-120904000D03*
%TD*%
D10*
%TO.C,D30*%
X224942400Y-128524000D03*
D11*
X224942400Y-120904000D03*
%TD*%
D10*
%TO.C,D29*%
X205841600Y-128524000D03*
D11*
X205841600Y-120904000D03*
%TD*%
D10*
%TO.C,D28*%
X186740800Y-128524000D03*
D11*
X186740800Y-120904000D03*
%TD*%
D10*
%TO.C,D27*%
X167589200Y-128524000D03*
D11*
X167589200Y-120904000D03*
%TD*%
D10*
%TO.C,D26*%
X148488400Y-128524000D03*
D11*
X148488400Y-120904000D03*
%TD*%
D10*
%TO.C,D25*%
X129336800Y-128524000D03*
D11*
X129336800Y-120904000D03*
%TD*%
D10*
%TO.C,D24*%
X110185200Y-128524000D03*
D11*
X110185200Y-120904000D03*
%TD*%
D10*
%TO.C,D23*%
X91135200Y-128524000D03*
D11*
X91135200Y-120904000D03*
%TD*%
%TO.C,D22*%
X72237600Y-120904000D03*
D10*
X72237600Y-128524000D03*
%TD*%
%TO.C,D21*%
X48514000Y-128524000D03*
D11*
X48514000Y-120904000D03*
%TD*%
D10*
%TO.C,D20*%
X377317000Y-104394000D03*
D11*
X377317000Y-112014000D03*
%TD*%
D10*
%TO.C,D19*%
X358394000Y-104394000D03*
D11*
X358394000Y-112014000D03*
%TD*%
D10*
%TO.C,D17*%
X320040000Y-104394000D03*
D11*
X320040000Y-112014000D03*
%TD*%
D10*
%TO.C,D16*%
X297942000Y-104394000D03*
D11*
X297942000Y-112014000D03*
%TD*%
D10*
%TO.C,D15*%
X273812000Y-104394000D03*
D11*
X273812000Y-112014000D03*
%TD*%
D10*
%TO.C,D14*%
X253746000Y-104394000D03*
D11*
X253746000Y-112014000D03*
%TD*%
D10*
%TO.C,D13*%
X234569000Y-104394000D03*
D11*
X234569000Y-112014000D03*
%TD*%
D10*
%TO.C,D12*%
X215392000Y-104394000D03*
D11*
X215392000Y-112014000D03*
%TD*%
D10*
%TO.C,D11*%
X196342000Y-104394000D03*
D11*
X196342000Y-112014000D03*
%TD*%
D10*
%TO.C,D10*%
X177165000Y-104394000D03*
D11*
X177165000Y-112014000D03*
%TD*%
D10*
%TO.C,D9*%
X157988000Y-104394000D03*
D11*
X157988000Y-112014000D03*
%TD*%
D10*
%TO.C,D8*%
X138811000Y-104394000D03*
D11*
X138811000Y-112014000D03*
%TD*%
D10*
%TO.C,D7*%
X119761000Y-104394000D03*
D11*
X119761000Y-112014000D03*
%TD*%
D10*
%TO.C,D6*%
X100711000Y-104394000D03*
D11*
X100711000Y-112014000D03*
%TD*%
D10*
%TO.C,D5*%
X81661000Y-104394000D03*
D11*
X81661000Y-112014000D03*
%TD*%
D10*
%TO.C,D4*%
X62865000Y-104394000D03*
D11*
X62865000Y-112014000D03*
%TD*%
D15*
%TO.C,C3*%
X277916000Y-73787000D03*
X280416000Y-73787000D03*
%TD*%
%TO.C,C2*%
X276606000Y-96734000D03*
X276606000Y-94234000D03*
%TD*%
D22*
%TO.C,Boot*%
X242085000Y-77216000D03*
X242085000Y-81716000D03*
X235585000Y-77216000D03*
X235585000Y-81716000D03*
%TD*%
M02*
