M48
; DRILL file {KiCad (5.1.6)-1} date 05/26/20 23:46:43
; FORMAT={-:-/ absolute / inch / decimal}
; #@! TF.CreationDate,2020-05-26T23:46:43+02:00
; #@! TF.GenerationSoftware,Kicad,Pcbnew,(5.1.6)-1
; #@! TF.FileFunction,Plated,1,2,PTH
FMAT,2
INCH
T1C0.0157
T2C0.0276
T3C0.0315
T4C0.0394
T5C0.0433
T6C0.0579
%
G90
G05
T1
X9.855Y-4.135
X9.94Y-3.125
X10.12Y-3.305
X11.59Y-4.12
X11.72Y-3.23
X11.765Y-3.825
X12.085Y-3.645
T3
X1.715Y-6.645
X1.715Y-6.945
X8.48Y-4.11
X8.48Y-4.41
X14.11Y-6.025
X14.11Y-6.325
X2.0Y-5.615
X2.0Y-5.915
X10.6136Y-2.9
X10.712Y-2.9
X10.365Y-4.855
X10.365Y-5.155
X6.36Y-3.15
X6.36Y-3.55
X11.405Y-6.025
X11.405Y-6.325
X14.11Y-5.615
X14.11Y-5.915
X2.67Y-2.9975
X2.97Y-2.9975
X5.28Y-5.615
X5.28Y-5.915
X14.85Y-6.025
X14.85Y-6.325
X10.614Y-3.722
X10.7124Y-3.722
X11.885Y-4.855
X11.885Y-5.155
X3.965Y-4.11
X3.965Y-4.41
X9.235Y-4.11
X9.235Y-4.41
X3.49Y-6.645
X3.49Y-6.945
X9.04Y-5.615
X9.04Y-5.915
X12.615Y-4.855
X12.615Y-5.155
X1.73Y-4.11
X1.73Y-4.41
X8.67Y-6.025
X8.67Y-6.325
X3.4Y-6.025
X3.4Y-6.325
X12.6Y-4.11
X12.6Y-4.41
X1.91Y-4.855
X1.91Y-5.155
X9.61Y-6.65
X9.61Y-6.95
X3.215Y-4.11
X3.215Y-4.41
X13.365Y-4.855
X13.365Y-5.155
X8.855Y-6.65
X8.855Y-6.95
X6.78Y-5.615
X6.78Y-5.915
X4.525Y-6.645
X4.525Y-6.945
X5.465Y-4.11
X5.465Y-4.41
X14.85Y-4.855
X14.85Y-5.155
X6.03Y-5.615
X6.03Y-5.915
X7.28Y-3.08
X7.28Y-3.48
X9.31Y-3.2085
X9.31Y-3.4006
X7.915Y-6.025
X7.915Y-6.325
X9.795Y-5.615
X9.795Y-5.915
X5.655Y-6.025
X5.655Y-6.325
X8.29Y-5.615
X8.29Y-5.915
X5.092Y-4.855
X5.092Y-5.155
X2.465Y-6.645
X2.465Y-6.945
X3.775Y-5.615
X3.775Y-5.915
X5.03Y-3.045
X5.03Y-3.345
X4.338Y-4.855
X4.338Y-5.155
X7.725Y-6.65
X7.725Y-6.95
X9.1881Y-3.61
X9.385Y-3.61
X9.99Y-4.11
X9.99Y-4.41
X9.1881Y-3.0
X9.385Y-3.0
X7.69Y-3.08
X7.69Y-3.48
X9.712Y-3.012
X9.712Y-3.612
X9.812Y-3.012
X9.812Y-3.612
X9.912Y-3.012
X9.912Y-3.612
X10.012Y-3.012
X10.012Y-3.612
X10.112Y-3.012
X10.112Y-3.612
X10.212Y-3.012
X10.212Y-3.612
X10.312Y-3.012
X10.312Y-3.612
X10.412Y-3.012
X10.412Y-3.612
X10.512Y-3.012
X10.512Y-3.612
X10.612Y-3.012
X10.612Y-3.612
X10.712Y-3.012
X10.712Y-3.612
X10.812Y-3.012
X10.812Y-3.612
X10.912Y-3.012
X10.912Y-3.612
X11.012Y-3.012
X11.012Y-3.612
X11.112Y-3.012
X11.112Y-3.612
X11.212Y-3.012
X11.212Y-3.612
X11.312Y-3.012
X11.312Y-3.612
X11.412Y-3.012
X11.412Y-3.612
X11.512Y-3.012
X11.512Y-3.612
X11.612Y-3.012
X11.612Y-3.612
X12.61Y-5.615
X12.61Y-5.915
X13.365Y-5.615
X13.365Y-5.915
X10.185Y-6.025
X10.185Y-6.325
X9.612Y-4.855
X9.612Y-5.155
X2.475Y-4.11
X2.475Y-4.41
X7.535Y-5.615
X7.535Y-5.915
X11.115Y-6.65
X11.115Y-6.95
X4.525Y-5.615
X4.525Y-5.915
X13.76Y-6.65
X13.76Y-6.95
X5.846Y-4.855
X5.846Y-5.155
X10.78Y-4.11
X10.78Y-4.41
X6.41Y-6.025
X6.41Y-6.325
X4.15Y-6.025
X4.15Y-6.325
X7.165Y-6.025
X7.165Y-6.325
X6.975Y-4.11
X6.975Y-4.41
X6.598Y-4.855
X6.598Y-5.155
X7.73Y-4.11
X7.73Y-4.41
X2.844Y-4.855
X2.844Y-5.155
X11.87Y-6.65
X11.87Y-6.95
X3.025Y-5.615
X3.025Y-5.915
X14.855Y-6.65
X14.855Y-6.95
X8.856Y-4.855
X8.856Y-5.155
X11.73Y-4.11
X11.73Y-4.41
X2.195Y-6.025
X2.195Y-6.325
X9.42Y-6.025
X9.42Y-6.325
X10.56Y-5.615
X10.56Y-5.915
X14.855Y-4.11
X14.855Y-4.41
X4.715Y-4.11
X4.715Y-4.41
X3.588Y-4.855
X3.588Y-5.155
X15.01Y-7.095
X15.31Y-7.095
X7.352Y-4.855
X7.352Y-5.155
X13.365Y-6.025
X13.365Y-6.325
X14.11Y-4.855
X14.11Y-5.155
X1.7916Y-3.06
X1.89Y-3.06
X8.104Y-4.855
X8.104Y-5.155
X13.365Y-4.11
X13.365Y-4.41
X4.905Y-6.025
X4.905Y-6.325
X7.485Y-3.08
X7.485Y-3.48
X14.85Y-5.615
X14.85Y-5.915
X2.67Y-3.175
X2.97Y-3.175
X6.22Y-4.11
X6.22Y-4.41
X14.11Y-4.11
X14.11Y-4.41
X10.365Y-6.65
X10.365Y-6.95
X11.115Y-4.855
X11.115Y-5.155
T4
X2.67Y-3.655
X2.77Y-3.655
X2.87Y-3.655
X2.97Y-3.655
X14.855Y-3.055
X14.855Y-3.155
X14.855Y-3.255
X14.955Y-3.055
X14.955Y-3.155
X14.955Y-3.255
X2.67Y-3.405
X2.77Y-3.405
X2.87Y-3.405
X2.97Y-3.405
X1.69Y-3.3046
X1.89Y-3.305
X13.52Y-3.66
X13.62Y-3.66
X13.72Y-3.66
X13.82Y-3.66
X13.92Y-3.66
X14.02Y-3.66
X13.52Y-3.4
X13.62Y-3.4
X13.72Y-3.4
X13.82Y-3.4
X13.92Y-3.4
X14.02Y-3.4
T5
X6.655Y-2.95
X6.655Y-3.1272
X6.9109Y-2.95
X6.9109Y-3.1272
X6.655Y-3.3
X6.655Y-3.4772
X6.9109Y-3.3
X6.9109Y-3.4772
T6
X9.5116Y-4.2122
X9.7084Y-4.1925
X7.6266Y-4.9622
X7.8234Y-4.9425
X3.4916Y-4.2122
X3.6884Y-4.1925
X6.1216Y-4.9622
X6.3184Y-4.9425
X8.3816Y-6.8875
X8.5784Y-6.8678
X5.5566Y-5.7122
X5.7534Y-5.6925
X10.0766Y-5.7122
X10.2734Y-5.6925
X13.6416Y-4.9622
X13.8384Y-4.9425
X11.2166Y-4.2122
X11.4134Y-4.1925
X5.9366Y-6.1375
X6.1334Y-6.1178
X8.1966Y-6.1375
X8.3934Y-6.1178
X2.3716Y-4.9622
X2.5684Y-4.9425
X2.9266Y-6.1375
X3.1234Y-6.1178
X8.3816Y-4.9622
X8.5784Y-4.9425
X4.9916Y-4.2122
X5.1884Y-4.1925
X12.8916Y-4.2122
X13.0884Y-4.1925
X4.0516Y-6.8875
X4.2484Y-6.8678
X10.9266Y-6.1375
X11.1234Y-6.1178
X6.3066Y-5.7122
X6.5034Y-5.6925
X12.8916Y-5.7122
X13.0884Y-5.6925
X6.6916Y-6.1375
X6.8884Y-6.1178
X1.2466Y-6.8875
X1.4434Y-6.8678
X9.1366Y-4.9622
X9.3334Y-4.9425
X3.6766Y-6.1375
X3.8734Y-6.1178
X5.7416Y-4.2122
X5.9384Y-4.1925
X3.8666Y-4.9622
X4.0634Y-4.9425
X8.7566Y-4.2122
X8.9534Y-4.1925
X9.8916Y-4.9622
X10.0884Y-4.9425
X7.2216Y-6.8875
X7.4184Y-6.8678
X13.6416Y-5.7122
X13.8384Y-5.6925
X7.0616Y-5.7122
X7.2584Y-5.6925
X7.4416Y-6.1375
X7.6384Y-6.1178
X14.3816Y-6.1375
X14.5784Y-6.1178
X15.1216Y-4.2122
X15.3184Y-4.1925
X7.2516Y-4.2122
X7.4484Y-4.1925
X10.6416Y-4.9622
X10.8384Y-4.9425
X4.2416Y-4.2122
X4.4384Y-4.1925
X13.6416Y-4.2122
X13.8384Y-4.1925
X11.3916Y-6.8875
X11.5884Y-6.8678
X15.0578Y-6.6016
X15.0775Y-6.7984
X3.3016Y-5.7122
X3.4984Y-5.6925
X14.3816Y-4.9622
X14.5784Y-4.9425
X9.7016Y-6.1375
X9.8984Y-6.1178
X14.3816Y-5.7122
X14.5784Y-5.6925
X8.0066Y-4.2122
X8.2034Y-4.1925
X6.8766Y-4.9622
X7.0734Y-4.9425
X10.2666Y-4.2122
X10.4634Y-4.1925
X4.6166Y-4.9622
X4.8134Y-4.9425
X14.3816Y-4.2122
X14.5784Y-4.1925
X5.2978Y-3.0416
X5.3175Y-3.2384
X9.8866Y-6.8875
X10.0834Y-6.8678
X15.1216Y-4.9622
X15.3184Y-4.9425
X9.1316Y-6.8875
X9.3284Y-6.8678
X4.8016Y-5.7122
X4.9984Y-5.6925
X4.0516Y-5.7122
X4.2484Y-5.6925
X12.8916Y-6.1375
X13.0884Y-6.1178
X4.4316Y-6.1375
X4.6284Y-6.1178
X11.3178Y-5.0966
X11.3375Y-5.2934
X3.1166Y-4.9622
X3.3134Y-4.9425
X6.5016Y-4.2122
X6.6984Y-4.1925
X2.7466Y-4.2122
X2.9434Y-4.1925
X8.9466Y-6.1375
X9.1434Y-6.1178
X1.5216Y-5.7122
X1.7184Y-5.6925
X13.2716Y-6.8875
X13.4684Y-6.8678
X8.5666Y-5.7122
X8.7634Y-5.6925
X2.5516Y-5.7122
X2.7484Y-5.6925
X1.2566Y-4.2122
X1.4534Y-4.1925
X5.1816Y-6.1375
X5.3784Y-6.1178
X13.6416Y-6.1375
X13.8384Y-6.1178
X15.1216Y-5.7122
X15.3184Y-5.6925
X1.4366Y-4.9622
X1.6334Y-4.9425
X2.0016Y-4.2122
X2.1984Y-4.1925
X5.3716Y-4.9622
X5.5684Y-4.9425
X10.6416Y-6.8875
X10.8384Y-6.8678
X14.3816Y-6.8875
X14.5784Y-6.8678
X7.8166Y-5.7122
X8.0134Y-5.6925
X9.3216Y-5.7122
X9.5184Y-5.6925
X12.8916Y-4.9622
X13.0884Y-4.9425
X3.0166Y-6.8875
X3.2134Y-6.8678
X1.9916Y-6.8875
X2.1884Y-6.8678
X1.7216Y-6.1375
X1.9184Y-6.1178
T2
G00X1.0153Y-3.0163
M15
G01X1.0625Y-3.0163
M16
G05
G00X1.0153Y-3.3037
M15
G01X1.0625Y-3.3037
M16
G05
G00X1.1905Y-3.1285
M15
G01X1.1905Y-3.1285
M16
G05
G00X1.1905Y-3.1915
M15
G01X1.1905Y-3.1915
M16
G05
G00X1.2377Y-3.097
M15
G01X1.2377Y-3.097
M16
G05
G00X1.2377Y-3.16
M15
G01X1.2377Y-3.16
M16
G05
G00X1.2377Y-3.223
M15
G01X1.2377Y-3.223
M16
G05
T0
M30
