M48
; DRILL file {KiCad 5.1.6-c6e7f7d~87~ubuntu18.04.1} date Wed Aug  5 12:54:41 2020
; FORMAT={-:-/ absolute / metric / decimal}
; #@! TF.CreationDate,2020-08-05T12:54:41+02:00
; #@! TF.GenerationSoftware,Kicad,Pcbnew,5.1.6-c6e7f7d~87~ubuntu18.04.1
FMAT,2
METRIC
T1C0.400
T2C0.700
T3C0.750
T4C0.800
T5C1.000
T6C1.100
T7C1.470
%
G90
G05
T1
X256.54Y-98.298
X298.958Y-97.536
X301.752Y-81.534
X341.122Y-95.504
T3
X69.723Y-81.153
X69.723Y-83.153
X69.723Y-85.153
X69.723Y-87.153
T4
X190.5Y-78.232
X190.5Y-88.392
X119.761Y-104.394
X119.761Y-112.014
X358.394Y-153.035
X358.394Y-160.655
X177.165Y-104.394
X177.165Y-112.014
X95.885Y-139.827
X95.885Y-147.447
X234.569Y-104.394
X234.569Y-112.014
X75.438Y-89.408
X83.058Y-89.408
X263.271Y-168.91
X263.271Y-176.53
X377.317Y-104.394
X377.317Y-112.014
X201.041Y-153.035
X201.041Y-160.655
X339.471Y-139.827
X339.471Y-147.447
X62.865Y-104.394
X62.865Y-112.014
X258.699Y-153.035
X258.699Y-160.655
X124.587Y-153.035
X124.587Y-160.655
X181.991Y-153.035
X181.991Y-160.655
X110.185Y-120.904
X110.185Y-128.524
X224.942Y-120.904
X224.942Y-128.524
X349.504Y-168.91
X349.504Y-176.53
X282.321Y-120.904
X282.321Y-128.524
X339.471Y-120.904
X339.471Y-128.524
X245.698Y-76.2
X250.698Y-76.2
X134.112Y-139.827
X134.112Y-147.447
X50.8Y-139.827
X50.8Y-147.447
X191.389Y-139.827
X191.389Y-147.447
X248.793Y-139.827
X248.793Y-147.447
X88.646Y-168.783
X88.646Y-176.403
X55.753Y-153.035
X55.753Y-160.655
X167.589Y-120.904
X167.589Y-128.524
X75.438Y-85.852
X83.058Y-85.852
X276.606Y-94.234
X276.606Y-96.734
X377.19Y-153.035
X377.19Y-160.655
X224.917Y-168.91
X224.917Y-176.53
X320.04Y-104.394
X320.04Y-112.014
X48.514Y-120.904
X48.514Y-128.524
X220.218Y-153.035
X220.218Y-160.655
X59.309Y-77.216
X59.309Y-79.216
X59.309Y-81.216
X59.309Y-83.216
X289.687Y-153.035
X289.687Y-160.655
X138.811Y-104.394
X138.811Y-112.014
X196.342Y-104.394
X196.342Y-112.014
X185.547Y-78.232
X185.547Y-88.392
X229.87Y-78.74
X229.87Y-88.9
X253.746Y-104.394
X253.746Y-112.014
X282.321Y-168.91
X282.321Y-176.53
X358.394Y-120.904
X358.394Y-128.524
X153.162Y-139.827
X153.162Y-147.447
X210.566Y-139.827
X210.566Y-147.447
X358.394Y-139.827
X358.394Y-147.447
X81.661Y-104.394
X81.661Y-112.014
X143.637Y-153.035
X143.637Y-160.655
X129.337Y-120.904
X129.337Y-128.524
X244.145Y-120.904
X244.145Y-128.524
X301.879Y-120.904
X301.879Y-128.524
X377.317Y-168.91
X377.317Y-176.53
X76.835Y-139.827
X76.835Y-147.447
X339.471Y-104.394
X339.471Y-112.014
X43.561Y-168.783
X43.561Y-176.403
X268.224Y-139.827
X268.224Y-147.447
X43.942Y-104.394
X43.942Y-112.014
X114.935Y-168.783
X114.935Y-176.403
X86.36Y-153.035
X86.36Y-160.655
X72.238Y-120.904
X72.238Y-128.524
X195.326Y-78.232
X195.326Y-88.392
X255.016Y-76.505
X255.016Y-91.745
X257.556Y-76.505
X257.556Y-91.745
X260.096Y-76.505
X260.096Y-91.745
X262.636Y-76.505
X262.636Y-91.745
X265.176Y-76.505
X265.176Y-91.745
X267.716Y-76.505
X267.716Y-91.745
X270.256Y-76.505
X270.256Y-91.745
X272.796Y-76.505
X272.796Y-91.745
X275.336Y-76.505
X275.336Y-91.745
X277.876Y-76.505
X277.876Y-91.745
X280.416Y-76.505
X280.416Y-91.745
X282.956Y-76.505
X282.956Y-91.745
X285.496Y-76.505
X285.496Y-91.745
X288.036Y-76.505
X288.036Y-91.745
X290.576Y-76.505
X290.576Y-91.745
X293.116Y-76.505
X293.116Y-91.745
X295.656Y-76.505
X295.656Y-91.745
X298.196Y-76.505
X298.196Y-91.745
X300.736Y-76.505
X300.736Y-91.745
X303.276Y-76.505
X303.276Y-91.745
X186.741Y-120.904
X186.741Y-128.524
X339.471Y-153.035
X339.471Y-160.655
X215.392Y-104.394
X215.392Y-112.014
X85.344Y-79.502
X85.344Y-82.002
X273.812Y-104.394
X273.812Y-112.014
X244.094Y-168.91
X244.094Y-176.53
X358.394Y-104.394
X358.394Y-112.014
X277.916Y-73.787
X280.416Y-73.787
X127.762Y-77.343
X127.762Y-84.963
X239.268Y-153.035
X239.268Y-160.655
X105.41Y-153.035
X105.41Y-160.655
X157.988Y-104.394
X157.988Y-112.014
X301.498Y-168.91
X301.498Y-176.53
X263.271Y-120.904
X263.271Y-128.524
X381.254Y-180.213
X388.874Y-180.213
X320.421Y-120.904
X320.421Y-128.524
X377.19Y-120.904
X377.19Y-128.524
X172.212Y-139.827
X172.212Y-147.447
X229.616Y-139.827
X229.616Y-147.447
X62.611Y-168.783
X62.611Y-176.403
X377.19Y-139.827
X377.19Y-147.447
X100.711Y-104.394
X100.711Y-112.014
X162.814Y-153.035
X162.814Y-160.655
X148.488Y-120.904
X148.488Y-128.524
X114.935Y-139.827
X114.935Y-147.447
X320.294Y-139.827
X320.294Y-147.447
X196.215Y-168.91
X196.215Y-176.53
X297.942Y-104.394
X297.942Y-112.014
X91.135Y-120.904
X91.135Y-128.524
X248.666Y-81.407
X248.666Y-86.287
X205.842Y-120.904
X205.842Y-128.524
X245.698Y-91.567
X250.698Y-91.567
T5
X74.676Y-80.762
X79.756Y-80.772
X341.884Y-86.36
X341.884Y-88.9
X344.424Y-86.36
X344.424Y-88.9
X346.964Y-86.36
X346.964Y-88.9
T6
X235.585Y-85.344
X235.585Y-89.844
X242.085Y-85.344
X242.085Y-89.844
X235.585Y-77.216
X235.585Y-81.716
X242.085Y-77.216
X242.085Y-81.716
T7
X255.945Y-145.089
X260.945Y-144.589
X145.836Y-106.989
X150.836Y-106.489
X203.367Y-106.989
X208.367Y-106.489
X327.446Y-106.989
X332.446Y-106.489
X365.292Y-155.893
X370.292Y-155.393
X212.892Y-126.039
X217.892Y-125.539
X382.469Y-167.68
X382.969Y-172.68
X179.364Y-145.089
X184.364Y-144.589
X43.728Y-155.893
X48.728Y-155.393
X141.137Y-145.089
X146.137Y-144.589
X136.438Y-126.039
X141.438Y-125.539
X327.446Y-126.039
X332.446Y-125.539
X64.81Y-145.089
X69.81Y-144.589
X222.417Y-106.989
X227.417Y-106.489
X150.789Y-155.893
X155.789Y-155.393
X346.496Y-106.989
X351.496Y-106.489
X277.535Y-155.893
X282.535Y-155.393
X31.663Y-174.943
X36.663Y-174.443
X60.238Y-126.039
X65.238Y-125.539
X183.428Y-174.943
X188.428Y-174.443
X232.069Y-126.039
X237.069Y-125.539
X270.296Y-174.943
X275.296Y-174.443
X107.736Y-106.989
X112.736Y-106.489
X327.446Y-145.089
X332.446Y-144.589
X246.42Y-155.893
X251.42Y-155.393
X165.14Y-106.989
X170.14Y-106.489
X155.488Y-126.039
X160.488Y-125.539
X289.346Y-174.943
X294.346Y-174.443
X365.292Y-126.039
X370.292Y-125.539
X134.565Y-77.002
X135.065Y-82.002
X198.541Y-145.089
X203.541Y-144.589
X169.966Y-155.893
X174.966Y-155.393
X74.335Y-155.893
X79.335Y-155.393
X79.161Y-126.039
X84.161Y-125.539
X212.892Y-174.943
X217.892Y-174.443
X50.84Y-106.989
X55.84Y-106.489
X93.385Y-155.893
X98.385Y-155.393
X346.496Y-145.089
X351.496Y-144.589
X83.86Y-145.089
X88.86Y-144.589
X241.594Y-106.989
X246.594Y-106.489
X365.292Y-106.989
X370.292Y-106.489
X284.901Y-106.989
X289.901Y-106.489
X50.586Y-174.943
X55.586Y-174.443
X31.917Y-106.989
X36.917Y-106.489
X251.246Y-126.039
X256.246Y-125.539
X227.243Y-155.893
X232.243Y-155.393
X102.91Y-145.089
X107.91Y-144.589
X327.446Y-155.893
X332.446Y-155.393
X126.786Y-106.989
X131.786Y-106.489
X270.296Y-126.039
X275.296Y-125.539
X174.665Y-126.039
X179.665Y-125.539
X337.098Y-174.943
X342.098Y-174.443
X384.088Y-126.039
X389.088Y-125.539
X365.292Y-145.089
X370.292Y-144.589
X217.591Y-145.089
X222.591Y-144.589
X189.016Y-155.893
X194.016Y-155.393
X76.621Y-174.943
X81.621Y-174.443
X98.211Y-126.039
X103.211Y-125.539
X231.942Y-174.943
X236.942Y-174.443
X236.768Y-145.089
X241.768Y-144.589
X184.19Y-106.989
X189.19Y-106.489
X112.562Y-155.893
X117.562Y-155.393
X121.96Y-145.089
X126.96Y-144.589
X260.771Y-106.989
X265.771Y-106.489
X346.496Y-155.893
X351.496Y-155.393
X384.088Y-106.989
X389.088Y-106.489
X365.292Y-174.943
X370.292Y-174.443
X160.187Y-145.089
X165.187Y-144.589
X69.763Y-106.989
X74.763Y-106.489
X208.193Y-155.893
X213.193Y-155.393
X88.686Y-106.989
X93.686Y-106.489
X117.261Y-126.039
X122.261Y-125.539
X287.473Y-129.453
X287.973Y-134.453
X193.715Y-126.039
X198.715Y-125.539
X346.496Y-126.039
X351.496Y-125.539
X38.648Y-145.089
X43.648Y-144.589
X131.612Y-155.893
X136.612Y-155.393
X384.088Y-145.089
X389.088Y-144.589
X36.489Y-126.039
X41.489Y-125.539
X102.91Y-174.943
X107.91Y-174.443
X251.119Y-174.943
X256.119Y-174.443
T2
G00X49.791Y-76.614
M15
G01X50.991Y-76.614
M16
G05
G00X49.791Y-83.914
M15
G01X50.991Y-83.914
M16
G05
G00X54.241Y-79.464
M15
G01X54.241Y-79.464
M16
G05
G00X54.241Y-81.064
M15
G01X54.241Y-81.064
M16
G05
G00X55.441Y-78.664
M15
G01X55.441Y-78.664
M16
G05
G00X55.441Y-80.264
M15
G01X55.441Y-80.264
M16
G05
G00X55.441Y-81.864
M15
G01X55.441Y-81.864
M16
G05
T0
M30
