%TF.GenerationSoftware,KiCad,Pcbnew,(5.1.6)-1*%
%TF.CreationDate,2020-05-26T23:46:38+02:00*%
%TF.ProjectId,m0116_usb,6d303131-365f-4757-9362-2e6b69636164,rev?*%
%TF.SameCoordinates,Original*%
%TF.FileFunction,Profile,NP*%
%FSLAX46Y46*%
G04 Gerber Fmt 4.6, Leading zero omitted, Abs format (unit mm)*
G04 Created by KiCad (PCBNEW (5.1.6)-1) date 2020-05-26 23:46:38*
%MOMM*%
%LPD*%
G01*
G04 APERTURE LIST*
%TA.AperFunction,Profile*%
%ADD10C,0.050000*%
%TD*%
G04 APERTURE END LIST*
D10*
X336042000Y-90932000D02*
X334518000Y-90932000D01*
X355854000Y-90932000D02*
X343154000Y-90932000D01*
X378460000Y-90932000D02*
X362966000Y-90932000D01*
X385572000Y-90932000D02*
X395478000Y-90932000D01*
X381508000Y-89662000D02*
G75*
G03*
X381508000Y-89662000I-635000J0D01*
G01*
X385572000Y-90932000D02*
G75*
G02*
X385572000Y-88392000I0J1270000D01*
G01*
X383794000Y-89662000D02*
G75*
G03*
X383794000Y-89662000I-635000J0D01*
G01*
X378460000Y-88392000D02*
G75*
G02*
X378460000Y-90932000I0J-1270000D01*
G01*
X355854000Y-88392000D02*
G75*
G02*
X355854000Y-90932000I0J-1270000D01*
G01*
X358902000Y-89662000D02*
G75*
G03*
X358902000Y-89662000I-635000J0D01*
G01*
X362966000Y-90932000D02*
G75*
G02*
X362966000Y-88392000I0J1270000D01*
G01*
X361188000Y-89662000D02*
G75*
G03*
X361188000Y-89662000I-635000J0D01*
G01*
X341376000Y-89662000D02*
G75*
G03*
X341376000Y-89662000I-635000J0D01*
G01*
X339090000Y-89662000D02*
G75*
G03*
X339090000Y-89662000I-635000J0D01*
G01*
X343154000Y-90932000D02*
G75*
G02*
X343154000Y-88392000I0J1270000D01*
G01*
X336042000Y-88392000D02*
G75*
G02*
X336042000Y-90932000I0J-1270000D01*
G01*
X385572000Y-88392000D02*
X395478000Y-88392000D01*
X362966000Y-88392000D02*
X378460000Y-88392000D01*
X396748000Y-73660000D02*
G75*
G03*
X395478000Y-72390000I-1270000J0D01*
G01*
X336042000Y-72390000D02*
G75*
G03*
X334772000Y-73660000I0J-1270000D01*
G01*
X395478000Y-88392000D02*
G75*
G03*
X396748000Y-87122000I0J1270000D01*
G01*
X396748000Y-87122000D02*
X396748000Y-73660000D01*
X334772000Y-87122000D02*
G75*
G03*
X336042000Y-88392000I1270000J0D01*
G01*
X334772000Y-73660000D02*
X334772000Y-87122000D01*
X395478000Y-72390000D02*
X336042000Y-72390000D01*
X343154000Y-88392000D02*
X355854000Y-88392000D01*
X25908000Y-90932000D02*
X35814000Y-90932000D01*
X35814000Y-88392000D02*
X25908000Y-88392000D01*
X42926000Y-90932000D02*
X58420000Y-90932000D01*
X58420000Y-88392000D02*
X42926000Y-88392000D01*
X78232000Y-88392000D02*
X65532000Y-88392000D01*
X65532000Y-90932000D02*
X78232000Y-90932000D01*
X86868000Y-90932000D02*
X85344000Y-90932000D01*
X85344000Y-90932000D02*
G75*
G02*
X85344000Y-88392000I0J1270000D01*
G01*
X83566000Y-89662000D02*
G75*
G03*
X83566000Y-89662000I-635000J0D01*
G01*
X78232000Y-88392000D02*
G75*
G02*
X78232000Y-90932000I0J-1270000D01*
G01*
X81280000Y-89662000D02*
G75*
G03*
X81280000Y-89662000I-635000J0D01*
G01*
X63754000Y-89662000D02*
G75*
G03*
X63754000Y-89662000I-635000J0D01*
G01*
X61468000Y-89662000D02*
G75*
G03*
X61468000Y-89662000I-635000J0D01*
G01*
X65532000Y-90932000D02*
G75*
G02*
X65532000Y-88392000I0J1270000D01*
G01*
X58420000Y-88392000D02*
G75*
G02*
X58420000Y-90932000I0J-1270000D01*
G01*
X41148000Y-89662000D02*
G75*
G03*
X41148000Y-89662000I-635000J0D01*
G01*
X38862000Y-89662000D02*
G75*
G03*
X38862000Y-89662000I-635000J0D01*
G01*
X42926000Y-90932000D02*
G75*
G02*
X42926000Y-88392000I0J1270000D01*
G01*
X35814000Y-88392000D02*
G75*
G02*
X35814000Y-90932000I0J-1270000D01*
G01*
X85344000Y-72390000D02*
G75*
G02*
X86614000Y-73660000I0J-1270000D01*
G01*
X86614000Y-87122000D02*
G75*
G02*
X85344000Y-88392000I-1270000J0D01*
G01*
X25908000Y-88392000D02*
G75*
G02*
X24638000Y-87122000I0J1270000D01*
G01*
X24638000Y-73660000D02*
G75*
G02*
X25908000Y-72390000I1270000J0D01*
G01*
X86614000Y-73660000D02*
X86614000Y-87122000D01*
X25908000Y-72390000D02*
X85344000Y-72390000D01*
X24638000Y-87122000D02*
X24638000Y-73660000D01*
X322453000Y-179705000D02*
G75*
G03*
X322453000Y-179705000I-1907916J0D01*
G01*
X67580983Y-179705000D02*
G75*
G03*
X67580983Y-179705000I-1907916J0D01*
G01*
X330327000Y-76581000D02*
G75*
G03*
X330327000Y-76581000I-1524000J0D01*
G01*
X94107000Y-76581000D02*
G75*
G03*
X94107000Y-76581000I-1524000J0D01*
G01*
X331978000Y-72390000D02*
G75*
G02*
X333248000Y-73660000I0J-1270000D01*
G01*
X334518000Y-90932000D02*
G75*
G02*
X333248000Y-89662000I0J1270000D01*
G01*
X395478000Y-90932000D02*
G75*
G02*
X396748000Y-92202000I0J-1270000D01*
G01*
X396748000Y-184658000D02*
G75*
G02*
X395478000Y-185928000I-1270000J0D01*
G01*
X25908000Y-186182000D02*
G75*
G02*
X24638000Y-184912000I0J1270000D01*
G01*
X24638000Y-92202000D02*
G75*
G02*
X25908000Y-90932000I1270000J0D01*
G01*
X88138000Y-89662000D02*
G75*
G02*
X86868000Y-90932000I-1270000J0D01*
G01*
X88138000Y-73914000D02*
G75*
G02*
X89662000Y-72390000I1524000J0D01*
G01*
X324104000Y-86106000D02*
G75*
G03*
X324104000Y-86106000I-7910785J0D01*
G01*
X218694000Y-86106000D02*
G75*
G03*
X218694000Y-86106000I-7910785J0D01*
G01*
X113066785Y-86106000D02*
G75*
G03*
X113066785Y-86106000I-7910785J0D01*
G01*
X24638000Y-184912000D02*
X24638000Y-92202000D01*
X395478000Y-185928000D02*
X25908000Y-186182000D01*
X396748000Y-92202000D02*
X396748000Y-184658000D01*
X333248000Y-73660000D02*
X333248000Y-89662000D01*
X89662000Y-72390000D02*
X331978000Y-72390000D01*
X88138000Y-89662000D02*
X88138000Y-73914000D01*
M02*
